G04 MADE WITH FRITZING*
G04 WWW.FRITZING.ORG*
G04 DOUBLE SIDED*
G04 HOLES PLATED*
G04 CONTOUR ON CENTER OF CONTOUR VECTOR*
%ASAXBY*%
%FSLAX23Y23*%
%MOIN*%
%OFA0B0*%
%SFA1.0B1.0*%
%ADD10R,0.001000X0.001000*%
%LNSILK1*%
G90*
G70*
G54D10*
X0Y2312D02*
X1869Y2312D01*
X0Y2311D02*
X1869Y2311D01*
X0Y2310D02*
X1869Y2310D01*
X0Y2309D02*
X1869Y2309D01*
X0Y2308D02*
X1869Y2308D01*
X0Y2307D02*
X1869Y2307D01*
X0Y2306D02*
X1869Y2306D01*
X0Y2305D02*
X1786Y2305D01*
X1803Y2305D02*
X1869Y2305D01*
X0Y2304D02*
X7Y2304D01*
X1862Y2304D02*
X1869Y2304D01*
X0Y2303D02*
X7Y2303D01*
X1862Y2303D02*
X1869Y2303D01*
X0Y2302D02*
X7Y2302D01*
X1862Y2302D02*
X1869Y2302D01*
X0Y2301D02*
X7Y2301D01*
X1862Y2301D02*
X1869Y2301D01*
X0Y2300D02*
X7Y2300D01*
X1862Y2300D02*
X1869Y2300D01*
X0Y2299D02*
X7Y2299D01*
X1862Y2299D02*
X1869Y2299D01*
X0Y2298D02*
X7Y2298D01*
X1862Y2298D02*
X1869Y2298D01*
X0Y2297D02*
X7Y2297D01*
X1862Y2297D02*
X1869Y2297D01*
X0Y2296D02*
X7Y2296D01*
X1862Y2296D02*
X1869Y2296D01*
X0Y2295D02*
X7Y2295D01*
X1862Y2295D02*
X1869Y2295D01*
X0Y2294D02*
X7Y2294D01*
X1862Y2294D02*
X1869Y2294D01*
X0Y2293D02*
X7Y2293D01*
X1862Y2293D02*
X1869Y2293D01*
X0Y2292D02*
X7Y2292D01*
X1862Y2292D02*
X1869Y2292D01*
X0Y2291D02*
X7Y2291D01*
X1862Y2291D02*
X1869Y2291D01*
X0Y2290D02*
X7Y2290D01*
X1862Y2290D02*
X1869Y2290D01*
X0Y2289D02*
X7Y2289D01*
X1862Y2289D02*
X1869Y2289D01*
X0Y2288D02*
X7Y2288D01*
X1862Y2288D02*
X1869Y2288D01*
X0Y2287D02*
X7Y2287D01*
X1862Y2287D02*
X1869Y2287D01*
X0Y2286D02*
X7Y2286D01*
X1862Y2286D02*
X1869Y2286D01*
X0Y2285D02*
X7Y2285D01*
X1862Y2285D02*
X1869Y2285D01*
X0Y2284D02*
X7Y2284D01*
X1862Y2284D02*
X1869Y2284D01*
X0Y2283D02*
X7Y2283D01*
X1862Y2283D02*
X1869Y2283D01*
X0Y2282D02*
X7Y2282D01*
X1862Y2282D02*
X1869Y2282D01*
X0Y2281D02*
X7Y2281D01*
X1862Y2281D02*
X1869Y2281D01*
X0Y2280D02*
X7Y2280D01*
X1862Y2280D02*
X1869Y2280D01*
X0Y2279D02*
X7Y2279D01*
X1862Y2279D02*
X1869Y2279D01*
X0Y2278D02*
X7Y2278D01*
X1862Y2278D02*
X1869Y2278D01*
X0Y2277D02*
X7Y2277D01*
X1862Y2277D02*
X1869Y2277D01*
X0Y2276D02*
X7Y2276D01*
X1862Y2276D02*
X1869Y2276D01*
X0Y2275D02*
X7Y2275D01*
X1862Y2275D02*
X1869Y2275D01*
X0Y2274D02*
X7Y2274D01*
X1862Y2274D02*
X1869Y2274D01*
X0Y2273D02*
X7Y2273D01*
X1862Y2273D02*
X1869Y2273D01*
X0Y2272D02*
X7Y2272D01*
X1862Y2272D02*
X1869Y2272D01*
X0Y2271D02*
X7Y2271D01*
X1862Y2271D02*
X1869Y2271D01*
X0Y2270D02*
X7Y2270D01*
X1862Y2270D02*
X1869Y2270D01*
X0Y2269D02*
X7Y2269D01*
X1862Y2269D02*
X1869Y2269D01*
X0Y2268D02*
X7Y2268D01*
X1862Y2268D02*
X1869Y2268D01*
X0Y2267D02*
X7Y2267D01*
X1862Y2267D02*
X1869Y2267D01*
X0Y2266D02*
X7Y2266D01*
X1862Y2266D02*
X1869Y2266D01*
X0Y2265D02*
X7Y2265D01*
X1862Y2265D02*
X1869Y2265D01*
X0Y2264D02*
X7Y2264D01*
X1862Y2264D02*
X1869Y2264D01*
X0Y2263D02*
X7Y2263D01*
X1862Y2263D02*
X1869Y2263D01*
X0Y2262D02*
X7Y2262D01*
X1862Y2262D02*
X1869Y2262D01*
X0Y2261D02*
X7Y2261D01*
X1862Y2261D02*
X1869Y2261D01*
X0Y2260D02*
X7Y2260D01*
X1862Y2260D02*
X1869Y2260D01*
X0Y2259D02*
X7Y2259D01*
X1862Y2259D02*
X1869Y2259D01*
X0Y2258D02*
X7Y2258D01*
X1862Y2258D02*
X1869Y2258D01*
X0Y2257D02*
X7Y2257D01*
X1862Y2257D02*
X1869Y2257D01*
X0Y2256D02*
X7Y2256D01*
X1862Y2256D02*
X1869Y2256D01*
X0Y2255D02*
X7Y2255D01*
X1862Y2255D02*
X1869Y2255D01*
X0Y2254D02*
X7Y2254D01*
X1862Y2254D02*
X1869Y2254D01*
X0Y2253D02*
X7Y2253D01*
X1862Y2253D02*
X1869Y2253D01*
X0Y2252D02*
X7Y2252D01*
X1862Y2252D02*
X1869Y2252D01*
X0Y2251D02*
X7Y2251D01*
X1862Y2251D02*
X1869Y2251D01*
X0Y2250D02*
X7Y2250D01*
X1862Y2250D02*
X1869Y2250D01*
X0Y2249D02*
X7Y2249D01*
X1862Y2249D02*
X1869Y2249D01*
X0Y2248D02*
X7Y2248D01*
X1862Y2248D02*
X1869Y2248D01*
X0Y2247D02*
X7Y2247D01*
X1862Y2247D02*
X1869Y2247D01*
X0Y2246D02*
X7Y2246D01*
X1862Y2246D02*
X1869Y2246D01*
X0Y2245D02*
X7Y2245D01*
X1862Y2245D02*
X1869Y2245D01*
X0Y2244D02*
X7Y2244D01*
X1862Y2244D02*
X1869Y2244D01*
X0Y2243D02*
X7Y2243D01*
X1862Y2243D02*
X1869Y2243D01*
X0Y2242D02*
X7Y2242D01*
X1862Y2242D02*
X1869Y2242D01*
X0Y2241D02*
X7Y2241D01*
X1862Y2241D02*
X1869Y2241D01*
X0Y2240D02*
X7Y2240D01*
X1862Y2240D02*
X1869Y2240D01*
X0Y2239D02*
X7Y2239D01*
X1862Y2239D02*
X1869Y2239D01*
X0Y2238D02*
X7Y2238D01*
X1862Y2238D02*
X1869Y2238D01*
X0Y2237D02*
X7Y2237D01*
X1862Y2237D02*
X1869Y2237D01*
X0Y2236D02*
X7Y2236D01*
X1862Y2236D02*
X1869Y2236D01*
X0Y2235D02*
X7Y2235D01*
X1862Y2235D02*
X1869Y2235D01*
X0Y2234D02*
X7Y2234D01*
X1862Y2234D02*
X1869Y2234D01*
X0Y2233D02*
X7Y2233D01*
X1862Y2233D02*
X1869Y2233D01*
X0Y2232D02*
X7Y2232D01*
X1862Y2232D02*
X1869Y2232D01*
X0Y2231D02*
X7Y2231D01*
X1862Y2231D02*
X1869Y2231D01*
X0Y2230D02*
X7Y2230D01*
X1862Y2230D02*
X1869Y2230D01*
X0Y2229D02*
X7Y2229D01*
X1862Y2229D02*
X1869Y2229D01*
X0Y2228D02*
X7Y2228D01*
X1862Y2228D02*
X1869Y2228D01*
X0Y2227D02*
X7Y2227D01*
X1862Y2227D02*
X1869Y2227D01*
X0Y2226D02*
X7Y2226D01*
X1862Y2226D02*
X1869Y2226D01*
X0Y2225D02*
X7Y2225D01*
X1862Y2225D02*
X1869Y2225D01*
X0Y2224D02*
X7Y2224D01*
X1862Y2224D02*
X1869Y2224D01*
X0Y2223D02*
X7Y2223D01*
X1862Y2223D02*
X1869Y2223D01*
X0Y2222D02*
X7Y2222D01*
X1862Y2222D02*
X1869Y2222D01*
X0Y2221D02*
X7Y2221D01*
X1862Y2221D02*
X1869Y2221D01*
X0Y2220D02*
X7Y2220D01*
X1862Y2220D02*
X1869Y2220D01*
X0Y2219D02*
X7Y2219D01*
X1862Y2219D02*
X1869Y2219D01*
X0Y2218D02*
X7Y2218D01*
X1862Y2218D02*
X1869Y2218D01*
X0Y2217D02*
X7Y2217D01*
X1862Y2217D02*
X1869Y2217D01*
X0Y2216D02*
X7Y2216D01*
X1862Y2216D02*
X1869Y2216D01*
X0Y2215D02*
X7Y2215D01*
X1862Y2215D02*
X1869Y2215D01*
X0Y2214D02*
X7Y2214D01*
X1862Y2214D02*
X1869Y2214D01*
X0Y2213D02*
X7Y2213D01*
X1862Y2213D02*
X1869Y2213D01*
X0Y2212D02*
X7Y2212D01*
X1862Y2212D02*
X1869Y2212D01*
X0Y2211D02*
X7Y2211D01*
X1862Y2211D02*
X1869Y2211D01*
X0Y2210D02*
X7Y2210D01*
X1862Y2210D02*
X1869Y2210D01*
X0Y2209D02*
X7Y2209D01*
X1862Y2209D02*
X1869Y2209D01*
X0Y2208D02*
X7Y2208D01*
X1862Y2208D02*
X1869Y2208D01*
X0Y2207D02*
X7Y2207D01*
X1862Y2207D02*
X1869Y2207D01*
X0Y2206D02*
X7Y2206D01*
X1862Y2206D02*
X1869Y2206D01*
X0Y2205D02*
X7Y2205D01*
X1862Y2205D02*
X1869Y2205D01*
X0Y2204D02*
X7Y2204D01*
X1862Y2204D02*
X1869Y2204D01*
X0Y2203D02*
X7Y2203D01*
X1862Y2203D02*
X1869Y2203D01*
X0Y2202D02*
X7Y2202D01*
X1862Y2202D02*
X1869Y2202D01*
X0Y2201D02*
X7Y2201D01*
X1862Y2201D02*
X1869Y2201D01*
X0Y2200D02*
X7Y2200D01*
X1862Y2200D02*
X1869Y2200D01*
X0Y2199D02*
X7Y2199D01*
X1862Y2199D02*
X1869Y2199D01*
X0Y2198D02*
X7Y2198D01*
X1862Y2198D02*
X1869Y2198D01*
X0Y2197D02*
X7Y2197D01*
X1862Y2197D02*
X1869Y2197D01*
X0Y2196D02*
X7Y2196D01*
X1862Y2196D02*
X1869Y2196D01*
X0Y2195D02*
X7Y2195D01*
X1862Y2195D02*
X1869Y2195D01*
X0Y2194D02*
X7Y2194D01*
X1862Y2194D02*
X1869Y2194D01*
X0Y2193D02*
X7Y2193D01*
X1862Y2193D02*
X1869Y2193D01*
X0Y2192D02*
X7Y2192D01*
X1862Y2192D02*
X1869Y2192D01*
X0Y2191D02*
X7Y2191D01*
X1862Y2191D02*
X1869Y2191D01*
X0Y2190D02*
X7Y2190D01*
X1862Y2190D02*
X1869Y2190D01*
X0Y2189D02*
X7Y2189D01*
X1862Y2189D02*
X1869Y2189D01*
X0Y2188D02*
X7Y2188D01*
X1862Y2188D02*
X1869Y2188D01*
X0Y2187D02*
X7Y2187D01*
X1862Y2187D02*
X1869Y2187D01*
X0Y2186D02*
X7Y2186D01*
X1862Y2186D02*
X1869Y2186D01*
X0Y2185D02*
X7Y2185D01*
X1862Y2185D02*
X1869Y2185D01*
X0Y2184D02*
X7Y2184D01*
X1862Y2184D02*
X1869Y2184D01*
X0Y2183D02*
X7Y2183D01*
X1862Y2183D02*
X1869Y2183D01*
X0Y2182D02*
X7Y2182D01*
X1862Y2182D02*
X1869Y2182D01*
X0Y2181D02*
X7Y2181D01*
X1862Y2181D02*
X1869Y2181D01*
X0Y2180D02*
X7Y2180D01*
X1862Y2180D02*
X1869Y2180D01*
X0Y2179D02*
X7Y2179D01*
X1862Y2179D02*
X1869Y2179D01*
X0Y2178D02*
X7Y2178D01*
X1862Y2178D02*
X1869Y2178D01*
X0Y2177D02*
X7Y2177D01*
X1862Y2177D02*
X1869Y2177D01*
X0Y2176D02*
X7Y2176D01*
X1862Y2176D02*
X1869Y2176D01*
X0Y2175D02*
X7Y2175D01*
X1862Y2175D02*
X1869Y2175D01*
X0Y2174D02*
X7Y2174D01*
X1862Y2174D02*
X1869Y2174D01*
X0Y2173D02*
X7Y2173D01*
X1862Y2173D02*
X1869Y2173D01*
X0Y2172D02*
X7Y2172D01*
X1862Y2172D02*
X1869Y2172D01*
X0Y2171D02*
X7Y2171D01*
X1862Y2171D02*
X1869Y2171D01*
X0Y2170D02*
X7Y2170D01*
X1862Y2170D02*
X1869Y2170D01*
X0Y2169D02*
X7Y2169D01*
X1862Y2169D02*
X1869Y2169D01*
X0Y2168D02*
X7Y2168D01*
X1862Y2168D02*
X1869Y2168D01*
X0Y2167D02*
X7Y2167D01*
X1862Y2167D02*
X1869Y2167D01*
X0Y2166D02*
X7Y2166D01*
X1862Y2166D02*
X1869Y2166D01*
X0Y2165D02*
X7Y2165D01*
X1862Y2165D02*
X1869Y2165D01*
X0Y2164D02*
X7Y2164D01*
X1862Y2164D02*
X1869Y2164D01*
X0Y2163D02*
X7Y2163D01*
X1862Y2163D02*
X1869Y2163D01*
X0Y2162D02*
X7Y2162D01*
X1862Y2162D02*
X1869Y2162D01*
X0Y2161D02*
X7Y2161D01*
X1862Y2161D02*
X1869Y2161D01*
X0Y2160D02*
X7Y2160D01*
X1862Y2160D02*
X1869Y2160D01*
X0Y2159D02*
X7Y2159D01*
X1862Y2159D02*
X1869Y2159D01*
X0Y2158D02*
X7Y2158D01*
X1862Y2158D02*
X1869Y2158D01*
X0Y2157D02*
X7Y2157D01*
X1862Y2157D02*
X1869Y2157D01*
X0Y2156D02*
X7Y2156D01*
X1862Y2156D02*
X1869Y2156D01*
X0Y2155D02*
X7Y2155D01*
X1862Y2155D02*
X1869Y2155D01*
X0Y2154D02*
X7Y2154D01*
X1862Y2154D02*
X1869Y2154D01*
X0Y2153D02*
X7Y2153D01*
X1862Y2153D02*
X1869Y2153D01*
X0Y2152D02*
X7Y2152D01*
X1862Y2152D02*
X1869Y2152D01*
X0Y2151D02*
X7Y2151D01*
X1862Y2151D02*
X1869Y2151D01*
X0Y2150D02*
X7Y2150D01*
X1862Y2150D02*
X1869Y2150D01*
X0Y2149D02*
X7Y2149D01*
X1862Y2149D02*
X1869Y2149D01*
X0Y2148D02*
X7Y2148D01*
X1862Y2148D02*
X1869Y2148D01*
X0Y2147D02*
X7Y2147D01*
X1862Y2147D02*
X1869Y2147D01*
X0Y2146D02*
X7Y2146D01*
X1862Y2146D02*
X1869Y2146D01*
X0Y2145D02*
X7Y2145D01*
X1862Y2145D02*
X1869Y2145D01*
X0Y2144D02*
X7Y2144D01*
X1862Y2144D02*
X1869Y2144D01*
X0Y2143D02*
X7Y2143D01*
X1862Y2143D02*
X1869Y2143D01*
X0Y2142D02*
X7Y2142D01*
X1862Y2142D02*
X1869Y2142D01*
X0Y2141D02*
X7Y2141D01*
X1862Y2141D02*
X1869Y2141D01*
X0Y2140D02*
X7Y2140D01*
X1862Y2140D02*
X1869Y2140D01*
X0Y2139D02*
X7Y2139D01*
X1862Y2139D02*
X1869Y2139D01*
X0Y2138D02*
X7Y2138D01*
X1862Y2138D02*
X1869Y2138D01*
X0Y2137D02*
X7Y2137D01*
X1862Y2137D02*
X1869Y2137D01*
X0Y2136D02*
X7Y2136D01*
X1862Y2136D02*
X1869Y2136D01*
X0Y2135D02*
X7Y2135D01*
X1862Y2135D02*
X1869Y2135D01*
X0Y2134D02*
X7Y2134D01*
X1862Y2134D02*
X1869Y2134D01*
X0Y2133D02*
X7Y2133D01*
X1862Y2133D02*
X1869Y2133D01*
X0Y2132D02*
X7Y2132D01*
X1862Y2132D02*
X1869Y2132D01*
X0Y2131D02*
X7Y2131D01*
X1862Y2131D02*
X1869Y2131D01*
X0Y2130D02*
X7Y2130D01*
X1862Y2130D02*
X1869Y2130D01*
X0Y2129D02*
X7Y2129D01*
X1862Y2129D02*
X1869Y2129D01*
X0Y2128D02*
X7Y2128D01*
X1862Y2128D02*
X1869Y2128D01*
X0Y2127D02*
X7Y2127D01*
X1862Y2127D02*
X1869Y2127D01*
X0Y2126D02*
X7Y2126D01*
X1862Y2126D02*
X1869Y2126D01*
X0Y2125D02*
X7Y2125D01*
X1862Y2125D02*
X1869Y2125D01*
X0Y2124D02*
X7Y2124D01*
X1862Y2124D02*
X1869Y2124D01*
X0Y2123D02*
X7Y2123D01*
X1862Y2123D02*
X1869Y2123D01*
X0Y2122D02*
X7Y2122D01*
X1862Y2122D02*
X1869Y2122D01*
X0Y2121D02*
X7Y2121D01*
X1862Y2121D02*
X1869Y2121D01*
X0Y2120D02*
X7Y2120D01*
X1862Y2120D02*
X1869Y2120D01*
X0Y2119D02*
X7Y2119D01*
X1862Y2119D02*
X1869Y2119D01*
X0Y2118D02*
X7Y2118D01*
X1862Y2118D02*
X1869Y2118D01*
X0Y2117D02*
X7Y2117D01*
X1862Y2117D02*
X1869Y2117D01*
X0Y2116D02*
X7Y2116D01*
X1862Y2116D02*
X1869Y2116D01*
X0Y2115D02*
X7Y2115D01*
X1862Y2115D02*
X1869Y2115D01*
X0Y2114D02*
X7Y2114D01*
X1862Y2114D02*
X1869Y2114D01*
X0Y2113D02*
X7Y2113D01*
X1862Y2113D02*
X1869Y2113D01*
X0Y2112D02*
X7Y2112D01*
X1862Y2112D02*
X1869Y2112D01*
X0Y2111D02*
X7Y2111D01*
X1862Y2111D02*
X1869Y2111D01*
X0Y2110D02*
X7Y2110D01*
X1862Y2110D02*
X1869Y2110D01*
X0Y2109D02*
X7Y2109D01*
X1862Y2109D02*
X1869Y2109D01*
X0Y2108D02*
X7Y2108D01*
X1862Y2108D02*
X1869Y2108D01*
X0Y2107D02*
X7Y2107D01*
X1862Y2107D02*
X1869Y2107D01*
X0Y2106D02*
X7Y2106D01*
X1862Y2106D02*
X1869Y2106D01*
X0Y2105D02*
X7Y2105D01*
X1862Y2105D02*
X1869Y2105D01*
X0Y2104D02*
X7Y2104D01*
X1862Y2104D02*
X1869Y2104D01*
X0Y2103D02*
X7Y2103D01*
X1862Y2103D02*
X1869Y2103D01*
X0Y2102D02*
X7Y2102D01*
X1862Y2102D02*
X1869Y2102D01*
X0Y2101D02*
X7Y2101D01*
X1862Y2101D02*
X1869Y2101D01*
X0Y2100D02*
X7Y2100D01*
X1862Y2100D02*
X1869Y2100D01*
X0Y2099D02*
X7Y2099D01*
X1862Y2099D02*
X1869Y2099D01*
X0Y2098D02*
X7Y2098D01*
X1862Y2098D02*
X1869Y2098D01*
X0Y2097D02*
X7Y2097D01*
X1862Y2097D02*
X1869Y2097D01*
X0Y2096D02*
X7Y2096D01*
X1862Y2096D02*
X1869Y2096D01*
X0Y2095D02*
X7Y2095D01*
X1862Y2095D02*
X1869Y2095D01*
X0Y2094D02*
X7Y2094D01*
X1862Y2094D02*
X1869Y2094D01*
X0Y2093D02*
X7Y2093D01*
X1862Y2093D02*
X1869Y2093D01*
X0Y2092D02*
X7Y2092D01*
X1862Y2092D02*
X1869Y2092D01*
X0Y2091D02*
X7Y2091D01*
X1862Y2091D02*
X1869Y2091D01*
X0Y2090D02*
X7Y2090D01*
X1862Y2090D02*
X1869Y2090D01*
X0Y2089D02*
X7Y2089D01*
X1862Y2089D02*
X1869Y2089D01*
X0Y2088D02*
X7Y2088D01*
X1862Y2088D02*
X1869Y2088D01*
X0Y2087D02*
X7Y2087D01*
X1862Y2087D02*
X1869Y2087D01*
X0Y2086D02*
X7Y2086D01*
X1862Y2086D02*
X1869Y2086D01*
X0Y2085D02*
X7Y2085D01*
X1862Y2085D02*
X1869Y2085D01*
X0Y2084D02*
X7Y2084D01*
X1862Y2084D02*
X1869Y2084D01*
X0Y2083D02*
X7Y2083D01*
X1862Y2083D02*
X1869Y2083D01*
X0Y2082D02*
X7Y2082D01*
X1862Y2082D02*
X1869Y2082D01*
X0Y2081D02*
X7Y2081D01*
X1862Y2081D02*
X1869Y2081D01*
X0Y2080D02*
X7Y2080D01*
X1862Y2080D02*
X1869Y2080D01*
X0Y2079D02*
X7Y2079D01*
X1862Y2079D02*
X1869Y2079D01*
X0Y2078D02*
X7Y2078D01*
X1862Y2078D02*
X1869Y2078D01*
X0Y2077D02*
X7Y2077D01*
X1862Y2077D02*
X1869Y2077D01*
X0Y2076D02*
X7Y2076D01*
X1862Y2076D02*
X1869Y2076D01*
X0Y2075D02*
X7Y2075D01*
X1862Y2075D02*
X1869Y2075D01*
X0Y2074D02*
X7Y2074D01*
X1862Y2074D02*
X1869Y2074D01*
X0Y2073D02*
X7Y2073D01*
X1862Y2073D02*
X1869Y2073D01*
X0Y2072D02*
X7Y2072D01*
X1862Y2072D02*
X1869Y2072D01*
X0Y2071D02*
X7Y2071D01*
X1862Y2071D02*
X1869Y2071D01*
X0Y2070D02*
X7Y2070D01*
X1862Y2070D02*
X1869Y2070D01*
X0Y2069D02*
X7Y2069D01*
X1862Y2069D02*
X1869Y2069D01*
X0Y2068D02*
X7Y2068D01*
X1862Y2068D02*
X1869Y2068D01*
X0Y2067D02*
X7Y2067D01*
X1862Y2067D02*
X1869Y2067D01*
X0Y2066D02*
X7Y2066D01*
X1862Y2066D02*
X1869Y2066D01*
X0Y2065D02*
X7Y2065D01*
X1862Y2065D02*
X1869Y2065D01*
X0Y2064D02*
X7Y2064D01*
X1862Y2064D02*
X1869Y2064D01*
X0Y2063D02*
X7Y2063D01*
X1862Y2063D02*
X1869Y2063D01*
X0Y2062D02*
X7Y2062D01*
X1862Y2062D02*
X1869Y2062D01*
X0Y2061D02*
X7Y2061D01*
X1862Y2061D02*
X1869Y2061D01*
X0Y2060D02*
X7Y2060D01*
X1862Y2060D02*
X1869Y2060D01*
X0Y2059D02*
X7Y2059D01*
X1862Y2059D02*
X1869Y2059D01*
X0Y2058D02*
X7Y2058D01*
X1862Y2058D02*
X1869Y2058D01*
X0Y2057D02*
X7Y2057D01*
X1862Y2057D02*
X1869Y2057D01*
X0Y2056D02*
X7Y2056D01*
X1862Y2056D02*
X1869Y2056D01*
X0Y2055D02*
X7Y2055D01*
X1862Y2055D02*
X1869Y2055D01*
X0Y2054D02*
X7Y2054D01*
X1862Y2054D02*
X1869Y2054D01*
X0Y2053D02*
X7Y2053D01*
X1862Y2053D02*
X1869Y2053D01*
X0Y2052D02*
X7Y2052D01*
X1862Y2052D02*
X1869Y2052D01*
X0Y2051D02*
X7Y2051D01*
X1862Y2051D02*
X1869Y2051D01*
X0Y2050D02*
X7Y2050D01*
X1862Y2050D02*
X1869Y2050D01*
X0Y2049D02*
X7Y2049D01*
X1862Y2049D02*
X1869Y2049D01*
X0Y2048D02*
X7Y2048D01*
X1862Y2048D02*
X1869Y2048D01*
X0Y2047D02*
X7Y2047D01*
X1862Y2047D02*
X1869Y2047D01*
X0Y2046D02*
X7Y2046D01*
X1862Y2046D02*
X1869Y2046D01*
X0Y2045D02*
X7Y2045D01*
X1862Y2045D02*
X1869Y2045D01*
X0Y2044D02*
X7Y2044D01*
X1862Y2044D02*
X1869Y2044D01*
X0Y2043D02*
X7Y2043D01*
X1862Y2043D02*
X1869Y2043D01*
X0Y2042D02*
X7Y2042D01*
X1862Y2042D02*
X1869Y2042D01*
X0Y2041D02*
X7Y2041D01*
X1862Y2041D02*
X1869Y2041D01*
X0Y2040D02*
X7Y2040D01*
X1862Y2040D02*
X1869Y2040D01*
X0Y2039D02*
X7Y2039D01*
X1862Y2039D02*
X1869Y2039D01*
X0Y2038D02*
X7Y2038D01*
X1862Y2038D02*
X1869Y2038D01*
X0Y2037D02*
X7Y2037D01*
X1862Y2037D02*
X1869Y2037D01*
X0Y2036D02*
X7Y2036D01*
X1862Y2036D02*
X1869Y2036D01*
X0Y2035D02*
X7Y2035D01*
X1862Y2035D02*
X1869Y2035D01*
X0Y2034D02*
X7Y2034D01*
X1862Y2034D02*
X1869Y2034D01*
X0Y2033D02*
X7Y2033D01*
X1862Y2033D02*
X1869Y2033D01*
X0Y2032D02*
X7Y2032D01*
X1862Y2032D02*
X1869Y2032D01*
X0Y2031D02*
X7Y2031D01*
X1862Y2031D02*
X1869Y2031D01*
X0Y2030D02*
X7Y2030D01*
X1862Y2030D02*
X1869Y2030D01*
X0Y2029D02*
X7Y2029D01*
X1862Y2029D02*
X1869Y2029D01*
X0Y2028D02*
X7Y2028D01*
X1862Y2028D02*
X1869Y2028D01*
X0Y2027D02*
X7Y2027D01*
X1862Y2027D02*
X1869Y2027D01*
X0Y2026D02*
X7Y2026D01*
X1862Y2026D02*
X1869Y2026D01*
X0Y2025D02*
X7Y2025D01*
X1862Y2025D02*
X1869Y2025D01*
X0Y2024D02*
X7Y2024D01*
X1862Y2024D02*
X1869Y2024D01*
X0Y2023D02*
X7Y2023D01*
X1862Y2023D02*
X1869Y2023D01*
X0Y2022D02*
X7Y2022D01*
X1862Y2022D02*
X1869Y2022D01*
X0Y2021D02*
X7Y2021D01*
X1862Y2021D02*
X1869Y2021D01*
X0Y2020D02*
X7Y2020D01*
X1862Y2020D02*
X1869Y2020D01*
X0Y2019D02*
X7Y2019D01*
X1862Y2019D02*
X1869Y2019D01*
X0Y2018D02*
X7Y2018D01*
X1862Y2018D02*
X1869Y2018D01*
X0Y2017D02*
X7Y2017D01*
X1862Y2017D02*
X1869Y2017D01*
X0Y2016D02*
X7Y2016D01*
X1862Y2016D02*
X1869Y2016D01*
X0Y2015D02*
X7Y2015D01*
X1862Y2015D02*
X1869Y2015D01*
X0Y2014D02*
X7Y2014D01*
X1862Y2014D02*
X1869Y2014D01*
X0Y2013D02*
X7Y2013D01*
X1862Y2013D02*
X1869Y2013D01*
X0Y2012D02*
X7Y2012D01*
X1862Y2012D02*
X1869Y2012D01*
X0Y2011D02*
X7Y2011D01*
X1862Y2011D02*
X1869Y2011D01*
X0Y2010D02*
X7Y2010D01*
X1862Y2010D02*
X1869Y2010D01*
X0Y2009D02*
X7Y2009D01*
X1862Y2009D02*
X1869Y2009D01*
X0Y2008D02*
X7Y2008D01*
X1862Y2008D02*
X1869Y2008D01*
X0Y2007D02*
X7Y2007D01*
X1862Y2007D02*
X1869Y2007D01*
X0Y2006D02*
X7Y2006D01*
X1862Y2006D02*
X1869Y2006D01*
X0Y2005D02*
X7Y2005D01*
X1862Y2005D02*
X1869Y2005D01*
X0Y2004D02*
X7Y2004D01*
X1862Y2004D02*
X1869Y2004D01*
X0Y2003D02*
X7Y2003D01*
X1862Y2003D02*
X1869Y2003D01*
X0Y2002D02*
X7Y2002D01*
X1862Y2002D02*
X1869Y2002D01*
X0Y2001D02*
X7Y2001D01*
X1862Y2001D02*
X1869Y2001D01*
X0Y2000D02*
X7Y2000D01*
X1862Y2000D02*
X1869Y2000D01*
X0Y1999D02*
X7Y1999D01*
X1862Y1999D02*
X1869Y1999D01*
X0Y1998D02*
X7Y1998D01*
X1862Y1998D02*
X1869Y1998D01*
X0Y1997D02*
X7Y1997D01*
X1862Y1997D02*
X1869Y1997D01*
X0Y1996D02*
X7Y1996D01*
X1862Y1996D02*
X1869Y1996D01*
X0Y1995D02*
X7Y1995D01*
X1862Y1995D02*
X1869Y1995D01*
X0Y1994D02*
X7Y1994D01*
X1862Y1994D02*
X1869Y1994D01*
X0Y1993D02*
X7Y1993D01*
X1862Y1993D02*
X1869Y1993D01*
X0Y1992D02*
X7Y1992D01*
X1862Y1992D02*
X1869Y1992D01*
X0Y1991D02*
X7Y1991D01*
X1862Y1991D02*
X1869Y1991D01*
X0Y1990D02*
X7Y1990D01*
X1862Y1990D02*
X1869Y1990D01*
X0Y1989D02*
X7Y1989D01*
X1862Y1989D02*
X1869Y1989D01*
X0Y1988D02*
X7Y1988D01*
X1862Y1988D02*
X1869Y1988D01*
X0Y1987D02*
X7Y1987D01*
X1862Y1987D02*
X1869Y1987D01*
X0Y1986D02*
X7Y1986D01*
X1862Y1986D02*
X1869Y1986D01*
X0Y1985D02*
X7Y1985D01*
X1862Y1985D02*
X1869Y1985D01*
X0Y1984D02*
X7Y1984D01*
X1862Y1984D02*
X1869Y1984D01*
X0Y1983D02*
X7Y1983D01*
X1862Y1983D02*
X1869Y1983D01*
X0Y1982D02*
X7Y1982D01*
X1862Y1982D02*
X1869Y1982D01*
X0Y1981D02*
X7Y1981D01*
X1862Y1981D02*
X1869Y1981D01*
X0Y1980D02*
X7Y1980D01*
X1862Y1980D02*
X1869Y1980D01*
X0Y1979D02*
X7Y1979D01*
X1862Y1979D02*
X1869Y1979D01*
X0Y1978D02*
X7Y1978D01*
X1862Y1978D02*
X1869Y1978D01*
X0Y1977D02*
X7Y1977D01*
X1862Y1977D02*
X1869Y1977D01*
X0Y1976D02*
X7Y1976D01*
X1862Y1976D02*
X1869Y1976D01*
X0Y1975D02*
X7Y1975D01*
X1862Y1975D02*
X1869Y1975D01*
X0Y1974D02*
X7Y1974D01*
X1862Y1974D02*
X1869Y1974D01*
X0Y1973D02*
X7Y1973D01*
X1862Y1973D02*
X1869Y1973D01*
X0Y1972D02*
X7Y1972D01*
X1862Y1972D02*
X1869Y1972D01*
X0Y1971D02*
X7Y1971D01*
X1862Y1971D02*
X1869Y1971D01*
X0Y1970D02*
X7Y1970D01*
X1862Y1970D02*
X1869Y1970D01*
X0Y1969D02*
X7Y1969D01*
X1862Y1969D02*
X1869Y1969D01*
X0Y1968D02*
X7Y1968D01*
X1862Y1968D02*
X1869Y1968D01*
X0Y1967D02*
X7Y1967D01*
X1862Y1967D02*
X1869Y1967D01*
X0Y1966D02*
X7Y1966D01*
X1862Y1966D02*
X1869Y1966D01*
X0Y1965D02*
X7Y1965D01*
X1862Y1965D02*
X1869Y1965D01*
X0Y1964D02*
X7Y1964D01*
X1862Y1964D02*
X1869Y1964D01*
X0Y1963D02*
X7Y1963D01*
X1862Y1963D02*
X1869Y1963D01*
X0Y1962D02*
X7Y1962D01*
X1862Y1962D02*
X1869Y1962D01*
X0Y1961D02*
X7Y1961D01*
X1862Y1961D02*
X1869Y1961D01*
X0Y1960D02*
X7Y1960D01*
X1862Y1960D02*
X1869Y1960D01*
X0Y1959D02*
X7Y1959D01*
X1862Y1959D02*
X1869Y1959D01*
X0Y1958D02*
X7Y1958D01*
X1862Y1958D02*
X1869Y1958D01*
X0Y1957D02*
X7Y1957D01*
X1862Y1957D02*
X1869Y1957D01*
X0Y1956D02*
X7Y1956D01*
X1862Y1956D02*
X1869Y1956D01*
X0Y1955D02*
X7Y1955D01*
X1862Y1955D02*
X1869Y1955D01*
X0Y1954D02*
X7Y1954D01*
X1862Y1954D02*
X1869Y1954D01*
X0Y1953D02*
X7Y1953D01*
X1862Y1953D02*
X1869Y1953D01*
X0Y1952D02*
X7Y1952D01*
X1862Y1952D02*
X1869Y1952D01*
X0Y1951D02*
X7Y1951D01*
X1862Y1951D02*
X1869Y1951D01*
X0Y1950D02*
X7Y1950D01*
X1862Y1950D02*
X1869Y1950D01*
X0Y1949D02*
X7Y1949D01*
X1862Y1949D02*
X1869Y1949D01*
X0Y1948D02*
X7Y1948D01*
X1862Y1948D02*
X1869Y1948D01*
X0Y1947D02*
X7Y1947D01*
X1862Y1947D02*
X1869Y1947D01*
X0Y1946D02*
X7Y1946D01*
X1862Y1946D02*
X1869Y1946D01*
X0Y1945D02*
X7Y1945D01*
X1862Y1945D02*
X1869Y1945D01*
X0Y1944D02*
X7Y1944D01*
X1862Y1944D02*
X1869Y1944D01*
X0Y1943D02*
X7Y1943D01*
X1862Y1943D02*
X1869Y1943D01*
X0Y1942D02*
X7Y1942D01*
X1862Y1942D02*
X1869Y1942D01*
X0Y1941D02*
X7Y1941D01*
X1862Y1941D02*
X1869Y1941D01*
X0Y1940D02*
X7Y1940D01*
X1862Y1940D02*
X1869Y1940D01*
X0Y1939D02*
X7Y1939D01*
X1862Y1939D02*
X1869Y1939D01*
X0Y1938D02*
X7Y1938D01*
X1862Y1938D02*
X1869Y1938D01*
X0Y1937D02*
X7Y1937D01*
X1862Y1937D02*
X1869Y1937D01*
X0Y1936D02*
X7Y1936D01*
X1862Y1936D02*
X1869Y1936D01*
X0Y1935D02*
X7Y1935D01*
X1862Y1935D02*
X1869Y1935D01*
X0Y1934D02*
X7Y1934D01*
X1862Y1934D02*
X1869Y1934D01*
X0Y1933D02*
X7Y1933D01*
X1862Y1933D02*
X1869Y1933D01*
X0Y1932D02*
X7Y1932D01*
X1862Y1932D02*
X1869Y1932D01*
X0Y1931D02*
X7Y1931D01*
X1862Y1931D02*
X1869Y1931D01*
X0Y1930D02*
X7Y1930D01*
X1862Y1930D02*
X1869Y1930D01*
X0Y1929D02*
X7Y1929D01*
X1862Y1929D02*
X1869Y1929D01*
X0Y1928D02*
X7Y1928D01*
X1862Y1928D02*
X1869Y1928D01*
X0Y1927D02*
X7Y1927D01*
X1862Y1927D02*
X1869Y1927D01*
X0Y1926D02*
X7Y1926D01*
X1862Y1926D02*
X1869Y1926D01*
X0Y1925D02*
X7Y1925D01*
X1862Y1925D02*
X1869Y1925D01*
X0Y1924D02*
X7Y1924D01*
X1862Y1924D02*
X1869Y1924D01*
X0Y1923D02*
X7Y1923D01*
X1862Y1923D02*
X1869Y1923D01*
X0Y1922D02*
X7Y1922D01*
X1862Y1922D02*
X1869Y1922D01*
X0Y1921D02*
X7Y1921D01*
X1862Y1921D02*
X1869Y1921D01*
X0Y1920D02*
X7Y1920D01*
X1862Y1920D02*
X1869Y1920D01*
X0Y1919D02*
X7Y1919D01*
X1862Y1919D02*
X1869Y1919D01*
X0Y1918D02*
X7Y1918D01*
X1862Y1918D02*
X1869Y1918D01*
X0Y1917D02*
X7Y1917D01*
X1862Y1917D02*
X1869Y1917D01*
X0Y1916D02*
X7Y1916D01*
X1862Y1916D02*
X1869Y1916D01*
X0Y1915D02*
X7Y1915D01*
X1862Y1915D02*
X1869Y1915D01*
X0Y1914D02*
X7Y1914D01*
X1862Y1914D02*
X1869Y1914D01*
X0Y1913D02*
X7Y1913D01*
X1862Y1913D02*
X1869Y1913D01*
X0Y1912D02*
X7Y1912D01*
X1862Y1912D02*
X1869Y1912D01*
X0Y1911D02*
X7Y1911D01*
X1862Y1911D02*
X1869Y1911D01*
X0Y1910D02*
X7Y1910D01*
X1862Y1910D02*
X1869Y1910D01*
X0Y1909D02*
X7Y1909D01*
X1862Y1909D02*
X1869Y1909D01*
X0Y1908D02*
X7Y1908D01*
X1862Y1908D02*
X1869Y1908D01*
X0Y1907D02*
X7Y1907D01*
X1862Y1907D02*
X1869Y1907D01*
X0Y1906D02*
X7Y1906D01*
X1862Y1906D02*
X1869Y1906D01*
X0Y1905D02*
X7Y1905D01*
X1862Y1905D02*
X1869Y1905D01*
X0Y1904D02*
X7Y1904D01*
X1862Y1904D02*
X1869Y1904D01*
X0Y1903D02*
X7Y1903D01*
X1862Y1903D02*
X1869Y1903D01*
X0Y1902D02*
X7Y1902D01*
X1862Y1902D02*
X1869Y1902D01*
X0Y1901D02*
X7Y1901D01*
X1862Y1901D02*
X1869Y1901D01*
X0Y1900D02*
X7Y1900D01*
X1862Y1900D02*
X1869Y1900D01*
X0Y1899D02*
X7Y1899D01*
X1862Y1899D02*
X1869Y1899D01*
X0Y1898D02*
X7Y1898D01*
X1862Y1898D02*
X1869Y1898D01*
X0Y1897D02*
X7Y1897D01*
X1862Y1897D02*
X1869Y1897D01*
X0Y1896D02*
X7Y1896D01*
X1862Y1896D02*
X1869Y1896D01*
X0Y1895D02*
X7Y1895D01*
X1862Y1895D02*
X1869Y1895D01*
X0Y1894D02*
X7Y1894D01*
X1862Y1894D02*
X1869Y1894D01*
X0Y1893D02*
X7Y1893D01*
X1862Y1893D02*
X1869Y1893D01*
X0Y1892D02*
X7Y1892D01*
X1862Y1892D02*
X1869Y1892D01*
X0Y1891D02*
X7Y1891D01*
X1862Y1891D02*
X1869Y1891D01*
X0Y1890D02*
X7Y1890D01*
X1862Y1890D02*
X1869Y1890D01*
X0Y1889D02*
X7Y1889D01*
X1862Y1889D02*
X1869Y1889D01*
X0Y1888D02*
X7Y1888D01*
X1862Y1888D02*
X1869Y1888D01*
X0Y1887D02*
X7Y1887D01*
X1862Y1887D02*
X1869Y1887D01*
X0Y1886D02*
X7Y1886D01*
X1862Y1886D02*
X1869Y1886D01*
X0Y1885D02*
X7Y1885D01*
X1862Y1885D02*
X1869Y1885D01*
X0Y1884D02*
X7Y1884D01*
X1862Y1884D02*
X1869Y1884D01*
X0Y1883D02*
X7Y1883D01*
X1862Y1883D02*
X1869Y1883D01*
X0Y1882D02*
X7Y1882D01*
X1862Y1882D02*
X1869Y1882D01*
X0Y1881D02*
X7Y1881D01*
X1862Y1881D02*
X1869Y1881D01*
X0Y1880D02*
X7Y1880D01*
X1862Y1880D02*
X1869Y1880D01*
X0Y1879D02*
X7Y1879D01*
X1862Y1879D02*
X1869Y1879D01*
X0Y1878D02*
X7Y1878D01*
X1862Y1878D02*
X1869Y1878D01*
X0Y1877D02*
X7Y1877D01*
X1862Y1877D02*
X1869Y1877D01*
X0Y1876D02*
X7Y1876D01*
X1862Y1876D02*
X1869Y1876D01*
X0Y1875D02*
X7Y1875D01*
X1862Y1875D02*
X1869Y1875D01*
X0Y1874D02*
X7Y1874D01*
X1862Y1874D02*
X1869Y1874D01*
X0Y1873D02*
X7Y1873D01*
X1862Y1873D02*
X1869Y1873D01*
X0Y1872D02*
X7Y1872D01*
X1862Y1872D02*
X1869Y1872D01*
X0Y1871D02*
X7Y1871D01*
X1862Y1871D02*
X1869Y1871D01*
X0Y1870D02*
X7Y1870D01*
X1862Y1870D02*
X1869Y1870D01*
X0Y1869D02*
X7Y1869D01*
X1862Y1869D02*
X1869Y1869D01*
X0Y1868D02*
X7Y1868D01*
X1862Y1868D02*
X1869Y1868D01*
X0Y1867D02*
X7Y1867D01*
X1862Y1867D02*
X1869Y1867D01*
X0Y1866D02*
X7Y1866D01*
X1862Y1866D02*
X1869Y1866D01*
X0Y1865D02*
X7Y1865D01*
X1862Y1865D02*
X1869Y1865D01*
X0Y1864D02*
X7Y1864D01*
X1862Y1864D02*
X1869Y1864D01*
X0Y1863D02*
X7Y1863D01*
X1862Y1863D02*
X1869Y1863D01*
X0Y1862D02*
X7Y1862D01*
X1862Y1862D02*
X1869Y1862D01*
X0Y1861D02*
X7Y1861D01*
X1862Y1861D02*
X1869Y1861D01*
X0Y1860D02*
X7Y1860D01*
X1862Y1860D02*
X1869Y1860D01*
X0Y1859D02*
X7Y1859D01*
X1862Y1859D02*
X1869Y1859D01*
X0Y1858D02*
X7Y1858D01*
X1862Y1858D02*
X1869Y1858D01*
X0Y1857D02*
X7Y1857D01*
X1862Y1857D02*
X1869Y1857D01*
X0Y1856D02*
X7Y1856D01*
X1862Y1856D02*
X1869Y1856D01*
X0Y1855D02*
X7Y1855D01*
X1862Y1855D02*
X1869Y1855D01*
X0Y1854D02*
X7Y1854D01*
X1862Y1854D02*
X1869Y1854D01*
X0Y1853D02*
X7Y1853D01*
X1862Y1853D02*
X1869Y1853D01*
X0Y1852D02*
X7Y1852D01*
X1862Y1852D02*
X1869Y1852D01*
X0Y1851D02*
X7Y1851D01*
X1862Y1851D02*
X1869Y1851D01*
X0Y1850D02*
X7Y1850D01*
X1862Y1850D02*
X1869Y1850D01*
X0Y1849D02*
X7Y1849D01*
X1862Y1849D02*
X1869Y1849D01*
X0Y1848D02*
X7Y1848D01*
X1862Y1848D02*
X1869Y1848D01*
X0Y1847D02*
X7Y1847D01*
X1862Y1847D02*
X1869Y1847D01*
X0Y1846D02*
X7Y1846D01*
X1862Y1846D02*
X1869Y1846D01*
X0Y1845D02*
X7Y1845D01*
X1862Y1845D02*
X1869Y1845D01*
X0Y1844D02*
X7Y1844D01*
X1862Y1844D02*
X1869Y1844D01*
X0Y1843D02*
X7Y1843D01*
X1862Y1843D02*
X1869Y1843D01*
X0Y1842D02*
X7Y1842D01*
X1862Y1842D02*
X1869Y1842D01*
X0Y1841D02*
X7Y1841D01*
X1862Y1841D02*
X1869Y1841D01*
X0Y1840D02*
X7Y1840D01*
X1862Y1840D02*
X1869Y1840D01*
X0Y1839D02*
X7Y1839D01*
X1862Y1839D02*
X1869Y1839D01*
X0Y1838D02*
X7Y1838D01*
X1862Y1838D02*
X1869Y1838D01*
X0Y1837D02*
X7Y1837D01*
X1862Y1837D02*
X1869Y1837D01*
X0Y1836D02*
X7Y1836D01*
X1862Y1836D02*
X1869Y1836D01*
X0Y1835D02*
X7Y1835D01*
X1862Y1835D02*
X1869Y1835D01*
X0Y1834D02*
X7Y1834D01*
X1862Y1834D02*
X1869Y1834D01*
X0Y1833D02*
X7Y1833D01*
X1862Y1833D02*
X1869Y1833D01*
X0Y1832D02*
X7Y1832D01*
X1862Y1832D02*
X1869Y1832D01*
X0Y1831D02*
X7Y1831D01*
X1862Y1831D02*
X1869Y1831D01*
X0Y1830D02*
X7Y1830D01*
X1862Y1830D02*
X1869Y1830D01*
X0Y1829D02*
X7Y1829D01*
X1862Y1829D02*
X1869Y1829D01*
X0Y1828D02*
X7Y1828D01*
X1862Y1828D02*
X1869Y1828D01*
X0Y1827D02*
X7Y1827D01*
X1862Y1827D02*
X1869Y1827D01*
X0Y1826D02*
X7Y1826D01*
X1862Y1826D02*
X1869Y1826D01*
X0Y1825D02*
X7Y1825D01*
X1862Y1825D02*
X1869Y1825D01*
X0Y1824D02*
X7Y1824D01*
X1862Y1824D02*
X1869Y1824D01*
X0Y1823D02*
X7Y1823D01*
X1862Y1823D02*
X1869Y1823D01*
X0Y1822D02*
X7Y1822D01*
X1862Y1822D02*
X1869Y1822D01*
X0Y1821D02*
X7Y1821D01*
X1862Y1821D02*
X1869Y1821D01*
X0Y1820D02*
X7Y1820D01*
X1862Y1820D02*
X1869Y1820D01*
X0Y1819D02*
X7Y1819D01*
X1862Y1819D02*
X1869Y1819D01*
X0Y1818D02*
X7Y1818D01*
X1862Y1818D02*
X1869Y1818D01*
X0Y1817D02*
X7Y1817D01*
X1862Y1817D02*
X1869Y1817D01*
X0Y1816D02*
X7Y1816D01*
X1862Y1816D02*
X1869Y1816D01*
X0Y1815D02*
X7Y1815D01*
X1862Y1815D02*
X1869Y1815D01*
X0Y1814D02*
X7Y1814D01*
X1862Y1814D02*
X1869Y1814D01*
X0Y1813D02*
X7Y1813D01*
X1862Y1813D02*
X1869Y1813D01*
X0Y1812D02*
X7Y1812D01*
X1862Y1812D02*
X1869Y1812D01*
X0Y1811D02*
X7Y1811D01*
X1862Y1811D02*
X1869Y1811D01*
X0Y1810D02*
X7Y1810D01*
X1862Y1810D02*
X1869Y1810D01*
X0Y1809D02*
X7Y1809D01*
X1862Y1809D02*
X1869Y1809D01*
X0Y1808D02*
X7Y1808D01*
X1862Y1808D02*
X1869Y1808D01*
X0Y1807D02*
X7Y1807D01*
X1862Y1807D02*
X1869Y1807D01*
X0Y1806D02*
X7Y1806D01*
X1862Y1806D02*
X1869Y1806D01*
X0Y1805D02*
X7Y1805D01*
X1862Y1805D02*
X1869Y1805D01*
X0Y1804D02*
X7Y1804D01*
X1862Y1804D02*
X1869Y1804D01*
X0Y1803D02*
X7Y1803D01*
X1862Y1803D02*
X1869Y1803D01*
X0Y1802D02*
X7Y1802D01*
X1862Y1802D02*
X1869Y1802D01*
X0Y1801D02*
X7Y1801D01*
X1862Y1801D02*
X1869Y1801D01*
X0Y1800D02*
X7Y1800D01*
X1862Y1800D02*
X1869Y1800D01*
X0Y1799D02*
X7Y1799D01*
X1862Y1799D02*
X1869Y1799D01*
X0Y1798D02*
X7Y1798D01*
X1862Y1798D02*
X1869Y1798D01*
X0Y1797D02*
X7Y1797D01*
X1862Y1797D02*
X1869Y1797D01*
X0Y1796D02*
X7Y1796D01*
X1862Y1796D02*
X1869Y1796D01*
X0Y1795D02*
X7Y1795D01*
X1862Y1795D02*
X1869Y1795D01*
X0Y1794D02*
X7Y1794D01*
X1862Y1794D02*
X1869Y1794D01*
X0Y1793D02*
X7Y1793D01*
X1862Y1793D02*
X1869Y1793D01*
X0Y1792D02*
X7Y1792D01*
X1862Y1792D02*
X1869Y1792D01*
X0Y1791D02*
X7Y1791D01*
X1862Y1791D02*
X1869Y1791D01*
X0Y1790D02*
X7Y1790D01*
X1862Y1790D02*
X1869Y1790D01*
X0Y1789D02*
X7Y1789D01*
X1862Y1789D02*
X1869Y1789D01*
X0Y1788D02*
X7Y1788D01*
X1862Y1788D02*
X1869Y1788D01*
X0Y1787D02*
X7Y1787D01*
X1862Y1787D02*
X1869Y1787D01*
X0Y1786D02*
X7Y1786D01*
X1862Y1786D02*
X1869Y1786D01*
X0Y1785D02*
X7Y1785D01*
X1862Y1785D02*
X1869Y1785D01*
X0Y1784D02*
X7Y1784D01*
X1862Y1784D02*
X1869Y1784D01*
X0Y1783D02*
X7Y1783D01*
X1862Y1783D02*
X1869Y1783D01*
X0Y1782D02*
X7Y1782D01*
X1862Y1782D02*
X1869Y1782D01*
X0Y1781D02*
X7Y1781D01*
X1862Y1781D02*
X1869Y1781D01*
X0Y1780D02*
X7Y1780D01*
X1862Y1780D02*
X1869Y1780D01*
X0Y1779D02*
X7Y1779D01*
X1862Y1779D02*
X1869Y1779D01*
X0Y1778D02*
X7Y1778D01*
X1862Y1778D02*
X1869Y1778D01*
X0Y1777D02*
X7Y1777D01*
X1862Y1777D02*
X1869Y1777D01*
X0Y1776D02*
X7Y1776D01*
X1862Y1776D02*
X1869Y1776D01*
X0Y1775D02*
X7Y1775D01*
X1862Y1775D02*
X1869Y1775D01*
X0Y1774D02*
X7Y1774D01*
X1862Y1774D02*
X1869Y1774D01*
X0Y1773D02*
X7Y1773D01*
X1862Y1773D02*
X1869Y1773D01*
X0Y1772D02*
X7Y1772D01*
X1862Y1772D02*
X1869Y1772D01*
X0Y1771D02*
X7Y1771D01*
X1862Y1771D02*
X1869Y1771D01*
X0Y1770D02*
X7Y1770D01*
X1862Y1770D02*
X1869Y1770D01*
X0Y1769D02*
X7Y1769D01*
X1862Y1769D02*
X1869Y1769D01*
X0Y1768D02*
X7Y1768D01*
X1862Y1768D02*
X1869Y1768D01*
X0Y1767D02*
X7Y1767D01*
X1862Y1767D02*
X1869Y1767D01*
X0Y1766D02*
X7Y1766D01*
X1862Y1766D02*
X1869Y1766D01*
X0Y1765D02*
X7Y1765D01*
X1862Y1765D02*
X1869Y1765D01*
X0Y1764D02*
X7Y1764D01*
X1862Y1764D02*
X1869Y1764D01*
X0Y1763D02*
X7Y1763D01*
X1862Y1763D02*
X1869Y1763D01*
X0Y1762D02*
X7Y1762D01*
X1862Y1762D02*
X1869Y1762D01*
X0Y1761D02*
X7Y1761D01*
X1862Y1761D02*
X1869Y1761D01*
X0Y1760D02*
X7Y1760D01*
X1862Y1760D02*
X1869Y1760D01*
X0Y1759D02*
X7Y1759D01*
X1862Y1759D02*
X1869Y1759D01*
X0Y1758D02*
X7Y1758D01*
X1862Y1758D02*
X1869Y1758D01*
X0Y1757D02*
X7Y1757D01*
X1862Y1757D02*
X1869Y1757D01*
X0Y1756D02*
X7Y1756D01*
X1862Y1756D02*
X1869Y1756D01*
X0Y1755D02*
X7Y1755D01*
X1862Y1755D02*
X1869Y1755D01*
X0Y1754D02*
X7Y1754D01*
X1862Y1754D02*
X1869Y1754D01*
X0Y1753D02*
X7Y1753D01*
X1862Y1753D02*
X1869Y1753D01*
X0Y1752D02*
X7Y1752D01*
X1862Y1752D02*
X1869Y1752D01*
X0Y1751D02*
X7Y1751D01*
X1862Y1751D02*
X1869Y1751D01*
X0Y1750D02*
X7Y1750D01*
X1862Y1750D02*
X1869Y1750D01*
X0Y1749D02*
X7Y1749D01*
X1862Y1749D02*
X1869Y1749D01*
X0Y1748D02*
X7Y1748D01*
X1862Y1748D02*
X1869Y1748D01*
X0Y1747D02*
X7Y1747D01*
X1862Y1747D02*
X1869Y1747D01*
X0Y1746D02*
X7Y1746D01*
X1862Y1746D02*
X1869Y1746D01*
X0Y1745D02*
X7Y1745D01*
X1862Y1745D02*
X1869Y1745D01*
X0Y1744D02*
X7Y1744D01*
X1862Y1744D02*
X1869Y1744D01*
X0Y1743D02*
X7Y1743D01*
X1862Y1743D02*
X1869Y1743D01*
X0Y1742D02*
X7Y1742D01*
X1862Y1742D02*
X1869Y1742D01*
X0Y1741D02*
X7Y1741D01*
X1862Y1741D02*
X1869Y1741D01*
X0Y1740D02*
X7Y1740D01*
X1862Y1740D02*
X1869Y1740D01*
X0Y1739D02*
X7Y1739D01*
X1862Y1739D02*
X1869Y1739D01*
X0Y1738D02*
X7Y1738D01*
X1862Y1738D02*
X1869Y1738D01*
X0Y1737D02*
X7Y1737D01*
X1862Y1737D02*
X1869Y1737D01*
X0Y1736D02*
X7Y1736D01*
X1862Y1736D02*
X1869Y1736D01*
X0Y1735D02*
X7Y1735D01*
X1862Y1735D02*
X1869Y1735D01*
X0Y1734D02*
X7Y1734D01*
X1862Y1734D02*
X1869Y1734D01*
X0Y1733D02*
X7Y1733D01*
X1862Y1733D02*
X1869Y1733D01*
X0Y1732D02*
X7Y1732D01*
X1862Y1732D02*
X1869Y1732D01*
X0Y1731D02*
X7Y1731D01*
X1862Y1731D02*
X1869Y1731D01*
X0Y1730D02*
X7Y1730D01*
X1862Y1730D02*
X1869Y1730D01*
X0Y1729D02*
X7Y1729D01*
X1862Y1729D02*
X1869Y1729D01*
X0Y1728D02*
X7Y1728D01*
X1862Y1728D02*
X1869Y1728D01*
X0Y1727D02*
X7Y1727D01*
X1862Y1727D02*
X1869Y1727D01*
X0Y1726D02*
X7Y1726D01*
X1862Y1726D02*
X1869Y1726D01*
X0Y1725D02*
X7Y1725D01*
X1862Y1725D02*
X1869Y1725D01*
X0Y1724D02*
X7Y1724D01*
X1862Y1724D02*
X1869Y1724D01*
X0Y1723D02*
X7Y1723D01*
X1862Y1723D02*
X1869Y1723D01*
X0Y1722D02*
X7Y1722D01*
X1862Y1722D02*
X1869Y1722D01*
X0Y1721D02*
X7Y1721D01*
X1862Y1721D02*
X1869Y1721D01*
X0Y1720D02*
X7Y1720D01*
X1862Y1720D02*
X1869Y1720D01*
X0Y1719D02*
X7Y1719D01*
X1862Y1719D02*
X1869Y1719D01*
X0Y1718D02*
X7Y1718D01*
X1862Y1718D02*
X1869Y1718D01*
X0Y1717D02*
X7Y1717D01*
X1862Y1717D02*
X1869Y1717D01*
X0Y1716D02*
X7Y1716D01*
X1862Y1716D02*
X1869Y1716D01*
X0Y1715D02*
X7Y1715D01*
X1862Y1715D02*
X1869Y1715D01*
X0Y1714D02*
X7Y1714D01*
X1862Y1714D02*
X1869Y1714D01*
X0Y1713D02*
X7Y1713D01*
X1862Y1713D02*
X1869Y1713D01*
X0Y1712D02*
X7Y1712D01*
X1862Y1712D02*
X1869Y1712D01*
X0Y1711D02*
X7Y1711D01*
X1862Y1711D02*
X1869Y1711D01*
X0Y1710D02*
X7Y1710D01*
X1862Y1710D02*
X1869Y1710D01*
X0Y1709D02*
X7Y1709D01*
X1862Y1709D02*
X1869Y1709D01*
X0Y1708D02*
X7Y1708D01*
X1862Y1708D02*
X1869Y1708D01*
X0Y1707D02*
X7Y1707D01*
X1862Y1707D02*
X1869Y1707D01*
X0Y1706D02*
X7Y1706D01*
X1862Y1706D02*
X1869Y1706D01*
X0Y1705D02*
X7Y1705D01*
X1862Y1705D02*
X1869Y1705D01*
X0Y1704D02*
X7Y1704D01*
X1862Y1704D02*
X1869Y1704D01*
X0Y1703D02*
X7Y1703D01*
X1862Y1703D02*
X1869Y1703D01*
X0Y1702D02*
X7Y1702D01*
X1862Y1702D02*
X1869Y1702D01*
X0Y1701D02*
X7Y1701D01*
X1862Y1701D02*
X1869Y1701D01*
X0Y1700D02*
X7Y1700D01*
X1862Y1700D02*
X1869Y1700D01*
X0Y1699D02*
X7Y1699D01*
X1862Y1699D02*
X1869Y1699D01*
X0Y1698D02*
X7Y1698D01*
X1862Y1698D02*
X1869Y1698D01*
X0Y1697D02*
X7Y1697D01*
X1862Y1697D02*
X1869Y1697D01*
X0Y1696D02*
X7Y1696D01*
X1862Y1696D02*
X1869Y1696D01*
X0Y1695D02*
X7Y1695D01*
X1862Y1695D02*
X1869Y1695D01*
X0Y1694D02*
X7Y1694D01*
X1862Y1694D02*
X1869Y1694D01*
X0Y1693D02*
X7Y1693D01*
X1862Y1693D02*
X1869Y1693D01*
X0Y1692D02*
X7Y1692D01*
X1862Y1692D02*
X1869Y1692D01*
X0Y1691D02*
X7Y1691D01*
X1862Y1691D02*
X1869Y1691D01*
X0Y1690D02*
X7Y1690D01*
X1862Y1690D02*
X1869Y1690D01*
X0Y1689D02*
X7Y1689D01*
X1862Y1689D02*
X1869Y1689D01*
X0Y1688D02*
X7Y1688D01*
X1862Y1688D02*
X1869Y1688D01*
X0Y1687D02*
X7Y1687D01*
X1862Y1687D02*
X1869Y1687D01*
X0Y1686D02*
X7Y1686D01*
X1862Y1686D02*
X1869Y1686D01*
X0Y1685D02*
X7Y1685D01*
X1862Y1685D02*
X1869Y1685D01*
X0Y1684D02*
X7Y1684D01*
X1862Y1684D02*
X1869Y1684D01*
X0Y1683D02*
X7Y1683D01*
X1862Y1683D02*
X1869Y1683D01*
X0Y1682D02*
X7Y1682D01*
X1862Y1682D02*
X1869Y1682D01*
X0Y1681D02*
X7Y1681D01*
X1862Y1681D02*
X1869Y1681D01*
X0Y1680D02*
X7Y1680D01*
X1862Y1680D02*
X1869Y1680D01*
X0Y1679D02*
X7Y1679D01*
X1862Y1679D02*
X1869Y1679D01*
X0Y1678D02*
X7Y1678D01*
X1862Y1678D02*
X1869Y1678D01*
X0Y1677D02*
X7Y1677D01*
X1862Y1677D02*
X1869Y1677D01*
X0Y1676D02*
X7Y1676D01*
X1862Y1676D02*
X1869Y1676D01*
X0Y1675D02*
X7Y1675D01*
X1862Y1675D02*
X1869Y1675D01*
X0Y1674D02*
X7Y1674D01*
X1862Y1674D02*
X1869Y1674D01*
X0Y1673D02*
X7Y1673D01*
X1862Y1673D02*
X1869Y1673D01*
X0Y1672D02*
X7Y1672D01*
X1862Y1672D02*
X1869Y1672D01*
X0Y1671D02*
X7Y1671D01*
X1862Y1671D02*
X1869Y1671D01*
X0Y1670D02*
X7Y1670D01*
X1862Y1670D02*
X1869Y1670D01*
X0Y1669D02*
X7Y1669D01*
X1862Y1669D02*
X1869Y1669D01*
X0Y1668D02*
X7Y1668D01*
X1862Y1668D02*
X1869Y1668D01*
X0Y1667D02*
X7Y1667D01*
X1862Y1667D02*
X1869Y1667D01*
X0Y1666D02*
X7Y1666D01*
X1862Y1666D02*
X1869Y1666D01*
X0Y1665D02*
X7Y1665D01*
X1862Y1665D02*
X1869Y1665D01*
X0Y1664D02*
X7Y1664D01*
X1862Y1664D02*
X1869Y1664D01*
X0Y1663D02*
X7Y1663D01*
X1862Y1663D02*
X1869Y1663D01*
X0Y1662D02*
X7Y1662D01*
X1862Y1662D02*
X1869Y1662D01*
X0Y1661D02*
X7Y1661D01*
X1862Y1661D02*
X1869Y1661D01*
X0Y1660D02*
X7Y1660D01*
X1862Y1660D02*
X1869Y1660D01*
X0Y1659D02*
X7Y1659D01*
X1862Y1659D02*
X1869Y1659D01*
X0Y1658D02*
X7Y1658D01*
X1862Y1658D02*
X1869Y1658D01*
X0Y1657D02*
X7Y1657D01*
X1862Y1657D02*
X1869Y1657D01*
X0Y1656D02*
X7Y1656D01*
X1862Y1656D02*
X1869Y1656D01*
X0Y1655D02*
X7Y1655D01*
X1862Y1655D02*
X1869Y1655D01*
X0Y1654D02*
X7Y1654D01*
X1862Y1654D02*
X1869Y1654D01*
X0Y1653D02*
X7Y1653D01*
X1862Y1653D02*
X1869Y1653D01*
X0Y1652D02*
X7Y1652D01*
X1862Y1652D02*
X1869Y1652D01*
X0Y1651D02*
X7Y1651D01*
X1862Y1651D02*
X1869Y1651D01*
X0Y1650D02*
X7Y1650D01*
X1862Y1650D02*
X1869Y1650D01*
X0Y1649D02*
X7Y1649D01*
X1862Y1649D02*
X1869Y1649D01*
X0Y1648D02*
X7Y1648D01*
X1862Y1648D02*
X1869Y1648D01*
X0Y1647D02*
X7Y1647D01*
X1862Y1647D02*
X1869Y1647D01*
X0Y1646D02*
X7Y1646D01*
X1862Y1646D02*
X1869Y1646D01*
X0Y1645D02*
X7Y1645D01*
X1862Y1645D02*
X1869Y1645D01*
X0Y1644D02*
X7Y1644D01*
X1862Y1644D02*
X1869Y1644D01*
X0Y1643D02*
X7Y1643D01*
X1862Y1643D02*
X1869Y1643D01*
X0Y1642D02*
X7Y1642D01*
X1862Y1642D02*
X1869Y1642D01*
X0Y1641D02*
X7Y1641D01*
X1862Y1641D02*
X1869Y1641D01*
X0Y1640D02*
X7Y1640D01*
X1862Y1640D02*
X1869Y1640D01*
X0Y1639D02*
X7Y1639D01*
X1862Y1639D02*
X1869Y1639D01*
X0Y1638D02*
X7Y1638D01*
X1862Y1638D02*
X1869Y1638D01*
X0Y1637D02*
X7Y1637D01*
X1862Y1637D02*
X1869Y1637D01*
X0Y1636D02*
X7Y1636D01*
X1862Y1636D02*
X1869Y1636D01*
X0Y1635D02*
X7Y1635D01*
X1862Y1635D02*
X1869Y1635D01*
X0Y1634D02*
X7Y1634D01*
X1862Y1634D02*
X1869Y1634D01*
X0Y1633D02*
X7Y1633D01*
X1862Y1633D02*
X1869Y1633D01*
X0Y1632D02*
X7Y1632D01*
X1862Y1632D02*
X1869Y1632D01*
X0Y1631D02*
X7Y1631D01*
X1862Y1631D02*
X1869Y1631D01*
X0Y1630D02*
X7Y1630D01*
X1862Y1630D02*
X1869Y1630D01*
X0Y1629D02*
X7Y1629D01*
X1862Y1629D02*
X1869Y1629D01*
X0Y1628D02*
X7Y1628D01*
X1862Y1628D02*
X1869Y1628D01*
X0Y1627D02*
X7Y1627D01*
X1862Y1627D02*
X1869Y1627D01*
X0Y1626D02*
X7Y1626D01*
X1862Y1626D02*
X1869Y1626D01*
X0Y1625D02*
X7Y1625D01*
X1862Y1625D02*
X1869Y1625D01*
X0Y1624D02*
X7Y1624D01*
X1862Y1624D02*
X1869Y1624D01*
X0Y1623D02*
X7Y1623D01*
X1862Y1623D02*
X1869Y1623D01*
X0Y1622D02*
X7Y1622D01*
X1862Y1622D02*
X1869Y1622D01*
X0Y1621D02*
X7Y1621D01*
X1862Y1621D02*
X1869Y1621D01*
X0Y1620D02*
X7Y1620D01*
X1862Y1620D02*
X1869Y1620D01*
X0Y1619D02*
X7Y1619D01*
X1862Y1619D02*
X1869Y1619D01*
X0Y1618D02*
X7Y1618D01*
X1862Y1618D02*
X1869Y1618D01*
X0Y1617D02*
X7Y1617D01*
X1862Y1617D02*
X1869Y1617D01*
X0Y1616D02*
X7Y1616D01*
X1862Y1616D02*
X1869Y1616D01*
X0Y1615D02*
X7Y1615D01*
X1862Y1615D02*
X1869Y1615D01*
X0Y1614D02*
X7Y1614D01*
X1862Y1614D02*
X1869Y1614D01*
X0Y1613D02*
X7Y1613D01*
X1862Y1613D02*
X1869Y1613D01*
X0Y1612D02*
X7Y1612D01*
X1862Y1612D02*
X1869Y1612D01*
X0Y1611D02*
X7Y1611D01*
X1862Y1611D02*
X1869Y1611D01*
X0Y1610D02*
X7Y1610D01*
X1862Y1610D02*
X1869Y1610D01*
X0Y1609D02*
X7Y1609D01*
X1862Y1609D02*
X1869Y1609D01*
X0Y1608D02*
X7Y1608D01*
X1862Y1608D02*
X1869Y1608D01*
X0Y1607D02*
X7Y1607D01*
X1862Y1607D02*
X1869Y1607D01*
X0Y1606D02*
X7Y1606D01*
X1862Y1606D02*
X1869Y1606D01*
X0Y1605D02*
X7Y1605D01*
X1862Y1605D02*
X1869Y1605D01*
X0Y1604D02*
X7Y1604D01*
X1862Y1604D02*
X1869Y1604D01*
X0Y1603D02*
X7Y1603D01*
X1862Y1603D02*
X1869Y1603D01*
X0Y1602D02*
X7Y1602D01*
X1862Y1602D02*
X1869Y1602D01*
X0Y1601D02*
X7Y1601D01*
X1862Y1601D02*
X1869Y1601D01*
X0Y1600D02*
X7Y1600D01*
X1862Y1600D02*
X1869Y1600D01*
X0Y1599D02*
X7Y1599D01*
X1862Y1599D02*
X1869Y1599D01*
X0Y1598D02*
X7Y1598D01*
X1862Y1598D02*
X1869Y1598D01*
X0Y1597D02*
X7Y1597D01*
X1862Y1597D02*
X1869Y1597D01*
X0Y1596D02*
X7Y1596D01*
X1862Y1596D02*
X1869Y1596D01*
X0Y1595D02*
X7Y1595D01*
X1862Y1595D02*
X1869Y1595D01*
X0Y1594D02*
X7Y1594D01*
X1862Y1594D02*
X1869Y1594D01*
X0Y1593D02*
X7Y1593D01*
X1862Y1593D02*
X1869Y1593D01*
X0Y1592D02*
X7Y1592D01*
X1862Y1592D02*
X1869Y1592D01*
X0Y1591D02*
X7Y1591D01*
X1862Y1591D02*
X1869Y1591D01*
X0Y1590D02*
X7Y1590D01*
X1862Y1590D02*
X1869Y1590D01*
X0Y1589D02*
X7Y1589D01*
X1862Y1589D02*
X1869Y1589D01*
X0Y1588D02*
X7Y1588D01*
X1862Y1588D02*
X1869Y1588D01*
X0Y1587D02*
X7Y1587D01*
X1862Y1587D02*
X1869Y1587D01*
X0Y1586D02*
X7Y1586D01*
X1862Y1586D02*
X1869Y1586D01*
X0Y1585D02*
X7Y1585D01*
X1862Y1585D02*
X1869Y1585D01*
X0Y1584D02*
X7Y1584D01*
X1862Y1584D02*
X1869Y1584D01*
X0Y1583D02*
X7Y1583D01*
X1862Y1583D02*
X1869Y1583D01*
X0Y1582D02*
X7Y1582D01*
X1862Y1582D02*
X1869Y1582D01*
X0Y1581D02*
X7Y1581D01*
X1862Y1581D02*
X1869Y1581D01*
X0Y1580D02*
X7Y1580D01*
X1862Y1580D02*
X1869Y1580D01*
X0Y1579D02*
X7Y1579D01*
X1862Y1579D02*
X1869Y1579D01*
X0Y1578D02*
X7Y1578D01*
X1862Y1578D02*
X1869Y1578D01*
X0Y1577D02*
X7Y1577D01*
X1862Y1577D02*
X1869Y1577D01*
X0Y1576D02*
X7Y1576D01*
X1862Y1576D02*
X1869Y1576D01*
X0Y1575D02*
X7Y1575D01*
X1862Y1575D02*
X1869Y1575D01*
X0Y1574D02*
X7Y1574D01*
X1862Y1574D02*
X1869Y1574D01*
X0Y1573D02*
X7Y1573D01*
X1862Y1573D02*
X1869Y1573D01*
X0Y1572D02*
X7Y1572D01*
X1862Y1572D02*
X1869Y1572D01*
X0Y1571D02*
X7Y1571D01*
X1862Y1571D02*
X1869Y1571D01*
X0Y1570D02*
X7Y1570D01*
X1862Y1570D02*
X1869Y1570D01*
X0Y1569D02*
X7Y1569D01*
X1862Y1569D02*
X1869Y1569D01*
X0Y1568D02*
X7Y1568D01*
X1862Y1568D02*
X1869Y1568D01*
X0Y1567D02*
X7Y1567D01*
X1862Y1567D02*
X1869Y1567D01*
X0Y1566D02*
X7Y1566D01*
X1862Y1566D02*
X1869Y1566D01*
X0Y1565D02*
X7Y1565D01*
X1862Y1565D02*
X1869Y1565D01*
X0Y1564D02*
X7Y1564D01*
X1862Y1564D02*
X1869Y1564D01*
X0Y1563D02*
X7Y1563D01*
X1862Y1563D02*
X1869Y1563D01*
X0Y1562D02*
X7Y1562D01*
X1862Y1562D02*
X1869Y1562D01*
X0Y1561D02*
X7Y1561D01*
X1862Y1561D02*
X1869Y1561D01*
X0Y1560D02*
X7Y1560D01*
X1862Y1560D02*
X1869Y1560D01*
X0Y1559D02*
X7Y1559D01*
X1862Y1559D02*
X1869Y1559D01*
X0Y1558D02*
X7Y1558D01*
X1862Y1558D02*
X1869Y1558D01*
X0Y1557D02*
X7Y1557D01*
X1862Y1557D02*
X1869Y1557D01*
X0Y1556D02*
X7Y1556D01*
X1862Y1556D02*
X1869Y1556D01*
X0Y1555D02*
X7Y1555D01*
X1862Y1555D02*
X1869Y1555D01*
X0Y1554D02*
X7Y1554D01*
X1862Y1554D02*
X1869Y1554D01*
X0Y1553D02*
X7Y1553D01*
X1862Y1553D02*
X1869Y1553D01*
X0Y1552D02*
X7Y1552D01*
X1862Y1552D02*
X1869Y1552D01*
X0Y1551D02*
X7Y1551D01*
X1862Y1551D02*
X1869Y1551D01*
X0Y1550D02*
X7Y1550D01*
X1862Y1550D02*
X1869Y1550D01*
X0Y1549D02*
X7Y1549D01*
X1862Y1549D02*
X1869Y1549D01*
X0Y1548D02*
X7Y1548D01*
X1862Y1548D02*
X1869Y1548D01*
X0Y1547D02*
X7Y1547D01*
X1862Y1547D02*
X1869Y1547D01*
X0Y1546D02*
X7Y1546D01*
X1862Y1546D02*
X1869Y1546D01*
X0Y1545D02*
X7Y1545D01*
X1862Y1545D02*
X1869Y1545D01*
X0Y1544D02*
X7Y1544D01*
X1862Y1544D02*
X1869Y1544D01*
X0Y1543D02*
X7Y1543D01*
X1862Y1543D02*
X1869Y1543D01*
X0Y1542D02*
X7Y1542D01*
X1862Y1542D02*
X1869Y1542D01*
X0Y1541D02*
X7Y1541D01*
X1862Y1541D02*
X1869Y1541D01*
X0Y1540D02*
X7Y1540D01*
X1862Y1540D02*
X1869Y1540D01*
X0Y1539D02*
X7Y1539D01*
X1862Y1539D02*
X1869Y1539D01*
X0Y1538D02*
X7Y1538D01*
X1862Y1538D02*
X1869Y1538D01*
X0Y1537D02*
X7Y1537D01*
X1862Y1537D02*
X1869Y1537D01*
X0Y1536D02*
X7Y1536D01*
X1862Y1536D02*
X1869Y1536D01*
X0Y1535D02*
X7Y1535D01*
X1862Y1535D02*
X1869Y1535D01*
X0Y1534D02*
X7Y1534D01*
X1862Y1534D02*
X1869Y1534D01*
X0Y1533D02*
X7Y1533D01*
X1862Y1533D02*
X1869Y1533D01*
X0Y1532D02*
X7Y1532D01*
X1862Y1532D02*
X1869Y1532D01*
X0Y1531D02*
X7Y1531D01*
X1862Y1531D02*
X1869Y1531D01*
X0Y1530D02*
X7Y1530D01*
X1862Y1530D02*
X1869Y1530D01*
X0Y1529D02*
X7Y1529D01*
X1862Y1529D02*
X1869Y1529D01*
X0Y1528D02*
X7Y1528D01*
X1862Y1528D02*
X1869Y1528D01*
X0Y1527D02*
X7Y1527D01*
X1862Y1527D02*
X1869Y1527D01*
X0Y1526D02*
X7Y1526D01*
X1862Y1526D02*
X1869Y1526D01*
X0Y1525D02*
X7Y1525D01*
X1862Y1525D02*
X1869Y1525D01*
X0Y1524D02*
X7Y1524D01*
X1862Y1524D02*
X1869Y1524D01*
X0Y1523D02*
X7Y1523D01*
X1862Y1523D02*
X1869Y1523D01*
X0Y1522D02*
X7Y1522D01*
X1862Y1522D02*
X1869Y1522D01*
X0Y1521D02*
X7Y1521D01*
X1862Y1521D02*
X1869Y1521D01*
X0Y1520D02*
X7Y1520D01*
X1862Y1520D02*
X1869Y1520D01*
X0Y1519D02*
X7Y1519D01*
X1862Y1519D02*
X1869Y1519D01*
X0Y1518D02*
X7Y1518D01*
X1862Y1518D02*
X1869Y1518D01*
X0Y1517D02*
X7Y1517D01*
X1862Y1517D02*
X1869Y1517D01*
X0Y1516D02*
X7Y1516D01*
X1862Y1516D02*
X1869Y1516D01*
X0Y1515D02*
X7Y1515D01*
X1862Y1515D02*
X1869Y1515D01*
X0Y1514D02*
X7Y1514D01*
X1862Y1514D02*
X1869Y1514D01*
X0Y1513D02*
X7Y1513D01*
X1862Y1513D02*
X1869Y1513D01*
X0Y1512D02*
X7Y1512D01*
X1862Y1512D02*
X1869Y1512D01*
X0Y1511D02*
X7Y1511D01*
X1862Y1511D02*
X1869Y1511D01*
X0Y1510D02*
X7Y1510D01*
X1862Y1510D02*
X1869Y1510D01*
X0Y1509D02*
X7Y1509D01*
X1862Y1509D02*
X1869Y1509D01*
X0Y1508D02*
X7Y1508D01*
X1862Y1508D02*
X1869Y1508D01*
X0Y1507D02*
X7Y1507D01*
X1862Y1507D02*
X1869Y1507D01*
X0Y1506D02*
X7Y1506D01*
X1862Y1506D02*
X1869Y1506D01*
X0Y1505D02*
X7Y1505D01*
X1862Y1505D02*
X1869Y1505D01*
X0Y1504D02*
X7Y1504D01*
X1862Y1504D02*
X1869Y1504D01*
X0Y1503D02*
X7Y1503D01*
X1862Y1503D02*
X1869Y1503D01*
X0Y1502D02*
X7Y1502D01*
X1862Y1502D02*
X1869Y1502D01*
X0Y1501D02*
X7Y1501D01*
X1862Y1501D02*
X1869Y1501D01*
X0Y1500D02*
X7Y1500D01*
X1862Y1500D02*
X1869Y1500D01*
X0Y1499D02*
X7Y1499D01*
X1862Y1499D02*
X1869Y1499D01*
X0Y1498D02*
X7Y1498D01*
X1862Y1498D02*
X1869Y1498D01*
X0Y1497D02*
X7Y1497D01*
X1862Y1497D02*
X1869Y1497D01*
X0Y1496D02*
X7Y1496D01*
X1862Y1496D02*
X1869Y1496D01*
X0Y1495D02*
X7Y1495D01*
X1862Y1495D02*
X1869Y1495D01*
X0Y1494D02*
X7Y1494D01*
X1862Y1494D02*
X1869Y1494D01*
X0Y1493D02*
X7Y1493D01*
X1862Y1493D02*
X1869Y1493D01*
X0Y1492D02*
X7Y1492D01*
X1862Y1492D02*
X1869Y1492D01*
X0Y1491D02*
X7Y1491D01*
X1862Y1491D02*
X1869Y1491D01*
X0Y1490D02*
X7Y1490D01*
X1862Y1490D02*
X1869Y1490D01*
X0Y1489D02*
X7Y1489D01*
X1862Y1489D02*
X1869Y1489D01*
X0Y1488D02*
X7Y1488D01*
X1862Y1488D02*
X1869Y1488D01*
X0Y1487D02*
X7Y1487D01*
X1862Y1487D02*
X1869Y1487D01*
X0Y1486D02*
X7Y1486D01*
X1862Y1486D02*
X1869Y1486D01*
X0Y1485D02*
X7Y1485D01*
X1862Y1485D02*
X1869Y1485D01*
X0Y1484D02*
X7Y1484D01*
X1862Y1484D02*
X1869Y1484D01*
X0Y1483D02*
X7Y1483D01*
X1862Y1483D02*
X1869Y1483D01*
X0Y1482D02*
X7Y1482D01*
X1862Y1482D02*
X1869Y1482D01*
X0Y1481D02*
X7Y1481D01*
X1862Y1481D02*
X1869Y1481D01*
X0Y1480D02*
X7Y1480D01*
X1862Y1480D02*
X1869Y1480D01*
X0Y1479D02*
X7Y1479D01*
X1862Y1479D02*
X1869Y1479D01*
X0Y1478D02*
X7Y1478D01*
X1862Y1478D02*
X1869Y1478D01*
X0Y1477D02*
X7Y1477D01*
X1862Y1477D02*
X1869Y1477D01*
X0Y1476D02*
X7Y1476D01*
X1862Y1476D02*
X1869Y1476D01*
X0Y1475D02*
X7Y1475D01*
X1862Y1475D02*
X1869Y1475D01*
X0Y1474D02*
X7Y1474D01*
X1862Y1474D02*
X1869Y1474D01*
X0Y1473D02*
X7Y1473D01*
X1862Y1473D02*
X1869Y1473D01*
X0Y1472D02*
X7Y1472D01*
X1862Y1472D02*
X1869Y1472D01*
X0Y1471D02*
X7Y1471D01*
X1862Y1471D02*
X1869Y1471D01*
X0Y1470D02*
X7Y1470D01*
X1862Y1470D02*
X1869Y1470D01*
X0Y1469D02*
X7Y1469D01*
X1862Y1469D02*
X1869Y1469D01*
X0Y1468D02*
X7Y1468D01*
X1862Y1468D02*
X1869Y1468D01*
X0Y1467D02*
X7Y1467D01*
X1862Y1467D02*
X1869Y1467D01*
X0Y1466D02*
X7Y1466D01*
X1862Y1466D02*
X1869Y1466D01*
X0Y1465D02*
X7Y1465D01*
X1862Y1465D02*
X1869Y1465D01*
X0Y1464D02*
X7Y1464D01*
X1862Y1464D02*
X1869Y1464D01*
X0Y1463D02*
X7Y1463D01*
X1862Y1463D02*
X1869Y1463D01*
X0Y1462D02*
X7Y1462D01*
X1862Y1462D02*
X1869Y1462D01*
X0Y1461D02*
X7Y1461D01*
X1862Y1461D02*
X1869Y1461D01*
X0Y1460D02*
X7Y1460D01*
X1862Y1460D02*
X1869Y1460D01*
X0Y1459D02*
X7Y1459D01*
X1862Y1459D02*
X1869Y1459D01*
X0Y1458D02*
X7Y1458D01*
X1862Y1458D02*
X1869Y1458D01*
X0Y1457D02*
X7Y1457D01*
X1862Y1457D02*
X1869Y1457D01*
X0Y1456D02*
X7Y1456D01*
X1862Y1456D02*
X1869Y1456D01*
X0Y1455D02*
X7Y1455D01*
X1862Y1455D02*
X1869Y1455D01*
X0Y1454D02*
X7Y1454D01*
X1862Y1454D02*
X1869Y1454D01*
X0Y1453D02*
X7Y1453D01*
X1862Y1453D02*
X1869Y1453D01*
X0Y1452D02*
X7Y1452D01*
X1862Y1452D02*
X1869Y1452D01*
X0Y1451D02*
X7Y1451D01*
X1862Y1451D02*
X1869Y1451D01*
X0Y1450D02*
X7Y1450D01*
X1862Y1450D02*
X1869Y1450D01*
X0Y1449D02*
X7Y1449D01*
X1862Y1449D02*
X1869Y1449D01*
X0Y1448D02*
X7Y1448D01*
X1862Y1448D02*
X1869Y1448D01*
X0Y1447D02*
X7Y1447D01*
X1862Y1447D02*
X1869Y1447D01*
X0Y1446D02*
X7Y1446D01*
X1862Y1446D02*
X1869Y1446D01*
X0Y1445D02*
X7Y1445D01*
X1862Y1445D02*
X1869Y1445D01*
X0Y1444D02*
X7Y1444D01*
X1862Y1444D02*
X1869Y1444D01*
X0Y1443D02*
X7Y1443D01*
X1862Y1443D02*
X1869Y1443D01*
X0Y1442D02*
X7Y1442D01*
X1862Y1442D02*
X1869Y1442D01*
X0Y1441D02*
X7Y1441D01*
X1862Y1441D02*
X1869Y1441D01*
X0Y1440D02*
X7Y1440D01*
X1862Y1440D02*
X1869Y1440D01*
X0Y1439D02*
X7Y1439D01*
X1862Y1439D02*
X1869Y1439D01*
X0Y1438D02*
X7Y1438D01*
X1862Y1438D02*
X1869Y1438D01*
X0Y1437D02*
X7Y1437D01*
X1862Y1437D02*
X1869Y1437D01*
X0Y1436D02*
X7Y1436D01*
X1862Y1436D02*
X1869Y1436D01*
X0Y1435D02*
X7Y1435D01*
X1862Y1435D02*
X1869Y1435D01*
X0Y1434D02*
X7Y1434D01*
X1862Y1434D02*
X1869Y1434D01*
X0Y1433D02*
X7Y1433D01*
X1862Y1433D02*
X1869Y1433D01*
X0Y1432D02*
X7Y1432D01*
X1862Y1432D02*
X1869Y1432D01*
X0Y1431D02*
X7Y1431D01*
X1862Y1431D02*
X1869Y1431D01*
X0Y1430D02*
X7Y1430D01*
X1862Y1430D02*
X1869Y1430D01*
X0Y1429D02*
X7Y1429D01*
X1862Y1429D02*
X1869Y1429D01*
X0Y1428D02*
X7Y1428D01*
X1862Y1428D02*
X1869Y1428D01*
X0Y1427D02*
X7Y1427D01*
X1862Y1427D02*
X1869Y1427D01*
X0Y1426D02*
X7Y1426D01*
X1862Y1426D02*
X1869Y1426D01*
X0Y1425D02*
X7Y1425D01*
X1862Y1425D02*
X1869Y1425D01*
X0Y1424D02*
X7Y1424D01*
X1862Y1424D02*
X1869Y1424D01*
X0Y1423D02*
X7Y1423D01*
X1862Y1423D02*
X1869Y1423D01*
X0Y1422D02*
X7Y1422D01*
X1862Y1422D02*
X1869Y1422D01*
X0Y1421D02*
X7Y1421D01*
X1862Y1421D02*
X1869Y1421D01*
X0Y1420D02*
X7Y1420D01*
X1862Y1420D02*
X1869Y1420D01*
X0Y1419D02*
X7Y1419D01*
X1862Y1419D02*
X1869Y1419D01*
X0Y1418D02*
X7Y1418D01*
X1862Y1418D02*
X1869Y1418D01*
X0Y1417D02*
X7Y1417D01*
X1862Y1417D02*
X1869Y1417D01*
X0Y1416D02*
X7Y1416D01*
X1862Y1416D02*
X1869Y1416D01*
X0Y1415D02*
X7Y1415D01*
X1862Y1415D02*
X1869Y1415D01*
X0Y1414D02*
X7Y1414D01*
X1862Y1414D02*
X1869Y1414D01*
X0Y1413D02*
X7Y1413D01*
X1862Y1413D02*
X1869Y1413D01*
X0Y1412D02*
X7Y1412D01*
X1862Y1412D02*
X1869Y1412D01*
X0Y1411D02*
X7Y1411D01*
X1862Y1411D02*
X1869Y1411D01*
X0Y1410D02*
X7Y1410D01*
X1862Y1410D02*
X1869Y1410D01*
X0Y1409D02*
X7Y1409D01*
X1862Y1409D02*
X1869Y1409D01*
X0Y1408D02*
X7Y1408D01*
X1862Y1408D02*
X1869Y1408D01*
X0Y1407D02*
X7Y1407D01*
X1862Y1407D02*
X1869Y1407D01*
X0Y1406D02*
X7Y1406D01*
X1862Y1406D02*
X1869Y1406D01*
X0Y1405D02*
X7Y1405D01*
X1862Y1405D02*
X1869Y1405D01*
X0Y1404D02*
X7Y1404D01*
X1862Y1404D02*
X1869Y1404D01*
X0Y1403D02*
X7Y1403D01*
X1862Y1403D02*
X1869Y1403D01*
X0Y1402D02*
X7Y1402D01*
X1862Y1402D02*
X1869Y1402D01*
X0Y1401D02*
X7Y1401D01*
X1862Y1401D02*
X1869Y1401D01*
X0Y1400D02*
X7Y1400D01*
X1862Y1400D02*
X1869Y1400D01*
X0Y1399D02*
X7Y1399D01*
X1862Y1399D02*
X1869Y1399D01*
X0Y1398D02*
X7Y1398D01*
X1862Y1398D02*
X1869Y1398D01*
X0Y1397D02*
X7Y1397D01*
X1862Y1397D02*
X1869Y1397D01*
X0Y1396D02*
X7Y1396D01*
X1862Y1396D02*
X1869Y1396D01*
X0Y1395D02*
X7Y1395D01*
X1862Y1395D02*
X1869Y1395D01*
X0Y1394D02*
X7Y1394D01*
X1862Y1394D02*
X1869Y1394D01*
X0Y1393D02*
X7Y1393D01*
X1862Y1393D02*
X1869Y1393D01*
X0Y1392D02*
X7Y1392D01*
X1862Y1392D02*
X1869Y1392D01*
X0Y1391D02*
X7Y1391D01*
X1862Y1391D02*
X1869Y1391D01*
X0Y1390D02*
X7Y1390D01*
X1862Y1390D02*
X1869Y1390D01*
X0Y1389D02*
X7Y1389D01*
X1862Y1389D02*
X1869Y1389D01*
X0Y1388D02*
X7Y1388D01*
X1862Y1388D02*
X1869Y1388D01*
X0Y1387D02*
X7Y1387D01*
X1862Y1387D02*
X1869Y1387D01*
X0Y1386D02*
X7Y1386D01*
X1862Y1386D02*
X1869Y1386D01*
X0Y1385D02*
X7Y1385D01*
X1862Y1385D02*
X1869Y1385D01*
X0Y1384D02*
X7Y1384D01*
X1862Y1384D02*
X1869Y1384D01*
X0Y1383D02*
X7Y1383D01*
X1862Y1383D02*
X1869Y1383D01*
X0Y1382D02*
X7Y1382D01*
X1862Y1382D02*
X1869Y1382D01*
X0Y1381D02*
X7Y1381D01*
X1862Y1381D02*
X1869Y1381D01*
X0Y1380D02*
X7Y1380D01*
X1862Y1380D02*
X1869Y1380D01*
X0Y1379D02*
X7Y1379D01*
X1862Y1379D02*
X1869Y1379D01*
X0Y1378D02*
X7Y1378D01*
X1862Y1378D02*
X1869Y1378D01*
X0Y1377D02*
X7Y1377D01*
X1862Y1377D02*
X1869Y1377D01*
X0Y1376D02*
X7Y1376D01*
X1862Y1376D02*
X1869Y1376D01*
X0Y1375D02*
X7Y1375D01*
X1862Y1375D02*
X1869Y1375D01*
X0Y1374D02*
X7Y1374D01*
X1862Y1374D02*
X1869Y1374D01*
X0Y1373D02*
X7Y1373D01*
X1862Y1373D02*
X1869Y1373D01*
X0Y1372D02*
X7Y1372D01*
X1862Y1372D02*
X1869Y1372D01*
X0Y1371D02*
X7Y1371D01*
X1862Y1371D02*
X1869Y1371D01*
X0Y1370D02*
X7Y1370D01*
X1862Y1370D02*
X1869Y1370D01*
X0Y1369D02*
X7Y1369D01*
X1862Y1369D02*
X1869Y1369D01*
X0Y1368D02*
X7Y1368D01*
X1862Y1368D02*
X1869Y1368D01*
X0Y1367D02*
X7Y1367D01*
X1862Y1367D02*
X1869Y1367D01*
X0Y1366D02*
X7Y1366D01*
X1862Y1366D02*
X1869Y1366D01*
X0Y1365D02*
X7Y1365D01*
X1862Y1365D02*
X1869Y1365D01*
X0Y1364D02*
X7Y1364D01*
X1862Y1364D02*
X1869Y1364D01*
X0Y1363D02*
X7Y1363D01*
X1862Y1363D02*
X1869Y1363D01*
X0Y1362D02*
X7Y1362D01*
X1862Y1362D02*
X1869Y1362D01*
X0Y1361D02*
X7Y1361D01*
X1862Y1361D02*
X1869Y1361D01*
X0Y1360D02*
X7Y1360D01*
X1862Y1360D02*
X1869Y1360D01*
X0Y1359D02*
X7Y1359D01*
X1862Y1359D02*
X1869Y1359D01*
X0Y1358D02*
X7Y1358D01*
X1862Y1358D02*
X1869Y1358D01*
X0Y1357D02*
X7Y1357D01*
X1862Y1357D02*
X1869Y1357D01*
X0Y1356D02*
X7Y1356D01*
X1862Y1356D02*
X1869Y1356D01*
X0Y1355D02*
X7Y1355D01*
X1862Y1355D02*
X1869Y1355D01*
X0Y1354D02*
X7Y1354D01*
X1862Y1354D02*
X1869Y1354D01*
X0Y1353D02*
X7Y1353D01*
X1862Y1353D02*
X1869Y1353D01*
X0Y1352D02*
X7Y1352D01*
X1862Y1352D02*
X1869Y1352D01*
X0Y1351D02*
X7Y1351D01*
X1862Y1351D02*
X1869Y1351D01*
X0Y1350D02*
X7Y1350D01*
X1862Y1350D02*
X1869Y1350D01*
X0Y1349D02*
X7Y1349D01*
X1862Y1349D02*
X1869Y1349D01*
X0Y1348D02*
X7Y1348D01*
X1862Y1348D02*
X1869Y1348D01*
X0Y1347D02*
X7Y1347D01*
X1862Y1347D02*
X1869Y1347D01*
X0Y1346D02*
X7Y1346D01*
X1862Y1346D02*
X1869Y1346D01*
X0Y1345D02*
X7Y1345D01*
X1862Y1345D02*
X1869Y1345D01*
X0Y1344D02*
X7Y1344D01*
X1862Y1344D02*
X1869Y1344D01*
X0Y1343D02*
X7Y1343D01*
X1862Y1343D02*
X1869Y1343D01*
X0Y1342D02*
X7Y1342D01*
X1862Y1342D02*
X1869Y1342D01*
X0Y1341D02*
X7Y1341D01*
X1862Y1341D02*
X1869Y1341D01*
X0Y1340D02*
X7Y1340D01*
X1862Y1340D02*
X1869Y1340D01*
X0Y1339D02*
X7Y1339D01*
X1862Y1339D02*
X1869Y1339D01*
X0Y1338D02*
X7Y1338D01*
X1862Y1338D02*
X1869Y1338D01*
X0Y1337D02*
X7Y1337D01*
X1862Y1337D02*
X1869Y1337D01*
X0Y1336D02*
X7Y1336D01*
X1862Y1336D02*
X1869Y1336D01*
X0Y1335D02*
X7Y1335D01*
X1862Y1335D02*
X1869Y1335D01*
X0Y1334D02*
X7Y1334D01*
X1862Y1334D02*
X1869Y1334D01*
X0Y1333D02*
X7Y1333D01*
X1862Y1333D02*
X1869Y1333D01*
X0Y1332D02*
X7Y1332D01*
X1862Y1332D02*
X1869Y1332D01*
X0Y1331D02*
X7Y1331D01*
X1862Y1331D02*
X1869Y1331D01*
X0Y1330D02*
X7Y1330D01*
X1862Y1330D02*
X1869Y1330D01*
X0Y1329D02*
X7Y1329D01*
X1862Y1329D02*
X1869Y1329D01*
X0Y1328D02*
X7Y1328D01*
X1862Y1328D02*
X1869Y1328D01*
X0Y1327D02*
X7Y1327D01*
X1862Y1327D02*
X1869Y1327D01*
X0Y1326D02*
X7Y1326D01*
X1862Y1326D02*
X1869Y1326D01*
X0Y1325D02*
X7Y1325D01*
X1862Y1325D02*
X1869Y1325D01*
X0Y1324D02*
X7Y1324D01*
X1862Y1324D02*
X1869Y1324D01*
X0Y1323D02*
X7Y1323D01*
X1862Y1323D02*
X1869Y1323D01*
X0Y1322D02*
X7Y1322D01*
X1862Y1322D02*
X1869Y1322D01*
X0Y1321D02*
X7Y1321D01*
X1862Y1321D02*
X1869Y1321D01*
X0Y1320D02*
X7Y1320D01*
X1862Y1320D02*
X1869Y1320D01*
X0Y1319D02*
X7Y1319D01*
X1862Y1319D02*
X1869Y1319D01*
X0Y1318D02*
X7Y1318D01*
X1862Y1318D02*
X1869Y1318D01*
X0Y1317D02*
X7Y1317D01*
X1862Y1317D02*
X1869Y1317D01*
X0Y1316D02*
X7Y1316D01*
X1862Y1316D02*
X1869Y1316D01*
X0Y1315D02*
X7Y1315D01*
X1862Y1315D02*
X1869Y1315D01*
X0Y1314D02*
X7Y1314D01*
X1862Y1314D02*
X1869Y1314D01*
X0Y1313D02*
X7Y1313D01*
X1862Y1313D02*
X1869Y1313D01*
X0Y1312D02*
X7Y1312D01*
X1862Y1312D02*
X1869Y1312D01*
X0Y1311D02*
X7Y1311D01*
X1862Y1311D02*
X1869Y1311D01*
X0Y1310D02*
X7Y1310D01*
X1862Y1310D02*
X1869Y1310D01*
X0Y1309D02*
X7Y1309D01*
X1862Y1309D02*
X1869Y1309D01*
X0Y1308D02*
X7Y1308D01*
X1862Y1308D02*
X1869Y1308D01*
X0Y1307D02*
X7Y1307D01*
X1862Y1307D02*
X1869Y1307D01*
X0Y1306D02*
X7Y1306D01*
X1862Y1306D02*
X1869Y1306D01*
X0Y1305D02*
X7Y1305D01*
X1862Y1305D02*
X1869Y1305D01*
X0Y1304D02*
X7Y1304D01*
X1862Y1304D02*
X1869Y1304D01*
X0Y1303D02*
X7Y1303D01*
X1862Y1303D02*
X1869Y1303D01*
X0Y1302D02*
X7Y1302D01*
X1862Y1302D02*
X1869Y1302D01*
X0Y1301D02*
X7Y1301D01*
X1862Y1301D02*
X1869Y1301D01*
X0Y1300D02*
X7Y1300D01*
X1862Y1300D02*
X1869Y1300D01*
X0Y1299D02*
X7Y1299D01*
X1862Y1299D02*
X1869Y1299D01*
X0Y1298D02*
X7Y1298D01*
X1862Y1298D02*
X1869Y1298D01*
X0Y1297D02*
X7Y1297D01*
X1862Y1297D02*
X1869Y1297D01*
X0Y1296D02*
X7Y1296D01*
X1862Y1296D02*
X1869Y1296D01*
X0Y1295D02*
X7Y1295D01*
X1862Y1295D02*
X1869Y1295D01*
X0Y1294D02*
X7Y1294D01*
X1862Y1294D02*
X1869Y1294D01*
X0Y1293D02*
X7Y1293D01*
X1862Y1293D02*
X1869Y1293D01*
X0Y1292D02*
X7Y1292D01*
X1862Y1292D02*
X1869Y1292D01*
X0Y1291D02*
X7Y1291D01*
X1862Y1291D02*
X1869Y1291D01*
X0Y1290D02*
X7Y1290D01*
X1862Y1290D02*
X1869Y1290D01*
X0Y1289D02*
X7Y1289D01*
X1862Y1289D02*
X1869Y1289D01*
X0Y1288D02*
X7Y1288D01*
X1862Y1288D02*
X1869Y1288D01*
X0Y1287D02*
X7Y1287D01*
X1862Y1287D02*
X1869Y1287D01*
X0Y1286D02*
X7Y1286D01*
X1862Y1286D02*
X1869Y1286D01*
X0Y1285D02*
X7Y1285D01*
X1862Y1285D02*
X1869Y1285D01*
X0Y1284D02*
X7Y1284D01*
X1862Y1284D02*
X1869Y1284D01*
X0Y1283D02*
X7Y1283D01*
X1862Y1283D02*
X1869Y1283D01*
X0Y1282D02*
X7Y1282D01*
X1862Y1282D02*
X1869Y1282D01*
X0Y1281D02*
X7Y1281D01*
X1862Y1281D02*
X1869Y1281D01*
X0Y1280D02*
X7Y1280D01*
X1862Y1280D02*
X1869Y1280D01*
X0Y1279D02*
X7Y1279D01*
X1862Y1279D02*
X1869Y1279D01*
X0Y1278D02*
X7Y1278D01*
X1862Y1278D02*
X1869Y1278D01*
X0Y1277D02*
X7Y1277D01*
X1862Y1277D02*
X1869Y1277D01*
X0Y1276D02*
X7Y1276D01*
X1862Y1276D02*
X1869Y1276D01*
X0Y1275D02*
X7Y1275D01*
X1862Y1275D02*
X1869Y1275D01*
X0Y1274D02*
X7Y1274D01*
X1862Y1274D02*
X1869Y1274D01*
X0Y1273D02*
X7Y1273D01*
X1862Y1273D02*
X1869Y1273D01*
X0Y1272D02*
X7Y1272D01*
X1862Y1272D02*
X1869Y1272D01*
X0Y1271D02*
X7Y1271D01*
X1862Y1271D02*
X1869Y1271D01*
X0Y1270D02*
X7Y1270D01*
X1862Y1270D02*
X1869Y1270D01*
X0Y1269D02*
X7Y1269D01*
X1862Y1269D02*
X1869Y1269D01*
X0Y1268D02*
X7Y1268D01*
X1862Y1268D02*
X1869Y1268D01*
X0Y1267D02*
X7Y1267D01*
X1862Y1267D02*
X1869Y1267D01*
X0Y1266D02*
X7Y1266D01*
X1862Y1266D02*
X1869Y1266D01*
X0Y1265D02*
X7Y1265D01*
X1862Y1265D02*
X1869Y1265D01*
X0Y1264D02*
X7Y1264D01*
X1862Y1264D02*
X1869Y1264D01*
X0Y1263D02*
X7Y1263D01*
X1862Y1263D02*
X1869Y1263D01*
X0Y1262D02*
X7Y1262D01*
X1862Y1262D02*
X1869Y1262D01*
X0Y1261D02*
X7Y1261D01*
X1862Y1261D02*
X1869Y1261D01*
X0Y1260D02*
X7Y1260D01*
X1862Y1260D02*
X1869Y1260D01*
X0Y1259D02*
X7Y1259D01*
X1862Y1259D02*
X1869Y1259D01*
X0Y1258D02*
X7Y1258D01*
X1862Y1258D02*
X1869Y1258D01*
X0Y1257D02*
X7Y1257D01*
X1862Y1257D02*
X1869Y1257D01*
X0Y1256D02*
X7Y1256D01*
X1862Y1256D02*
X1869Y1256D01*
X0Y1255D02*
X7Y1255D01*
X1862Y1255D02*
X1869Y1255D01*
X0Y1254D02*
X7Y1254D01*
X1862Y1254D02*
X1869Y1254D01*
X0Y1253D02*
X7Y1253D01*
X1862Y1253D02*
X1869Y1253D01*
X0Y1252D02*
X7Y1252D01*
X1862Y1252D02*
X1869Y1252D01*
X0Y1251D02*
X7Y1251D01*
X1862Y1251D02*
X1869Y1251D01*
X0Y1250D02*
X7Y1250D01*
X1862Y1250D02*
X1869Y1250D01*
X0Y1249D02*
X7Y1249D01*
X1862Y1249D02*
X1869Y1249D01*
X0Y1248D02*
X7Y1248D01*
X1862Y1248D02*
X1869Y1248D01*
X0Y1247D02*
X7Y1247D01*
X1862Y1247D02*
X1869Y1247D01*
X0Y1246D02*
X7Y1246D01*
X1862Y1246D02*
X1869Y1246D01*
X0Y1245D02*
X7Y1245D01*
X1862Y1245D02*
X1869Y1245D01*
X0Y1244D02*
X7Y1244D01*
X1862Y1244D02*
X1869Y1244D01*
X0Y1243D02*
X7Y1243D01*
X1862Y1243D02*
X1869Y1243D01*
X0Y1242D02*
X7Y1242D01*
X1862Y1242D02*
X1869Y1242D01*
X0Y1241D02*
X7Y1241D01*
X1862Y1241D02*
X1869Y1241D01*
X0Y1240D02*
X7Y1240D01*
X1862Y1240D02*
X1869Y1240D01*
X0Y1239D02*
X7Y1239D01*
X1862Y1239D02*
X1869Y1239D01*
X0Y1238D02*
X7Y1238D01*
X1862Y1238D02*
X1869Y1238D01*
X0Y1237D02*
X7Y1237D01*
X1862Y1237D02*
X1869Y1237D01*
X0Y1236D02*
X7Y1236D01*
X1862Y1236D02*
X1869Y1236D01*
X0Y1235D02*
X7Y1235D01*
X1862Y1235D02*
X1869Y1235D01*
X0Y1234D02*
X7Y1234D01*
X1862Y1234D02*
X1869Y1234D01*
X0Y1233D02*
X7Y1233D01*
X1862Y1233D02*
X1869Y1233D01*
X0Y1232D02*
X7Y1232D01*
X1862Y1232D02*
X1869Y1232D01*
X0Y1231D02*
X7Y1231D01*
X1862Y1231D02*
X1869Y1231D01*
X0Y1230D02*
X7Y1230D01*
X1862Y1230D02*
X1869Y1230D01*
X0Y1229D02*
X7Y1229D01*
X1862Y1229D02*
X1869Y1229D01*
X0Y1228D02*
X7Y1228D01*
X1862Y1228D02*
X1869Y1228D01*
X0Y1227D02*
X7Y1227D01*
X1862Y1227D02*
X1869Y1227D01*
X0Y1226D02*
X7Y1226D01*
X1862Y1226D02*
X1869Y1226D01*
X0Y1225D02*
X7Y1225D01*
X1862Y1225D02*
X1869Y1225D01*
X0Y1224D02*
X7Y1224D01*
X1862Y1224D02*
X1869Y1224D01*
X0Y1223D02*
X7Y1223D01*
X1862Y1223D02*
X1869Y1223D01*
X0Y1222D02*
X7Y1222D01*
X1862Y1222D02*
X1869Y1222D01*
X0Y1221D02*
X7Y1221D01*
X1862Y1221D02*
X1869Y1221D01*
X0Y1220D02*
X7Y1220D01*
X1862Y1220D02*
X1869Y1220D01*
X0Y1219D02*
X7Y1219D01*
X1862Y1219D02*
X1869Y1219D01*
X0Y1218D02*
X7Y1218D01*
X1862Y1218D02*
X1869Y1218D01*
X0Y1217D02*
X7Y1217D01*
X1862Y1217D02*
X1869Y1217D01*
X0Y1216D02*
X7Y1216D01*
X1862Y1216D02*
X1869Y1216D01*
X0Y1215D02*
X7Y1215D01*
X1862Y1215D02*
X1869Y1215D01*
X0Y1214D02*
X7Y1214D01*
X1862Y1214D02*
X1869Y1214D01*
X0Y1213D02*
X7Y1213D01*
X1862Y1213D02*
X1869Y1213D01*
X0Y1212D02*
X7Y1212D01*
X1862Y1212D02*
X1869Y1212D01*
X0Y1211D02*
X7Y1211D01*
X1862Y1211D02*
X1869Y1211D01*
X0Y1210D02*
X7Y1210D01*
X1862Y1210D02*
X1869Y1210D01*
X0Y1209D02*
X7Y1209D01*
X1862Y1209D02*
X1869Y1209D01*
X0Y1208D02*
X7Y1208D01*
X1862Y1208D02*
X1869Y1208D01*
X0Y1207D02*
X7Y1207D01*
X1862Y1207D02*
X1869Y1207D01*
X0Y1206D02*
X7Y1206D01*
X1862Y1206D02*
X1869Y1206D01*
X0Y1205D02*
X7Y1205D01*
X1862Y1205D02*
X1869Y1205D01*
X0Y1204D02*
X7Y1204D01*
X1862Y1204D02*
X1869Y1204D01*
X0Y1203D02*
X7Y1203D01*
X1862Y1203D02*
X1869Y1203D01*
X0Y1202D02*
X7Y1202D01*
X1862Y1202D02*
X1869Y1202D01*
X0Y1201D02*
X7Y1201D01*
X1862Y1201D02*
X1869Y1201D01*
X0Y1200D02*
X7Y1200D01*
X1862Y1200D02*
X1869Y1200D01*
X0Y1199D02*
X7Y1199D01*
X1862Y1199D02*
X1869Y1199D01*
X0Y1198D02*
X7Y1198D01*
X1862Y1198D02*
X1869Y1198D01*
X0Y1197D02*
X7Y1197D01*
X1862Y1197D02*
X1869Y1197D01*
X0Y1196D02*
X7Y1196D01*
X1862Y1196D02*
X1869Y1196D01*
X0Y1195D02*
X7Y1195D01*
X1862Y1195D02*
X1869Y1195D01*
X0Y1194D02*
X7Y1194D01*
X1862Y1194D02*
X1869Y1194D01*
X0Y1193D02*
X7Y1193D01*
X1862Y1193D02*
X1869Y1193D01*
X0Y1192D02*
X7Y1192D01*
X1862Y1192D02*
X1869Y1192D01*
X0Y1191D02*
X7Y1191D01*
X1862Y1191D02*
X1869Y1191D01*
X0Y1190D02*
X7Y1190D01*
X1862Y1190D02*
X1869Y1190D01*
X0Y1189D02*
X7Y1189D01*
X1862Y1189D02*
X1869Y1189D01*
X0Y1188D02*
X7Y1188D01*
X1862Y1188D02*
X1869Y1188D01*
X0Y1187D02*
X7Y1187D01*
X1862Y1187D02*
X1869Y1187D01*
X0Y1186D02*
X7Y1186D01*
X1862Y1186D02*
X1869Y1186D01*
X0Y1185D02*
X7Y1185D01*
X1862Y1185D02*
X1869Y1185D01*
X0Y1184D02*
X7Y1184D01*
X1862Y1184D02*
X1869Y1184D01*
X0Y1183D02*
X7Y1183D01*
X1862Y1183D02*
X1869Y1183D01*
X0Y1182D02*
X7Y1182D01*
X1862Y1182D02*
X1869Y1182D01*
X0Y1181D02*
X7Y1181D01*
X1862Y1181D02*
X1869Y1181D01*
X0Y1180D02*
X7Y1180D01*
X1862Y1180D02*
X1869Y1180D01*
X0Y1179D02*
X7Y1179D01*
X1862Y1179D02*
X1869Y1179D01*
X0Y1178D02*
X7Y1178D01*
X1862Y1178D02*
X1869Y1178D01*
X0Y1177D02*
X7Y1177D01*
X1862Y1177D02*
X1869Y1177D01*
X0Y1176D02*
X7Y1176D01*
X1862Y1176D02*
X1869Y1176D01*
X0Y1175D02*
X7Y1175D01*
X1862Y1175D02*
X1869Y1175D01*
X0Y1174D02*
X7Y1174D01*
X1862Y1174D02*
X1869Y1174D01*
X0Y1173D02*
X7Y1173D01*
X1862Y1173D02*
X1869Y1173D01*
X0Y1172D02*
X7Y1172D01*
X1862Y1172D02*
X1869Y1172D01*
X0Y1171D02*
X7Y1171D01*
X1862Y1171D02*
X1869Y1171D01*
X0Y1170D02*
X7Y1170D01*
X1862Y1170D02*
X1869Y1170D01*
X0Y1169D02*
X7Y1169D01*
X1862Y1169D02*
X1869Y1169D01*
X0Y1168D02*
X7Y1168D01*
X1862Y1168D02*
X1869Y1168D01*
X0Y1167D02*
X7Y1167D01*
X1862Y1167D02*
X1869Y1167D01*
X0Y1166D02*
X7Y1166D01*
X1862Y1166D02*
X1869Y1166D01*
X0Y1165D02*
X7Y1165D01*
X1862Y1165D02*
X1869Y1165D01*
X0Y1164D02*
X7Y1164D01*
X1862Y1164D02*
X1869Y1164D01*
X0Y1163D02*
X7Y1163D01*
X1862Y1163D02*
X1869Y1163D01*
X0Y1162D02*
X7Y1162D01*
X1862Y1162D02*
X1869Y1162D01*
X0Y1161D02*
X7Y1161D01*
X1862Y1161D02*
X1869Y1161D01*
X0Y1160D02*
X7Y1160D01*
X1862Y1160D02*
X1869Y1160D01*
X0Y1159D02*
X7Y1159D01*
X1862Y1159D02*
X1869Y1159D01*
X0Y1158D02*
X7Y1158D01*
X1862Y1158D02*
X1869Y1158D01*
X0Y1157D02*
X7Y1157D01*
X1862Y1157D02*
X1869Y1157D01*
X0Y1156D02*
X7Y1156D01*
X1862Y1156D02*
X1869Y1156D01*
X0Y1155D02*
X7Y1155D01*
X1862Y1155D02*
X1869Y1155D01*
X0Y1154D02*
X7Y1154D01*
X1862Y1154D02*
X1869Y1154D01*
X0Y1153D02*
X7Y1153D01*
X1862Y1153D02*
X1869Y1153D01*
X0Y1152D02*
X7Y1152D01*
X1862Y1152D02*
X1869Y1152D01*
X0Y1151D02*
X7Y1151D01*
X1862Y1151D02*
X1869Y1151D01*
X0Y1150D02*
X7Y1150D01*
X1862Y1150D02*
X1869Y1150D01*
X0Y1149D02*
X7Y1149D01*
X1862Y1149D02*
X1869Y1149D01*
X0Y1148D02*
X7Y1148D01*
X1862Y1148D02*
X1869Y1148D01*
X0Y1147D02*
X7Y1147D01*
X1862Y1147D02*
X1869Y1147D01*
X0Y1146D02*
X7Y1146D01*
X1862Y1146D02*
X1869Y1146D01*
X0Y1145D02*
X7Y1145D01*
X1862Y1145D02*
X1869Y1145D01*
X0Y1144D02*
X7Y1144D01*
X1862Y1144D02*
X1869Y1144D01*
X0Y1143D02*
X7Y1143D01*
X1862Y1143D02*
X1869Y1143D01*
X0Y1142D02*
X7Y1142D01*
X1862Y1142D02*
X1869Y1142D01*
X0Y1141D02*
X7Y1141D01*
X1862Y1141D02*
X1869Y1141D01*
X0Y1140D02*
X7Y1140D01*
X1862Y1140D02*
X1869Y1140D01*
X0Y1139D02*
X7Y1139D01*
X1862Y1139D02*
X1869Y1139D01*
X0Y1138D02*
X7Y1138D01*
X1862Y1138D02*
X1869Y1138D01*
X0Y1137D02*
X7Y1137D01*
X1862Y1137D02*
X1869Y1137D01*
X0Y1136D02*
X7Y1136D01*
X1862Y1136D02*
X1869Y1136D01*
X0Y1135D02*
X7Y1135D01*
X1862Y1135D02*
X1869Y1135D01*
X0Y1134D02*
X7Y1134D01*
X1862Y1134D02*
X1869Y1134D01*
X0Y1133D02*
X7Y1133D01*
X1862Y1133D02*
X1869Y1133D01*
X0Y1132D02*
X7Y1132D01*
X1862Y1132D02*
X1869Y1132D01*
X0Y1131D02*
X7Y1131D01*
X1862Y1131D02*
X1869Y1131D01*
X0Y1130D02*
X7Y1130D01*
X1862Y1130D02*
X1869Y1130D01*
X0Y1129D02*
X7Y1129D01*
X1862Y1129D02*
X1869Y1129D01*
X0Y1128D02*
X7Y1128D01*
X1862Y1128D02*
X1869Y1128D01*
X0Y1127D02*
X7Y1127D01*
X1862Y1127D02*
X1869Y1127D01*
X0Y1126D02*
X7Y1126D01*
X1862Y1126D02*
X1869Y1126D01*
X0Y1125D02*
X7Y1125D01*
X1862Y1125D02*
X1869Y1125D01*
X0Y1124D02*
X7Y1124D01*
X1862Y1124D02*
X1869Y1124D01*
X0Y1123D02*
X7Y1123D01*
X1862Y1123D02*
X1869Y1123D01*
X0Y1122D02*
X7Y1122D01*
X1862Y1122D02*
X1869Y1122D01*
X0Y1121D02*
X7Y1121D01*
X1862Y1121D02*
X1869Y1121D01*
X0Y1120D02*
X7Y1120D01*
X1862Y1120D02*
X1869Y1120D01*
X0Y1119D02*
X7Y1119D01*
X1862Y1119D02*
X1869Y1119D01*
X0Y1118D02*
X7Y1118D01*
X1862Y1118D02*
X1869Y1118D01*
X0Y1117D02*
X7Y1117D01*
X1862Y1117D02*
X1869Y1117D01*
X0Y1116D02*
X7Y1116D01*
X1862Y1116D02*
X1869Y1116D01*
X0Y1115D02*
X7Y1115D01*
X1862Y1115D02*
X1869Y1115D01*
X0Y1114D02*
X7Y1114D01*
X1862Y1114D02*
X1869Y1114D01*
X0Y1113D02*
X7Y1113D01*
X1862Y1113D02*
X1869Y1113D01*
X0Y1112D02*
X7Y1112D01*
X1862Y1112D02*
X1869Y1112D01*
X0Y1111D02*
X7Y1111D01*
X1862Y1111D02*
X1869Y1111D01*
X0Y1110D02*
X7Y1110D01*
X1862Y1110D02*
X1869Y1110D01*
X0Y1109D02*
X7Y1109D01*
X1862Y1109D02*
X1869Y1109D01*
X0Y1108D02*
X7Y1108D01*
X1862Y1108D02*
X1869Y1108D01*
X0Y1107D02*
X7Y1107D01*
X1862Y1107D02*
X1869Y1107D01*
X0Y1106D02*
X7Y1106D01*
X1862Y1106D02*
X1869Y1106D01*
X0Y1105D02*
X7Y1105D01*
X1862Y1105D02*
X1869Y1105D01*
X0Y1104D02*
X7Y1104D01*
X1862Y1104D02*
X1869Y1104D01*
X0Y1103D02*
X7Y1103D01*
X1862Y1103D02*
X1869Y1103D01*
X0Y1102D02*
X7Y1102D01*
X1862Y1102D02*
X1869Y1102D01*
X0Y1101D02*
X7Y1101D01*
X1862Y1101D02*
X1869Y1101D01*
X0Y1100D02*
X7Y1100D01*
X1862Y1100D02*
X1869Y1100D01*
X0Y1099D02*
X7Y1099D01*
X1862Y1099D02*
X1869Y1099D01*
X0Y1098D02*
X7Y1098D01*
X1862Y1098D02*
X1869Y1098D01*
X0Y1097D02*
X7Y1097D01*
X1862Y1097D02*
X1869Y1097D01*
X0Y1096D02*
X7Y1096D01*
X1862Y1096D02*
X1869Y1096D01*
X0Y1095D02*
X7Y1095D01*
X1862Y1095D02*
X1869Y1095D01*
X0Y1094D02*
X7Y1094D01*
X1862Y1094D02*
X1869Y1094D01*
X0Y1093D02*
X7Y1093D01*
X1862Y1093D02*
X1869Y1093D01*
X0Y1092D02*
X7Y1092D01*
X1862Y1092D02*
X1869Y1092D01*
X0Y1091D02*
X7Y1091D01*
X1862Y1091D02*
X1869Y1091D01*
X0Y1090D02*
X7Y1090D01*
X1862Y1090D02*
X1869Y1090D01*
X0Y1089D02*
X7Y1089D01*
X1862Y1089D02*
X1869Y1089D01*
X0Y1088D02*
X7Y1088D01*
X1862Y1088D02*
X1869Y1088D01*
X0Y1087D02*
X7Y1087D01*
X1862Y1087D02*
X1869Y1087D01*
X0Y1086D02*
X7Y1086D01*
X1862Y1086D02*
X1869Y1086D01*
X0Y1085D02*
X7Y1085D01*
X1862Y1085D02*
X1869Y1085D01*
X0Y1084D02*
X7Y1084D01*
X1862Y1084D02*
X1869Y1084D01*
X0Y1083D02*
X7Y1083D01*
X1862Y1083D02*
X1869Y1083D01*
X0Y1082D02*
X7Y1082D01*
X1862Y1082D02*
X1869Y1082D01*
X0Y1081D02*
X7Y1081D01*
X1862Y1081D02*
X1869Y1081D01*
X0Y1080D02*
X7Y1080D01*
X1862Y1080D02*
X1869Y1080D01*
X0Y1079D02*
X7Y1079D01*
X1862Y1079D02*
X1869Y1079D01*
X0Y1078D02*
X7Y1078D01*
X1862Y1078D02*
X1869Y1078D01*
X0Y1077D02*
X7Y1077D01*
X1862Y1077D02*
X1869Y1077D01*
X0Y1076D02*
X7Y1076D01*
X1862Y1076D02*
X1869Y1076D01*
X0Y1075D02*
X7Y1075D01*
X1862Y1075D02*
X1869Y1075D01*
X0Y1074D02*
X7Y1074D01*
X1862Y1074D02*
X1869Y1074D01*
X0Y1073D02*
X7Y1073D01*
X1862Y1073D02*
X1869Y1073D01*
X0Y1072D02*
X7Y1072D01*
X1862Y1072D02*
X1869Y1072D01*
X0Y1071D02*
X7Y1071D01*
X1862Y1071D02*
X1869Y1071D01*
X0Y1070D02*
X7Y1070D01*
X1862Y1070D02*
X1869Y1070D01*
X0Y1069D02*
X7Y1069D01*
X1862Y1069D02*
X1869Y1069D01*
X0Y1068D02*
X7Y1068D01*
X1862Y1068D02*
X1869Y1068D01*
X0Y1067D02*
X7Y1067D01*
X1862Y1067D02*
X1869Y1067D01*
X0Y1066D02*
X7Y1066D01*
X1862Y1066D02*
X1869Y1066D01*
X0Y1065D02*
X7Y1065D01*
X1862Y1065D02*
X1869Y1065D01*
X0Y1064D02*
X7Y1064D01*
X1862Y1064D02*
X1869Y1064D01*
X0Y1063D02*
X7Y1063D01*
X1862Y1063D02*
X1869Y1063D01*
X0Y1062D02*
X7Y1062D01*
X1862Y1062D02*
X1869Y1062D01*
X0Y1061D02*
X7Y1061D01*
X1862Y1061D02*
X1869Y1061D01*
X0Y1060D02*
X7Y1060D01*
X1862Y1060D02*
X1869Y1060D01*
X0Y1059D02*
X7Y1059D01*
X1862Y1059D02*
X1869Y1059D01*
X0Y1058D02*
X7Y1058D01*
X1862Y1058D02*
X1869Y1058D01*
X0Y1057D02*
X7Y1057D01*
X1862Y1057D02*
X1869Y1057D01*
X0Y1056D02*
X7Y1056D01*
X1862Y1056D02*
X1869Y1056D01*
X0Y1055D02*
X7Y1055D01*
X1862Y1055D02*
X1869Y1055D01*
X0Y1054D02*
X7Y1054D01*
X1862Y1054D02*
X1869Y1054D01*
X0Y1053D02*
X7Y1053D01*
X1862Y1053D02*
X1869Y1053D01*
X0Y1052D02*
X7Y1052D01*
X1862Y1052D02*
X1869Y1052D01*
X0Y1051D02*
X7Y1051D01*
X1862Y1051D02*
X1869Y1051D01*
X0Y1050D02*
X7Y1050D01*
X1862Y1050D02*
X1869Y1050D01*
X0Y1049D02*
X7Y1049D01*
X1862Y1049D02*
X1869Y1049D01*
X0Y1048D02*
X7Y1048D01*
X1862Y1048D02*
X1869Y1048D01*
X0Y1047D02*
X7Y1047D01*
X1862Y1047D02*
X1869Y1047D01*
X0Y1046D02*
X7Y1046D01*
X1862Y1046D02*
X1869Y1046D01*
X0Y1045D02*
X7Y1045D01*
X1862Y1045D02*
X1869Y1045D01*
X0Y1044D02*
X7Y1044D01*
X1862Y1044D02*
X1869Y1044D01*
X0Y1043D02*
X7Y1043D01*
X1862Y1043D02*
X1869Y1043D01*
X0Y1042D02*
X7Y1042D01*
X1862Y1042D02*
X1869Y1042D01*
X0Y1041D02*
X7Y1041D01*
X1862Y1041D02*
X1869Y1041D01*
X0Y1040D02*
X7Y1040D01*
X1862Y1040D02*
X1869Y1040D01*
X0Y1039D02*
X7Y1039D01*
X1862Y1039D02*
X1869Y1039D01*
X0Y1038D02*
X7Y1038D01*
X1862Y1038D02*
X1869Y1038D01*
X0Y1037D02*
X7Y1037D01*
X1862Y1037D02*
X1869Y1037D01*
X0Y1036D02*
X7Y1036D01*
X1862Y1036D02*
X1869Y1036D01*
X0Y1035D02*
X7Y1035D01*
X1862Y1035D02*
X1869Y1035D01*
X0Y1034D02*
X7Y1034D01*
X1862Y1034D02*
X1869Y1034D01*
X0Y1033D02*
X7Y1033D01*
X1862Y1033D02*
X1869Y1033D01*
X0Y1032D02*
X7Y1032D01*
X1862Y1032D02*
X1869Y1032D01*
X0Y1031D02*
X7Y1031D01*
X1862Y1031D02*
X1869Y1031D01*
X0Y1030D02*
X7Y1030D01*
X1862Y1030D02*
X1869Y1030D01*
X0Y1029D02*
X7Y1029D01*
X1862Y1029D02*
X1869Y1029D01*
X0Y1028D02*
X7Y1028D01*
X1862Y1028D02*
X1869Y1028D01*
X0Y1027D02*
X7Y1027D01*
X1862Y1027D02*
X1869Y1027D01*
X0Y1026D02*
X7Y1026D01*
X1862Y1026D02*
X1869Y1026D01*
X0Y1025D02*
X7Y1025D01*
X1862Y1025D02*
X1869Y1025D01*
X0Y1024D02*
X7Y1024D01*
X1862Y1024D02*
X1869Y1024D01*
X0Y1023D02*
X7Y1023D01*
X1862Y1023D02*
X1869Y1023D01*
X0Y1022D02*
X7Y1022D01*
X1862Y1022D02*
X1869Y1022D01*
X0Y1021D02*
X7Y1021D01*
X1862Y1021D02*
X1869Y1021D01*
X0Y1020D02*
X7Y1020D01*
X1862Y1020D02*
X1869Y1020D01*
X0Y1019D02*
X7Y1019D01*
X1862Y1019D02*
X1869Y1019D01*
X0Y1018D02*
X7Y1018D01*
X1862Y1018D02*
X1869Y1018D01*
X0Y1017D02*
X7Y1017D01*
X1862Y1017D02*
X1869Y1017D01*
X0Y1016D02*
X7Y1016D01*
X1862Y1016D02*
X1869Y1016D01*
X0Y1015D02*
X7Y1015D01*
X1862Y1015D02*
X1869Y1015D01*
X0Y1014D02*
X7Y1014D01*
X1862Y1014D02*
X1869Y1014D01*
X0Y1013D02*
X7Y1013D01*
X1862Y1013D02*
X1869Y1013D01*
X0Y1012D02*
X7Y1012D01*
X1862Y1012D02*
X1869Y1012D01*
X0Y1011D02*
X7Y1011D01*
X1862Y1011D02*
X1869Y1011D01*
X0Y1010D02*
X7Y1010D01*
X1862Y1010D02*
X1869Y1010D01*
X0Y1009D02*
X7Y1009D01*
X1862Y1009D02*
X1869Y1009D01*
X0Y1008D02*
X7Y1008D01*
X1862Y1008D02*
X1869Y1008D01*
X0Y1007D02*
X7Y1007D01*
X1862Y1007D02*
X1869Y1007D01*
X0Y1006D02*
X7Y1006D01*
X1862Y1006D02*
X1869Y1006D01*
X0Y1005D02*
X7Y1005D01*
X1862Y1005D02*
X1869Y1005D01*
X0Y1004D02*
X7Y1004D01*
X1862Y1004D02*
X1869Y1004D01*
X0Y1003D02*
X7Y1003D01*
X1862Y1003D02*
X1869Y1003D01*
X0Y1002D02*
X7Y1002D01*
X1862Y1002D02*
X1869Y1002D01*
X0Y1001D02*
X7Y1001D01*
X1862Y1001D02*
X1869Y1001D01*
X0Y1000D02*
X7Y1000D01*
X1862Y1000D02*
X1869Y1000D01*
X0Y999D02*
X7Y999D01*
X1862Y999D02*
X1869Y999D01*
X0Y998D02*
X7Y998D01*
X1862Y998D02*
X1869Y998D01*
X0Y997D02*
X7Y997D01*
X1862Y997D02*
X1869Y997D01*
X0Y996D02*
X7Y996D01*
X1862Y996D02*
X1869Y996D01*
X0Y995D02*
X7Y995D01*
X1862Y995D02*
X1869Y995D01*
X0Y994D02*
X7Y994D01*
X1862Y994D02*
X1869Y994D01*
X0Y993D02*
X7Y993D01*
X1862Y993D02*
X1869Y993D01*
X0Y992D02*
X7Y992D01*
X1862Y992D02*
X1869Y992D01*
X0Y991D02*
X7Y991D01*
X1862Y991D02*
X1869Y991D01*
X0Y990D02*
X7Y990D01*
X1862Y990D02*
X1869Y990D01*
X0Y989D02*
X7Y989D01*
X1862Y989D02*
X1869Y989D01*
X0Y988D02*
X7Y988D01*
X1862Y988D02*
X1869Y988D01*
X0Y987D02*
X7Y987D01*
X1862Y987D02*
X1869Y987D01*
X0Y986D02*
X7Y986D01*
X1862Y986D02*
X1869Y986D01*
X0Y985D02*
X7Y985D01*
X1862Y985D02*
X1869Y985D01*
X0Y984D02*
X7Y984D01*
X1862Y984D02*
X1869Y984D01*
X0Y983D02*
X7Y983D01*
X1862Y983D02*
X1869Y983D01*
X0Y982D02*
X7Y982D01*
X1862Y982D02*
X1869Y982D01*
X0Y981D02*
X7Y981D01*
X1862Y981D02*
X1869Y981D01*
X0Y980D02*
X7Y980D01*
X1862Y980D02*
X1869Y980D01*
X0Y979D02*
X7Y979D01*
X1862Y979D02*
X1869Y979D01*
X0Y978D02*
X7Y978D01*
X1862Y978D02*
X1869Y978D01*
X0Y977D02*
X7Y977D01*
X1862Y977D02*
X1869Y977D01*
X0Y976D02*
X7Y976D01*
X1862Y976D02*
X1869Y976D01*
X0Y975D02*
X7Y975D01*
X1862Y975D02*
X1869Y975D01*
X0Y974D02*
X7Y974D01*
X1862Y974D02*
X1869Y974D01*
X0Y973D02*
X7Y973D01*
X1862Y973D02*
X1869Y973D01*
X0Y972D02*
X7Y972D01*
X1862Y972D02*
X1869Y972D01*
X0Y971D02*
X7Y971D01*
X1862Y971D02*
X1869Y971D01*
X0Y970D02*
X7Y970D01*
X1862Y970D02*
X1869Y970D01*
X0Y969D02*
X7Y969D01*
X1862Y969D02*
X1869Y969D01*
X0Y968D02*
X7Y968D01*
X1862Y968D02*
X1869Y968D01*
X0Y967D02*
X7Y967D01*
X1862Y967D02*
X1869Y967D01*
X0Y966D02*
X7Y966D01*
X1862Y966D02*
X1869Y966D01*
X0Y965D02*
X7Y965D01*
X1862Y965D02*
X1869Y965D01*
X0Y964D02*
X7Y964D01*
X1862Y964D02*
X1869Y964D01*
X0Y963D02*
X7Y963D01*
X1862Y963D02*
X1869Y963D01*
X0Y962D02*
X7Y962D01*
X1862Y962D02*
X1869Y962D01*
X0Y961D02*
X7Y961D01*
X1862Y961D02*
X1869Y961D01*
X0Y960D02*
X7Y960D01*
X1862Y960D02*
X1869Y960D01*
X0Y959D02*
X7Y959D01*
X1862Y959D02*
X1869Y959D01*
X0Y958D02*
X7Y958D01*
X1862Y958D02*
X1869Y958D01*
X0Y957D02*
X7Y957D01*
X1862Y957D02*
X1869Y957D01*
X0Y956D02*
X7Y956D01*
X1862Y956D02*
X1869Y956D01*
X0Y955D02*
X7Y955D01*
X1862Y955D02*
X1869Y955D01*
X0Y954D02*
X7Y954D01*
X1862Y954D02*
X1869Y954D01*
X0Y953D02*
X7Y953D01*
X1862Y953D02*
X1869Y953D01*
X0Y952D02*
X7Y952D01*
X1862Y952D02*
X1869Y952D01*
X0Y951D02*
X7Y951D01*
X1862Y951D02*
X1869Y951D01*
X0Y950D02*
X7Y950D01*
X1862Y950D02*
X1869Y950D01*
X0Y949D02*
X7Y949D01*
X1862Y949D02*
X1869Y949D01*
X0Y948D02*
X7Y948D01*
X1862Y948D02*
X1869Y948D01*
X0Y947D02*
X7Y947D01*
X1862Y947D02*
X1869Y947D01*
X0Y946D02*
X7Y946D01*
X1862Y946D02*
X1869Y946D01*
X0Y945D02*
X7Y945D01*
X1862Y945D02*
X1869Y945D01*
X0Y944D02*
X7Y944D01*
X1862Y944D02*
X1869Y944D01*
X0Y943D02*
X7Y943D01*
X1862Y943D02*
X1869Y943D01*
X0Y942D02*
X7Y942D01*
X1862Y942D02*
X1869Y942D01*
X0Y941D02*
X7Y941D01*
X1862Y941D02*
X1869Y941D01*
X0Y940D02*
X7Y940D01*
X1862Y940D02*
X1869Y940D01*
X0Y939D02*
X7Y939D01*
X1862Y939D02*
X1869Y939D01*
X0Y938D02*
X7Y938D01*
X1862Y938D02*
X1869Y938D01*
X0Y937D02*
X7Y937D01*
X1862Y937D02*
X1869Y937D01*
X0Y936D02*
X7Y936D01*
X1862Y936D02*
X1869Y936D01*
X0Y935D02*
X7Y935D01*
X1862Y935D02*
X1869Y935D01*
X0Y934D02*
X7Y934D01*
X1862Y934D02*
X1869Y934D01*
X0Y933D02*
X7Y933D01*
X1862Y933D02*
X1869Y933D01*
X0Y932D02*
X7Y932D01*
X1862Y932D02*
X1869Y932D01*
X0Y931D02*
X7Y931D01*
X1862Y931D02*
X1869Y931D01*
X0Y930D02*
X7Y930D01*
X1862Y930D02*
X1869Y930D01*
X0Y929D02*
X7Y929D01*
X1862Y929D02*
X1869Y929D01*
X0Y928D02*
X7Y928D01*
X1862Y928D02*
X1869Y928D01*
X0Y927D02*
X7Y927D01*
X1862Y927D02*
X1869Y927D01*
X0Y926D02*
X7Y926D01*
X1862Y926D02*
X1869Y926D01*
X0Y925D02*
X7Y925D01*
X1862Y925D02*
X1869Y925D01*
X0Y924D02*
X7Y924D01*
X1862Y924D02*
X1869Y924D01*
X0Y923D02*
X7Y923D01*
X1862Y923D02*
X1869Y923D01*
X0Y922D02*
X7Y922D01*
X1862Y922D02*
X1869Y922D01*
X0Y921D02*
X7Y921D01*
X1862Y921D02*
X1869Y921D01*
X0Y920D02*
X7Y920D01*
X1862Y920D02*
X1869Y920D01*
X0Y919D02*
X7Y919D01*
X1862Y919D02*
X1869Y919D01*
X0Y918D02*
X7Y918D01*
X1862Y918D02*
X1869Y918D01*
X0Y917D02*
X7Y917D01*
X1862Y917D02*
X1869Y917D01*
X0Y916D02*
X7Y916D01*
X1862Y916D02*
X1869Y916D01*
X0Y915D02*
X7Y915D01*
X1862Y915D02*
X1869Y915D01*
X0Y914D02*
X7Y914D01*
X1862Y914D02*
X1869Y914D01*
X0Y913D02*
X7Y913D01*
X1862Y913D02*
X1869Y913D01*
X0Y912D02*
X7Y912D01*
X1862Y912D02*
X1869Y912D01*
X0Y911D02*
X7Y911D01*
X1862Y911D02*
X1869Y911D01*
X0Y910D02*
X7Y910D01*
X1862Y910D02*
X1869Y910D01*
X0Y909D02*
X7Y909D01*
X1862Y909D02*
X1869Y909D01*
X0Y908D02*
X7Y908D01*
X1862Y908D02*
X1869Y908D01*
X0Y907D02*
X7Y907D01*
X1862Y907D02*
X1869Y907D01*
X0Y906D02*
X7Y906D01*
X1862Y906D02*
X1869Y906D01*
X0Y905D02*
X7Y905D01*
X1862Y905D02*
X1869Y905D01*
X0Y904D02*
X7Y904D01*
X1862Y904D02*
X1869Y904D01*
X0Y903D02*
X7Y903D01*
X1862Y903D02*
X1869Y903D01*
X0Y902D02*
X7Y902D01*
X1862Y902D02*
X1869Y902D01*
X0Y901D02*
X7Y901D01*
X1862Y901D02*
X1869Y901D01*
X0Y900D02*
X7Y900D01*
X1862Y900D02*
X1869Y900D01*
X0Y899D02*
X7Y899D01*
X1862Y899D02*
X1869Y899D01*
X0Y898D02*
X7Y898D01*
X1862Y898D02*
X1869Y898D01*
X0Y897D02*
X7Y897D01*
X1862Y897D02*
X1869Y897D01*
X0Y896D02*
X7Y896D01*
X1862Y896D02*
X1869Y896D01*
X0Y895D02*
X7Y895D01*
X1862Y895D02*
X1869Y895D01*
X0Y894D02*
X7Y894D01*
X1862Y894D02*
X1869Y894D01*
X0Y893D02*
X7Y893D01*
X1862Y893D02*
X1869Y893D01*
X0Y892D02*
X7Y892D01*
X1862Y892D02*
X1869Y892D01*
X0Y891D02*
X7Y891D01*
X1862Y891D02*
X1869Y891D01*
X0Y890D02*
X7Y890D01*
X1862Y890D02*
X1869Y890D01*
X0Y889D02*
X7Y889D01*
X1862Y889D02*
X1869Y889D01*
X0Y888D02*
X7Y888D01*
X1862Y888D02*
X1869Y888D01*
X0Y887D02*
X7Y887D01*
X1862Y887D02*
X1869Y887D01*
X0Y886D02*
X7Y886D01*
X1862Y886D02*
X1869Y886D01*
X0Y885D02*
X7Y885D01*
X1862Y885D02*
X1869Y885D01*
X0Y884D02*
X7Y884D01*
X1862Y884D02*
X1869Y884D01*
X0Y883D02*
X7Y883D01*
X1862Y883D02*
X1869Y883D01*
X0Y882D02*
X7Y882D01*
X1862Y882D02*
X1869Y882D01*
X0Y881D02*
X7Y881D01*
X1862Y881D02*
X1869Y881D01*
X0Y880D02*
X7Y880D01*
X1862Y880D02*
X1869Y880D01*
X0Y879D02*
X7Y879D01*
X1862Y879D02*
X1869Y879D01*
X0Y878D02*
X7Y878D01*
X1862Y878D02*
X1869Y878D01*
X0Y877D02*
X7Y877D01*
X1862Y877D02*
X1869Y877D01*
X0Y876D02*
X7Y876D01*
X1862Y876D02*
X1869Y876D01*
X0Y875D02*
X7Y875D01*
X1862Y875D02*
X1869Y875D01*
X0Y874D02*
X7Y874D01*
X1862Y874D02*
X1869Y874D01*
X0Y873D02*
X7Y873D01*
X1862Y873D02*
X1869Y873D01*
X0Y872D02*
X7Y872D01*
X1862Y872D02*
X1869Y872D01*
X0Y871D02*
X7Y871D01*
X1862Y871D02*
X1869Y871D01*
X0Y870D02*
X7Y870D01*
X1862Y870D02*
X1869Y870D01*
X0Y869D02*
X7Y869D01*
X1862Y869D02*
X1869Y869D01*
X0Y868D02*
X7Y868D01*
X1862Y868D02*
X1869Y868D01*
X0Y867D02*
X7Y867D01*
X1862Y867D02*
X1869Y867D01*
X0Y866D02*
X7Y866D01*
X1862Y866D02*
X1869Y866D01*
X0Y865D02*
X7Y865D01*
X1862Y865D02*
X1869Y865D01*
X0Y864D02*
X7Y864D01*
X1862Y864D02*
X1869Y864D01*
X0Y863D02*
X7Y863D01*
X1862Y863D02*
X1869Y863D01*
X0Y862D02*
X7Y862D01*
X1862Y862D02*
X1869Y862D01*
X0Y861D02*
X7Y861D01*
X1862Y861D02*
X1869Y861D01*
X0Y860D02*
X7Y860D01*
X1862Y860D02*
X1869Y860D01*
X0Y859D02*
X7Y859D01*
X1862Y859D02*
X1869Y859D01*
X0Y858D02*
X7Y858D01*
X1862Y858D02*
X1869Y858D01*
X0Y857D02*
X7Y857D01*
X1862Y857D02*
X1869Y857D01*
X0Y856D02*
X7Y856D01*
X1862Y856D02*
X1869Y856D01*
X0Y855D02*
X7Y855D01*
X1862Y855D02*
X1869Y855D01*
X0Y854D02*
X7Y854D01*
X1862Y854D02*
X1869Y854D01*
X0Y853D02*
X7Y853D01*
X1862Y853D02*
X1869Y853D01*
X0Y852D02*
X7Y852D01*
X1862Y852D02*
X1869Y852D01*
X0Y851D02*
X7Y851D01*
X1862Y851D02*
X1869Y851D01*
X0Y850D02*
X7Y850D01*
X1862Y850D02*
X1869Y850D01*
X0Y849D02*
X7Y849D01*
X1862Y849D02*
X1869Y849D01*
X0Y848D02*
X7Y848D01*
X1862Y848D02*
X1869Y848D01*
X0Y847D02*
X7Y847D01*
X1862Y847D02*
X1869Y847D01*
X0Y846D02*
X7Y846D01*
X1862Y846D02*
X1869Y846D01*
X0Y845D02*
X7Y845D01*
X1862Y845D02*
X1869Y845D01*
X0Y844D02*
X7Y844D01*
X1862Y844D02*
X1869Y844D01*
X0Y843D02*
X7Y843D01*
X1862Y843D02*
X1869Y843D01*
X0Y842D02*
X7Y842D01*
X1862Y842D02*
X1869Y842D01*
X0Y841D02*
X7Y841D01*
X1862Y841D02*
X1869Y841D01*
X0Y840D02*
X7Y840D01*
X1862Y840D02*
X1869Y840D01*
X0Y839D02*
X7Y839D01*
X1862Y839D02*
X1869Y839D01*
X0Y838D02*
X7Y838D01*
X1862Y838D02*
X1869Y838D01*
X0Y837D02*
X7Y837D01*
X1862Y837D02*
X1869Y837D01*
X0Y836D02*
X7Y836D01*
X1862Y836D02*
X1869Y836D01*
X0Y835D02*
X7Y835D01*
X1862Y835D02*
X1869Y835D01*
X0Y834D02*
X7Y834D01*
X1862Y834D02*
X1869Y834D01*
X0Y833D02*
X7Y833D01*
X1862Y833D02*
X1869Y833D01*
X0Y832D02*
X7Y832D01*
X1862Y832D02*
X1869Y832D01*
X0Y831D02*
X7Y831D01*
X1862Y831D02*
X1869Y831D01*
X0Y830D02*
X7Y830D01*
X1862Y830D02*
X1869Y830D01*
X0Y829D02*
X7Y829D01*
X1862Y829D02*
X1869Y829D01*
X0Y828D02*
X7Y828D01*
X1862Y828D02*
X1869Y828D01*
X0Y827D02*
X7Y827D01*
X1862Y827D02*
X1869Y827D01*
X0Y826D02*
X7Y826D01*
X1862Y826D02*
X1869Y826D01*
X0Y825D02*
X7Y825D01*
X1862Y825D02*
X1869Y825D01*
X0Y824D02*
X7Y824D01*
X1862Y824D02*
X1869Y824D01*
X0Y823D02*
X7Y823D01*
X1862Y823D02*
X1869Y823D01*
X0Y822D02*
X7Y822D01*
X1862Y822D02*
X1869Y822D01*
X0Y821D02*
X7Y821D01*
X1862Y821D02*
X1869Y821D01*
X0Y820D02*
X7Y820D01*
X1862Y820D02*
X1869Y820D01*
X0Y819D02*
X7Y819D01*
X1862Y819D02*
X1869Y819D01*
X0Y818D02*
X7Y818D01*
X1862Y818D02*
X1869Y818D01*
X0Y817D02*
X7Y817D01*
X1862Y817D02*
X1869Y817D01*
X0Y816D02*
X7Y816D01*
X1862Y816D02*
X1869Y816D01*
X0Y815D02*
X7Y815D01*
X1862Y815D02*
X1869Y815D01*
X0Y814D02*
X7Y814D01*
X1862Y814D02*
X1869Y814D01*
X0Y813D02*
X7Y813D01*
X1862Y813D02*
X1869Y813D01*
X0Y812D02*
X7Y812D01*
X1862Y812D02*
X1869Y812D01*
X0Y811D02*
X7Y811D01*
X1862Y811D02*
X1869Y811D01*
X0Y810D02*
X7Y810D01*
X1862Y810D02*
X1869Y810D01*
X0Y809D02*
X7Y809D01*
X1862Y809D02*
X1869Y809D01*
X0Y808D02*
X7Y808D01*
X1862Y808D02*
X1869Y808D01*
X0Y807D02*
X7Y807D01*
X1862Y807D02*
X1869Y807D01*
X0Y806D02*
X7Y806D01*
X1862Y806D02*
X1869Y806D01*
X0Y805D02*
X7Y805D01*
X1862Y805D02*
X1869Y805D01*
X0Y804D02*
X7Y804D01*
X1862Y804D02*
X1869Y804D01*
X0Y803D02*
X7Y803D01*
X1862Y803D02*
X1869Y803D01*
X0Y802D02*
X7Y802D01*
X1862Y802D02*
X1869Y802D01*
X0Y801D02*
X7Y801D01*
X1862Y801D02*
X1869Y801D01*
X0Y800D02*
X7Y800D01*
X1862Y800D02*
X1869Y800D01*
X0Y799D02*
X7Y799D01*
X1862Y799D02*
X1869Y799D01*
X0Y798D02*
X7Y798D01*
X1862Y798D02*
X1869Y798D01*
X0Y797D02*
X7Y797D01*
X1862Y797D02*
X1869Y797D01*
X0Y796D02*
X7Y796D01*
X1862Y796D02*
X1869Y796D01*
X0Y795D02*
X7Y795D01*
X1862Y795D02*
X1869Y795D01*
X0Y794D02*
X7Y794D01*
X1862Y794D02*
X1869Y794D01*
X0Y793D02*
X7Y793D01*
X1862Y793D02*
X1869Y793D01*
X0Y792D02*
X7Y792D01*
X1862Y792D02*
X1869Y792D01*
X0Y791D02*
X7Y791D01*
X1862Y791D02*
X1869Y791D01*
X0Y790D02*
X7Y790D01*
X1862Y790D02*
X1869Y790D01*
X0Y789D02*
X7Y789D01*
X1862Y789D02*
X1869Y789D01*
X0Y788D02*
X7Y788D01*
X1862Y788D02*
X1869Y788D01*
X0Y787D02*
X7Y787D01*
X1862Y787D02*
X1869Y787D01*
X0Y786D02*
X7Y786D01*
X1862Y786D02*
X1869Y786D01*
X0Y785D02*
X7Y785D01*
X1862Y785D02*
X1869Y785D01*
X0Y784D02*
X7Y784D01*
X1862Y784D02*
X1869Y784D01*
X0Y783D02*
X7Y783D01*
X1862Y783D02*
X1869Y783D01*
X0Y782D02*
X7Y782D01*
X1862Y782D02*
X1869Y782D01*
X0Y781D02*
X7Y781D01*
X1862Y781D02*
X1869Y781D01*
X0Y780D02*
X7Y780D01*
X1862Y780D02*
X1869Y780D01*
X0Y779D02*
X7Y779D01*
X1862Y779D02*
X1869Y779D01*
X0Y778D02*
X7Y778D01*
X1862Y778D02*
X1869Y778D01*
X0Y777D02*
X7Y777D01*
X1862Y777D02*
X1869Y777D01*
X0Y776D02*
X7Y776D01*
X1862Y776D02*
X1869Y776D01*
X0Y775D02*
X7Y775D01*
X1862Y775D02*
X1869Y775D01*
X0Y774D02*
X7Y774D01*
X1862Y774D02*
X1869Y774D01*
X0Y773D02*
X7Y773D01*
X1862Y773D02*
X1869Y773D01*
X0Y772D02*
X7Y772D01*
X1862Y772D02*
X1869Y772D01*
X0Y771D02*
X7Y771D01*
X1862Y771D02*
X1869Y771D01*
X0Y770D02*
X7Y770D01*
X1862Y770D02*
X1869Y770D01*
X0Y769D02*
X7Y769D01*
X1862Y769D02*
X1869Y769D01*
X0Y768D02*
X7Y768D01*
X1862Y768D02*
X1869Y768D01*
X0Y767D02*
X7Y767D01*
X1862Y767D02*
X1869Y767D01*
X0Y766D02*
X7Y766D01*
X1862Y766D02*
X1869Y766D01*
X0Y765D02*
X7Y765D01*
X1862Y765D02*
X1869Y765D01*
X0Y764D02*
X7Y764D01*
X1862Y764D02*
X1869Y764D01*
X0Y763D02*
X7Y763D01*
X1862Y763D02*
X1869Y763D01*
X0Y762D02*
X7Y762D01*
X1862Y762D02*
X1869Y762D01*
X0Y761D02*
X7Y761D01*
X1862Y761D02*
X1869Y761D01*
X0Y760D02*
X7Y760D01*
X1862Y760D02*
X1869Y760D01*
X0Y759D02*
X7Y759D01*
X1862Y759D02*
X1869Y759D01*
X0Y758D02*
X7Y758D01*
X1862Y758D02*
X1869Y758D01*
X0Y757D02*
X7Y757D01*
X1862Y757D02*
X1869Y757D01*
X0Y756D02*
X7Y756D01*
X1862Y756D02*
X1869Y756D01*
X0Y755D02*
X7Y755D01*
X1862Y755D02*
X1869Y755D01*
X0Y754D02*
X7Y754D01*
X1862Y754D02*
X1869Y754D01*
X0Y753D02*
X7Y753D01*
X1862Y753D02*
X1869Y753D01*
X0Y752D02*
X7Y752D01*
X1862Y752D02*
X1869Y752D01*
X0Y751D02*
X7Y751D01*
X1862Y751D02*
X1869Y751D01*
X0Y750D02*
X7Y750D01*
X1862Y750D02*
X1869Y750D01*
X0Y749D02*
X7Y749D01*
X1862Y749D02*
X1869Y749D01*
X0Y748D02*
X7Y748D01*
X1862Y748D02*
X1869Y748D01*
X0Y747D02*
X7Y747D01*
X1862Y747D02*
X1869Y747D01*
X0Y746D02*
X7Y746D01*
X1862Y746D02*
X1869Y746D01*
X0Y745D02*
X7Y745D01*
X1862Y745D02*
X1869Y745D01*
X0Y744D02*
X7Y744D01*
X1862Y744D02*
X1869Y744D01*
X0Y743D02*
X7Y743D01*
X1862Y743D02*
X1869Y743D01*
X0Y742D02*
X7Y742D01*
X1862Y742D02*
X1869Y742D01*
X0Y741D02*
X7Y741D01*
X1862Y741D02*
X1869Y741D01*
X0Y740D02*
X7Y740D01*
X1862Y740D02*
X1869Y740D01*
X0Y739D02*
X7Y739D01*
X1862Y739D02*
X1869Y739D01*
X0Y738D02*
X7Y738D01*
X1862Y738D02*
X1869Y738D01*
X0Y737D02*
X7Y737D01*
X1862Y737D02*
X1869Y737D01*
X0Y736D02*
X7Y736D01*
X1862Y736D02*
X1869Y736D01*
X0Y735D02*
X7Y735D01*
X1862Y735D02*
X1869Y735D01*
X0Y734D02*
X7Y734D01*
X1862Y734D02*
X1869Y734D01*
X0Y733D02*
X7Y733D01*
X1862Y733D02*
X1869Y733D01*
X0Y732D02*
X7Y732D01*
X1862Y732D02*
X1869Y732D01*
X0Y731D02*
X7Y731D01*
X1862Y731D02*
X1869Y731D01*
X0Y730D02*
X7Y730D01*
X1862Y730D02*
X1869Y730D01*
X0Y729D02*
X7Y729D01*
X1862Y729D02*
X1869Y729D01*
X0Y728D02*
X7Y728D01*
X1862Y728D02*
X1869Y728D01*
X0Y727D02*
X7Y727D01*
X1862Y727D02*
X1869Y727D01*
X0Y726D02*
X7Y726D01*
X1862Y726D02*
X1869Y726D01*
X0Y725D02*
X7Y725D01*
X1862Y725D02*
X1869Y725D01*
X0Y724D02*
X7Y724D01*
X1862Y724D02*
X1869Y724D01*
X0Y723D02*
X7Y723D01*
X1862Y723D02*
X1869Y723D01*
X0Y722D02*
X7Y722D01*
X1862Y722D02*
X1869Y722D01*
X0Y721D02*
X7Y721D01*
X1862Y721D02*
X1869Y721D01*
X0Y720D02*
X7Y720D01*
X1862Y720D02*
X1869Y720D01*
X0Y719D02*
X7Y719D01*
X1862Y719D02*
X1869Y719D01*
X0Y718D02*
X7Y718D01*
X1862Y718D02*
X1869Y718D01*
X0Y717D02*
X7Y717D01*
X1862Y717D02*
X1869Y717D01*
X0Y716D02*
X7Y716D01*
X1862Y716D02*
X1869Y716D01*
X0Y715D02*
X7Y715D01*
X1862Y715D02*
X1869Y715D01*
X0Y714D02*
X7Y714D01*
X1862Y714D02*
X1869Y714D01*
X0Y713D02*
X7Y713D01*
X1862Y713D02*
X1869Y713D01*
X0Y712D02*
X7Y712D01*
X1862Y712D02*
X1869Y712D01*
X0Y711D02*
X7Y711D01*
X1862Y711D02*
X1869Y711D01*
X0Y710D02*
X7Y710D01*
X1862Y710D02*
X1869Y710D01*
X0Y709D02*
X7Y709D01*
X1862Y709D02*
X1869Y709D01*
X0Y708D02*
X7Y708D01*
X1862Y708D02*
X1869Y708D01*
X0Y707D02*
X7Y707D01*
X1862Y707D02*
X1869Y707D01*
X0Y706D02*
X7Y706D01*
X1862Y706D02*
X1869Y706D01*
X0Y705D02*
X7Y705D01*
X1862Y705D02*
X1869Y705D01*
X0Y704D02*
X7Y704D01*
X1862Y704D02*
X1869Y704D01*
X0Y703D02*
X7Y703D01*
X1862Y703D02*
X1869Y703D01*
X0Y702D02*
X7Y702D01*
X1862Y702D02*
X1869Y702D01*
X0Y701D02*
X7Y701D01*
X1862Y701D02*
X1869Y701D01*
X0Y700D02*
X7Y700D01*
X1862Y700D02*
X1869Y700D01*
X0Y699D02*
X7Y699D01*
X1862Y699D02*
X1869Y699D01*
X0Y698D02*
X7Y698D01*
X1862Y698D02*
X1869Y698D01*
X0Y697D02*
X7Y697D01*
X1862Y697D02*
X1869Y697D01*
X0Y696D02*
X7Y696D01*
X1862Y696D02*
X1869Y696D01*
X0Y695D02*
X7Y695D01*
X1862Y695D02*
X1869Y695D01*
X0Y694D02*
X7Y694D01*
X1862Y694D02*
X1869Y694D01*
X0Y693D02*
X7Y693D01*
X1862Y693D02*
X1869Y693D01*
X0Y692D02*
X7Y692D01*
X1862Y692D02*
X1869Y692D01*
X0Y691D02*
X7Y691D01*
X1862Y691D02*
X1869Y691D01*
X0Y690D02*
X7Y690D01*
X1862Y690D02*
X1869Y690D01*
X0Y689D02*
X7Y689D01*
X1862Y689D02*
X1869Y689D01*
X0Y688D02*
X7Y688D01*
X1862Y688D02*
X1869Y688D01*
X0Y687D02*
X7Y687D01*
X1862Y687D02*
X1869Y687D01*
X0Y686D02*
X7Y686D01*
X1862Y686D02*
X1869Y686D01*
X0Y685D02*
X7Y685D01*
X1862Y685D02*
X1869Y685D01*
X0Y684D02*
X7Y684D01*
X1862Y684D02*
X1869Y684D01*
X0Y683D02*
X7Y683D01*
X1862Y683D02*
X1869Y683D01*
X0Y682D02*
X7Y682D01*
X1862Y682D02*
X1869Y682D01*
X0Y681D02*
X7Y681D01*
X1862Y681D02*
X1869Y681D01*
X0Y680D02*
X7Y680D01*
X1862Y680D02*
X1869Y680D01*
X0Y679D02*
X7Y679D01*
X1862Y679D02*
X1869Y679D01*
X0Y678D02*
X7Y678D01*
X1862Y678D02*
X1869Y678D01*
X0Y677D02*
X7Y677D01*
X1862Y677D02*
X1869Y677D01*
X0Y676D02*
X7Y676D01*
X1862Y676D02*
X1869Y676D01*
X0Y675D02*
X7Y675D01*
X1862Y675D02*
X1869Y675D01*
X0Y674D02*
X7Y674D01*
X1862Y674D02*
X1869Y674D01*
X0Y673D02*
X7Y673D01*
X1862Y673D02*
X1869Y673D01*
X0Y672D02*
X7Y672D01*
X1862Y672D02*
X1869Y672D01*
X0Y671D02*
X7Y671D01*
X1862Y671D02*
X1869Y671D01*
X0Y670D02*
X7Y670D01*
X1862Y670D02*
X1869Y670D01*
X0Y669D02*
X7Y669D01*
X1862Y669D02*
X1869Y669D01*
X0Y668D02*
X7Y668D01*
X1862Y668D02*
X1869Y668D01*
X0Y667D02*
X7Y667D01*
X1862Y667D02*
X1869Y667D01*
X0Y666D02*
X7Y666D01*
X1862Y666D02*
X1869Y666D01*
X0Y665D02*
X7Y665D01*
X1862Y665D02*
X1869Y665D01*
X0Y664D02*
X7Y664D01*
X1862Y664D02*
X1869Y664D01*
X0Y663D02*
X7Y663D01*
X1862Y663D02*
X1869Y663D01*
X0Y662D02*
X7Y662D01*
X1862Y662D02*
X1869Y662D01*
X0Y661D02*
X7Y661D01*
X1862Y661D02*
X1869Y661D01*
X0Y660D02*
X7Y660D01*
X1862Y660D02*
X1869Y660D01*
X0Y659D02*
X7Y659D01*
X1862Y659D02*
X1869Y659D01*
X0Y658D02*
X7Y658D01*
X1862Y658D02*
X1869Y658D01*
X0Y657D02*
X7Y657D01*
X1862Y657D02*
X1869Y657D01*
X0Y656D02*
X7Y656D01*
X1862Y656D02*
X1869Y656D01*
X0Y655D02*
X7Y655D01*
X1862Y655D02*
X1869Y655D01*
X0Y654D02*
X7Y654D01*
X1862Y654D02*
X1869Y654D01*
X0Y653D02*
X7Y653D01*
X1862Y653D02*
X1869Y653D01*
X0Y652D02*
X7Y652D01*
X1862Y652D02*
X1869Y652D01*
X0Y651D02*
X7Y651D01*
X1862Y651D02*
X1869Y651D01*
X0Y650D02*
X7Y650D01*
X1862Y650D02*
X1869Y650D01*
X0Y649D02*
X7Y649D01*
X1862Y649D02*
X1869Y649D01*
X0Y648D02*
X7Y648D01*
X1862Y648D02*
X1869Y648D01*
X0Y647D02*
X7Y647D01*
X1862Y647D02*
X1869Y647D01*
X0Y646D02*
X7Y646D01*
X1862Y646D02*
X1869Y646D01*
X0Y645D02*
X7Y645D01*
X1862Y645D02*
X1869Y645D01*
X0Y644D02*
X7Y644D01*
X1862Y644D02*
X1869Y644D01*
X0Y643D02*
X7Y643D01*
X1862Y643D02*
X1869Y643D01*
X0Y642D02*
X7Y642D01*
X1862Y642D02*
X1869Y642D01*
X0Y641D02*
X7Y641D01*
X1862Y641D02*
X1869Y641D01*
X0Y640D02*
X7Y640D01*
X1862Y640D02*
X1869Y640D01*
X0Y639D02*
X7Y639D01*
X1862Y639D02*
X1869Y639D01*
X0Y638D02*
X7Y638D01*
X1862Y638D02*
X1869Y638D01*
X0Y637D02*
X7Y637D01*
X1862Y637D02*
X1869Y637D01*
X0Y636D02*
X7Y636D01*
X1862Y636D02*
X1869Y636D01*
X0Y635D02*
X7Y635D01*
X1862Y635D02*
X1869Y635D01*
X0Y634D02*
X7Y634D01*
X1862Y634D02*
X1869Y634D01*
X0Y633D02*
X7Y633D01*
X1862Y633D02*
X1869Y633D01*
X0Y632D02*
X7Y632D01*
X1862Y632D02*
X1869Y632D01*
X0Y631D02*
X7Y631D01*
X1862Y631D02*
X1869Y631D01*
X0Y630D02*
X7Y630D01*
X1862Y630D02*
X1869Y630D01*
X0Y629D02*
X7Y629D01*
X1862Y629D02*
X1869Y629D01*
X0Y628D02*
X7Y628D01*
X1862Y628D02*
X1869Y628D01*
X0Y627D02*
X7Y627D01*
X1862Y627D02*
X1869Y627D01*
X0Y626D02*
X7Y626D01*
X1862Y626D02*
X1869Y626D01*
X0Y625D02*
X7Y625D01*
X1862Y625D02*
X1869Y625D01*
X0Y624D02*
X7Y624D01*
X1862Y624D02*
X1869Y624D01*
X0Y623D02*
X7Y623D01*
X1862Y623D02*
X1869Y623D01*
X0Y622D02*
X7Y622D01*
X1862Y622D02*
X1869Y622D01*
X0Y621D02*
X7Y621D01*
X1862Y621D02*
X1869Y621D01*
X0Y620D02*
X7Y620D01*
X1862Y620D02*
X1869Y620D01*
X0Y619D02*
X7Y619D01*
X1862Y619D02*
X1869Y619D01*
X0Y618D02*
X7Y618D01*
X1862Y618D02*
X1869Y618D01*
X0Y617D02*
X7Y617D01*
X1862Y617D02*
X1869Y617D01*
X0Y616D02*
X7Y616D01*
X1862Y616D02*
X1869Y616D01*
X0Y615D02*
X7Y615D01*
X1862Y615D02*
X1869Y615D01*
X0Y614D02*
X7Y614D01*
X1862Y614D02*
X1869Y614D01*
X0Y613D02*
X7Y613D01*
X1862Y613D02*
X1869Y613D01*
X0Y612D02*
X7Y612D01*
X1862Y612D02*
X1869Y612D01*
X0Y611D02*
X7Y611D01*
X1862Y611D02*
X1869Y611D01*
X0Y610D02*
X7Y610D01*
X1862Y610D02*
X1869Y610D01*
X0Y609D02*
X7Y609D01*
X1862Y609D02*
X1869Y609D01*
X0Y608D02*
X7Y608D01*
X1862Y608D02*
X1869Y608D01*
X0Y607D02*
X7Y607D01*
X1862Y607D02*
X1869Y607D01*
X0Y606D02*
X7Y606D01*
X1862Y606D02*
X1869Y606D01*
X0Y605D02*
X7Y605D01*
X1862Y605D02*
X1869Y605D01*
X0Y604D02*
X7Y604D01*
X1862Y604D02*
X1869Y604D01*
X0Y603D02*
X7Y603D01*
X1862Y603D02*
X1869Y603D01*
X0Y602D02*
X7Y602D01*
X1862Y602D02*
X1869Y602D01*
X0Y601D02*
X7Y601D01*
X1862Y601D02*
X1869Y601D01*
X0Y600D02*
X7Y600D01*
X1862Y600D02*
X1869Y600D01*
X0Y599D02*
X7Y599D01*
X1862Y599D02*
X1869Y599D01*
X0Y598D02*
X7Y598D01*
X1862Y598D02*
X1869Y598D01*
X0Y597D02*
X7Y597D01*
X1862Y597D02*
X1869Y597D01*
X0Y596D02*
X7Y596D01*
X1862Y596D02*
X1869Y596D01*
X0Y595D02*
X7Y595D01*
X1862Y595D02*
X1869Y595D01*
X0Y594D02*
X7Y594D01*
X1862Y594D02*
X1869Y594D01*
X0Y593D02*
X7Y593D01*
X1862Y593D02*
X1869Y593D01*
X0Y592D02*
X7Y592D01*
X1862Y592D02*
X1869Y592D01*
X0Y591D02*
X7Y591D01*
X1862Y591D02*
X1869Y591D01*
X0Y590D02*
X7Y590D01*
X1862Y590D02*
X1869Y590D01*
X0Y589D02*
X7Y589D01*
X1862Y589D02*
X1869Y589D01*
X0Y588D02*
X7Y588D01*
X1862Y588D02*
X1869Y588D01*
X0Y587D02*
X7Y587D01*
X1862Y587D02*
X1869Y587D01*
X0Y586D02*
X7Y586D01*
X1862Y586D02*
X1869Y586D01*
X0Y585D02*
X7Y585D01*
X1862Y585D02*
X1869Y585D01*
X0Y584D02*
X7Y584D01*
X1862Y584D02*
X1869Y584D01*
X0Y583D02*
X7Y583D01*
X1862Y583D02*
X1869Y583D01*
X0Y582D02*
X7Y582D01*
X1862Y582D02*
X1869Y582D01*
X0Y581D02*
X7Y581D01*
X1862Y581D02*
X1869Y581D01*
X0Y580D02*
X7Y580D01*
X1862Y580D02*
X1869Y580D01*
X0Y579D02*
X7Y579D01*
X1862Y579D02*
X1869Y579D01*
X0Y578D02*
X7Y578D01*
X1862Y578D02*
X1869Y578D01*
X0Y577D02*
X7Y577D01*
X1862Y577D02*
X1869Y577D01*
X0Y576D02*
X7Y576D01*
X1862Y576D02*
X1869Y576D01*
X0Y575D02*
X7Y575D01*
X1862Y575D02*
X1869Y575D01*
X0Y574D02*
X7Y574D01*
X1862Y574D02*
X1869Y574D01*
X0Y573D02*
X7Y573D01*
X1862Y573D02*
X1869Y573D01*
X0Y572D02*
X7Y572D01*
X1862Y572D02*
X1869Y572D01*
X0Y571D02*
X7Y571D01*
X1862Y571D02*
X1869Y571D01*
X0Y570D02*
X7Y570D01*
X1862Y570D02*
X1869Y570D01*
X0Y569D02*
X7Y569D01*
X1862Y569D02*
X1869Y569D01*
X0Y568D02*
X7Y568D01*
X1862Y568D02*
X1869Y568D01*
X0Y567D02*
X7Y567D01*
X1862Y567D02*
X1869Y567D01*
X0Y566D02*
X7Y566D01*
X1862Y566D02*
X1869Y566D01*
X0Y565D02*
X7Y565D01*
X1862Y565D02*
X1869Y565D01*
X0Y564D02*
X7Y564D01*
X1862Y564D02*
X1869Y564D01*
X0Y563D02*
X7Y563D01*
X1862Y563D02*
X1869Y563D01*
X0Y562D02*
X7Y562D01*
X1862Y562D02*
X1869Y562D01*
X0Y561D02*
X7Y561D01*
X1862Y561D02*
X1869Y561D01*
X0Y560D02*
X7Y560D01*
X1862Y560D02*
X1869Y560D01*
X0Y559D02*
X7Y559D01*
X1862Y559D02*
X1869Y559D01*
X0Y558D02*
X7Y558D01*
X1862Y558D02*
X1869Y558D01*
X0Y557D02*
X7Y557D01*
X1862Y557D02*
X1869Y557D01*
X0Y556D02*
X7Y556D01*
X1862Y556D02*
X1869Y556D01*
X0Y555D02*
X7Y555D01*
X1862Y555D02*
X1869Y555D01*
X0Y554D02*
X7Y554D01*
X1862Y554D02*
X1869Y554D01*
X0Y553D02*
X7Y553D01*
X1862Y553D02*
X1869Y553D01*
X0Y552D02*
X7Y552D01*
X1862Y552D02*
X1869Y552D01*
X0Y551D02*
X7Y551D01*
X1862Y551D02*
X1869Y551D01*
X0Y550D02*
X7Y550D01*
X1862Y550D02*
X1869Y550D01*
X0Y549D02*
X7Y549D01*
X1862Y549D02*
X1869Y549D01*
X0Y548D02*
X7Y548D01*
X1862Y548D02*
X1869Y548D01*
X0Y547D02*
X7Y547D01*
X1862Y547D02*
X1869Y547D01*
X0Y546D02*
X7Y546D01*
X1862Y546D02*
X1869Y546D01*
X0Y545D02*
X7Y545D01*
X1862Y545D02*
X1869Y545D01*
X0Y544D02*
X7Y544D01*
X1862Y544D02*
X1869Y544D01*
X0Y543D02*
X7Y543D01*
X1862Y543D02*
X1869Y543D01*
X0Y542D02*
X7Y542D01*
X1862Y542D02*
X1869Y542D01*
X0Y541D02*
X7Y541D01*
X1862Y541D02*
X1869Y541D01*
X0Y540D02*
X7Y540D01*
X1862Y540D02*
X1869Y540D01*
X0Y539D02*
X7Y539D01*
X1862Y539D02*
X1869Y539D01*
X0Y538D02*
X7Y538D01*
X1862Y538D02*
X1869Y538D01*
X0Y537D02*
X7Y537D01*
X1862Y537D02*
X1869Y537D01*
X0Y536D02*
X7Y536D01*
X1862Y536D02*
X1869Y536D01*
X0Y535D02*
X7Y535D01*
X1862Y535D02*
X1869Y535D01*
X0Y534D02*
X7Y534D01*
X1862Y534D02*
X1869Y534D01*
X0Y533D02*
X7Y533D01*
X1862Y533D02*
X1869Y533D01*
X0Y532D02*
X7Y532D01*
X1862Y532D02*
X1869Y532D01*
X0Y531D02*
X7Y531D01*
X1862Y531D02*
X1869Y531D01*
X0Y530D02*
X7Y530D01*
X1862Y530D02*
X1869Y530D01*
X0Y529D02*
X7Y529D01*
X1862Y529D02*
X1869Y529D01*
X0Y528D02*
X7Y528D01*
X1862Y528D02*
X1869Y528D01*
X0Y527D02*
X7Y527D01*
X1862Y527D02*
X1869Y527D01*
X0Y526D02*
X7Y526D01*
X1862Y526D02*
X1869Y526D01*
X0Y525D02*
X7Y525D01*
X1862Y525D02*
X1869Y525D01*
X0Y524D02*
X7Y524D01*
X1862Y524D02*
X1869Y524D01*
X0Y523D02*
X7Y523D01*
X1862Y523D02*
X1869Y523D01*
X0Y522D02*
X7Y522D01*
X1862Y522D02*
X1869Y522D01*
X0Y521D02*
X7Y521D01*
X1862Y521D02*
X1869Y521D01*
X0Y520D02*
X7Y520D01*
X1862Y520D02*
X1869Y520D01*
X0Y519D02*
X7Y519D01*
X1862Y519D02*
X1869Y519D01*
X0Y518D02*
X7Y518D01*
X1862Y518D02*
X1869Y518D01*
X0Y517D02*
X7Y517D01*
X1862Y517D02*
X1869Y517D01*
X0Y516D02*
X7Y516D01*
X1862Y516D02*
X1869Y516D01*
X0Y515D02*
X7Y515D01*
X1862Y515D02*
X1869Y515D01*
X0Y514D02*
X7Y514D01*
X1862Y514D02*
X1869Y514D01*
X0Y513D02*
X7Y513D01*
X1862Y513D02*
X1869Y513D01*
X0Y512D02*
X7Y512D01*
X1862Y512D02*
X1869Y512D01*
X0Y511D02*
X7Y511D01*
X1862Y511D02*
X1869Y511D01*
X0Y510D02*
X7Y510D01*
X1862Y510D02*
X1869Y510D01*
X0Y509D02*
X7Y509D01*
X1862Y509D02*
X1869Y509D01*
X0Y508D02*
X7Y508D01*
X1862Y508D02*
X1869Y508D01*
X0Y507D02*
X7Y507D01*
X1862Y507D02*
X1869Y507D01*
X0Y506D02*
X7Y506D01*
X1862Y506D02*
X1869Y506D01*
X0Y505D02*
X7Y505D01*
X1862Y505D02*
X1869Y505D01*
X0Y504D02*
X7Y504D01*
X1862Y504D02*
X1869Y504D01*
X0Y503D02*
X7Y503D01*
X1862Y503D02*
X1869Y503D01*
X0Y502D02*
X7Y502D01*
X1862Y502D02*
X1869Y502D01*
X0Y501D02*
X7Y501D01*
X1862Y501D02*
X1869Y501D01*
X0Y500D02*
X7Y500D01*
X1862Y500D02*
X1869Y500D01*
X0Y499D02*
X7Y499D01*
X1862Y499D02*
X1869Y499D01*
X0Y498D02*
X7Y498D01*
X1862Y498D02*
X1869Y498D01*
X0Y497D02*
X7Y497D01*
X1862Y497D02*
X1869Y497D01*
X0Y496D02*
X7Y496D01*
X1862Y496D02*
X1869Y496D01*
X0Y495D02*
X7Y495D01*
X1862Y495D02*
X1869Y495D01*
X0Y494D02*
X7Y494D01*
X1862Y494D02*
X1869Y494D01*
X0Y493D02*
X7Y493D01*
X1862Y493D02*
X1869Y493D01*
X0Y492D02*
X7Y492D01*
X1862Y492D02*
X1869Y492D01*
X0Y491D02*
X7Y491D01*
X1862Y491D02*
X1869Y491D01*
X0Y490D02*
X7Y490D01*
X1862Y490D02*
X1869Y490D01*
X0Y489D02*
X7Y489D01*
X1862Y489D02*
X1869Y489D01*
X0Y488D02*
X7Y488D01*
X1862Y488D02*
X1869Y488D01*
X0Y487D02*
X7Y487D01*
X1862Y487D02*
X1869Y487D01*
X0Y486D02*
X7Y486D01*
X1862Y486D02*
X1869Y486D01*
X0Y485D02*
X7Y485D01*
X1862Y485D02*
X1869Y485D01*
X0Y484D02*
X7Y484D01*
X1862Y484D02*
X1869Y484D01*
X0Y483D02*
X7Y483D01*
X1862Y483D02*
X1869Y483D01*
X0Y482D02*
X7Y482D01*
X1862Y482D02*
X1869Y482D01*
X0Y481D02*
X7Y481D01*
X1862Y481D02*
X1869Y481D01*
X0Y480D02*
X7Y480D01*
X1862Y480D02*
X1869Y480D01*
X0Y479D02*
X7Y479D01*
X1862Y479D02*
X1869Y479D01*
X0Y478D02*
X7Y478D01*
X1862Y478D02*
X1869Y478D01*
X0Y477D02*
X7Y477D01*
X1862Y477D02*
X1869Y477D01*
X0Y476D02*
X7Y476D01*
X1862Y476D02*
X1869Y476D01*
X0Y475D02*
X7Y475D01*
X1862Y475D02*
X1869Y475D01*
X0Y474D02*
X7Y474D01*
X1862Y474D02*
X1869Y474D01*
X0Y473D02*
X7Y473D01*
X1862Y473D02*
X1869Y473D01*
X0Y472D02*
X7Y472D01*
X1862Y472D02*
X1869Y472D01*
X0Y471D02*
X7Y471D01*
X1862Y471D02*
X1869Y471D01*
X0Y470D02*
X7Y470D01*
X1862Y470D02*
X1869Y470D01*
X0Y469D02*
X7Y469D01*
X1862Y469D02*
X1869Y469D01*
X0Y468D02*
X7Y468D01*
X1862Y468D02*
X1869Y468D01*
X0Y467D02*
X7Y467D01*
X1862Y467D02*
X1869Y467D01*
X0Y466D02*
X7Y466D01*
X1862Y466D02*
X1869Y466D01*
X0Y465D02*
X7Y465D01*
X1862Y465D02*
X1869Y465D01*
X0Y464D02*
X7Y464D01*
X1862Y464D02*
X1869Y464D01*
X0Y463D02*
X7Y463D01*
X1862Y463D02*
X1869Y463D01*
X0Y462D02*
X7Y462D01*
X1862Y462D02*
X1869Y462D01*
X0Y461D02*
X7Y461D01*
X1862Y461D02*
X1869Y461D01*
X0Y460D02*
X7Y460D01*
X1862Y460D02*
X1869Y460D01*
X0Y459D02*
X7Y459D01*
X1862Y459D02*
X1869Y459D01*
X0Y458D02*
X7Y458D01*
X1862Y458D02*
X1869Y458D01*
X0Y457D02*
X7Y457D01*
X1862Y457D02*
X1869Y457D01*
X0Y456D02*
X7Y456D01*
X1862Y456D02*
X1869Y456D01*
X0Y455D02*
X7Y455D01*
X1862Y455D02*
X1869Y455D01*
X0Y454D02*
X7Y454D01*
X1862Y454D02*
X1869Y454D01*
X0Y453D02*
X7Y453D01*
X1862Y453D02*
X1869Y453D01*
X0Y452D02*
X7Y452D01*
X1862Y452D02*
X1869Y452D01*
X0Y451D02*
X7Y451D01*
X1862Y451D02*
X1869Y451D01*
X0Y450D02*
X7Y450D01*
X1862Y450D02*
X1869Y450D01*
X0Y449D02*
X7Y449D01*
X1862Y449D02*
X1869Y449D01*
X0Y448D02*
X7Y448D01*
X1862Y448D02*
X1869Y448D01*
X0Y447D02*
X7Y447D01*
X1862Y447D02*
X1869Y447D01*
X0Y446D02*
X7Y446D01*
X1862Y446D02*
X1869Y446D01*
X0Y445D02*
X7Y445D01*
X1862Y445D02*
X1869Y445D01*
X0Y444D02*
X7Y444D01*
X1862Y444D02*
X1869Y444D01*
X0Y443D02*
X7Y443D01*
X1862Y443D02*
X1869Y443D01*
X0Y442D02*
X7Y442D01*
X1862Y442D02*
X1869Y442D01*
X0Y441D02*
X7Y441D01*
X1862Y441D02*
X1869Y441D01*
X0Y440D02*
X7Y440D01*
X1862Y440D02*
X1869Y440D01*
X0Y439D02*
X7Y439D01*
X1862Y439D02*
X1869Y439D01*
X0Y438D02*
X7Y438D01*
X1862Y438D02*
X1869Y438D01*
X0Y437D02*
X7Y437D01*
X1862Y437D02*
X1869Y437D01*
X0Y436D02*
X7Y436D01*
X1862Y436D02*
X1869Y436D01*
X0Y435D02*
X7Y435D01*
X1862Y435D02*
X1869Y435D01*
X0Y434D02*
X7Y434D01*
X1862Y434D02*
X1869Y434D01*
X0Y433D02*
X7Y433D01*
X1862Y433D02*
X1869Y433D01*
X0Y432D02*
X7Y432D01*
X1862Y432D02*
X1869Y432D01*
X0Y431D02*
X7Y431D01*
X1862Y431D02*
X1869Y431D01*
X0Y430D02*
X7Y430D01*
X1862Y430D02*
X1869Y430D01*
X0Y429D02*
X7Y429D01*
X1862Y429D02*
X1869Y429D01*
X0Y428D02*
X7Y428D01*
X1862Y428D02*
X1869Y428D01*
X0Y427D02*
X7Y427D01*
X1862Y427D02*
X1869Y427D01*
X0Y426D02*
X7Y426D01*
X1862Y426D02*
X1869Y426D01*
X0Y425D02*
X7Y425D01*
X1862Y425D02*
X1869Y425D01*
X0Y424D02*
X7Y424D01*
X1862Y424D02*
X1869Y424D01*
X0Y423D02*
X7Y423D01*
X1862Y423D02*
X1869Y423D01*
X0Y422D02*
X7Y422D01*
X1862Y422D02*
X1869Y422D01*
X0Y421D02*
X7Y421D01*
X1862Y421D02*
X1869Y421D01*
X0Y420D02*
X7Y420D01*
X1862Y420D02*
X1869Y420D01*
X0Y419D02*
X7Y419D01*
X1862Y419D02*
X1869Y419D01*
X0Y418D02*
X7Y418D01*
X1862Y418D02*
X1869Y418D01*
X0Y417D02*
X7Y417D01*
X1862Y417D02*
X1869Y417D01*
X0Y416D02*
X7Y416D01*
X1862Y416D02*
X1869Y416D01*
X0Y415D02*
X7Y415D01*
X1862Y415D02*
X1869Y415D01*
X0Y414D02*
X7Y414D01*
X1862Y414D02*
X1869Y414D01*
X0Y413D02*
X7Y413D01*
X1862Y413D02*
X1869Y413D01*
X0Y412D02*
X7Y412D01*
X1862Y412D02*
X1869Y412D01*
X0Y411D02*
X7Y411D01*
X1862Y411D02*
X1869Y411D01*
X0Y410D02*
X7Y410D01*
X1862Y410D02*
X1869Y410D01*
X0Y409D02*
X7Y409D01*
X1862Y409D02*
X1869Y409D01*
X0Y408D02*
X7Y408D01*
X1862Y408D02*
X1869Y408D01*
X0Y407D02*
X7Y407D01*
X1862Y407D02*
X1869Y407D01*
X0Y406D02*
X7Y406D01*
X1862Y406D02*
X1869Y406D01*
X0Y405D02*
X7Y405D01*
X1862Y405D02*
X1869Y405D01*
X0Y404D02*
X7Y404D01*
X1862Y404D02*
X1869Y404D01*
X0Y403D02*
X7Y403D01*
X1862Y403D02*
X1869Y403D01*
X0Y402D02*
X7Y402D01*
X1862Y402D02*
X1869Y402D01*
X0Y401D02*
X7Y401D01*
X1862Y401D02*
X1869Y401D01*
X0Y400D02*
X7Y400D01*
X1862Y400D02*
X1869Y400D01*
X0Y399D02*
X7Y399D01*
X1862Y399D02*
X1869Y399D01*
X0Y398D02*
X7Y398D01*
X1862Y398D02*
X1869Y398D01*
X0Y397D02*
X7Y397D01*
X1862Y397D02*
X1869Y397D01*
X0Y396D02*
X7Y396D01*
X1862Y396D02*
X1869Y396D01*
X0Y395D02*
X7Y395D01*
X1862Y395D02*
X1869Y395D01*
X0Y394D02*
X7Y394D01*
X1862Y394D02*
X1869Y394D01*
X0Y393D02*
X7Y393D01*
X1862Y393D02*
X1869Y393D01*
X0Y392D02*
X7Y392D01*
X1862Y392D02*
X1869Y392D01*
X0Y391D02*
X7Y391D01*
X1862Y391D02*
X1869Y391D01*
X0Y390D02*
X7Y390D01*
X1862Y390D02*
X1869Y390D01*
X0Y389D02*
X7Y389D01*
X1862Y389D02*
X1869Y389D01*
X0Y388D02*
X7Y388D01*
X1862Y388D02*
X1869Y388D01*
X0Y387D02*
X7Y387D01*
X1862Y387D02*
X1869Y387D01*
X0Y386D02*
X7Y386D01*
X1862Y386D02*
X1869Y386D01*
X0Y385D02*
X7Y385D01*
X1862Y385D02*
X1869Y385D01*
X0Y384D02*
X7Y384D01*
X1862Y384D02*
X1869Y384D01*
X0Y383D02*
X7Y383D01*
X1862Y383D02*
X1869Y383D01*
X0Y382D02*
X7Y382D01*
X1862Y382D02*
X1869Y382D01*
X0Y381D02*
X7Y381D01*
X1862Y381D02*
X1869Y381D01*
X0Y380D02*
X7Y380D01*
X1862Y380D02*
X1869Y380D01*
X0Y379D02*
X7Y379D01*
X1862Y379D02*
X1869Y379D01*
X0Y378D02*
X7Y378D01*
X1862Y378D02*
X1869Y378D01*
X0Y377D02*
X7Y377D01*
X1862Y377D02*
X1869Y377D01*
X0Y376D02*
X7Y376D01*
X1862Y376D02*
X1869Y376D01*
X0Y375D02*
X7Y375D01*
X1862Y375D02*
X1869Y375D01*
X0Y374D02*
X7Y374D01*
X1862Y374D02*
X1869Y374D01*
X0Y373D02*
X7Y373D01*
X1862Y373D02*
X1869Y373D01*
X0Y372D02*
X7Y372D01*
X1862Y372D02*
X1869Y372D01*
X0Y371D02*
X7Y371D01*
X1862Y371D02*
X1869Y371D01*
X0Y370D02*
X7Y370D01*
X1862Y370D02*
X1869Y370D01*
X0Y369D02*
X7Y369D01*
X1862Y369D02*
X1869Y369D01*
X0Y368D02*
X7Y368D01*
X1862Y368D02*
X1869Y368D01*
X0Y367D02*
X7Y367D01*
X1862Y367D02*
X1869Y367D01*
X0Y366D02*
X7Y366D01*
X1862Y366D02*
X1869Y366D01*
X0Y365D02*
X7Y365D01*
X1862Y365D02*
X1869Y365D01*
X0Y364D02*
X7Y364D01*
X1862Y364D02*
X1869Y364D01*
X0Y363D02*
X7Y363D01*
X1862Y363D02*
X1869Y363D01*
X0Y362D02*
X7Y362D01*
X1862Y362D02*
X1869Y362D01*
X0Y361D02*
X7Y361D01*
X1862Y361D02*
X1869Y361D01*
X0Y360D02*
X7Y360D01*
X1862Y360D02*
X1869Y360D01*
X0Y359D02*
X7Y359D01*
X1862Y359D02*
X1869Y359D01*
X0Y358D02*
X7Y358D01*
X1862Y358D02*
X1869Y358D01*
X0Y357D02*
X7Y357D01*
X1862Y357D02*
X1869Y357D01*
X0Y356D02*
X7Y356D01*
X1862Y356D02*
X1869Y356D01*
X0Y355D02*
X7Y355D01*
X1862Y355D02*
X1869Y355D01*
X0Y354D02*
X7Y354D01*
X1862Y354D02*
X1869Y354D01*
X0Y353D02*
X7Y353D01*
X1862Y353D02*
X1869Y353D01*
X0Y352D02*
X7Y352D01*
X1862Y352D02*
X1869Y352D01*
X0Y351D02*
X7Y351D01*
X1862Y351D02*
X1869Y351D01*
X0Y350D02*
X7Y350D01*
X1862Y350D02*
X1869Y350D01*
X0Y349D02*
X7Y349D01*
X1862Y349D02*
X1869Y349D01*
X0Y348D02*
X7Y348D01*
X1862Y348D02*
X1869Y348D01*
X0Y347D02*
X7Y347D01*
X1862Y347D02*
X1869Y347D01*
X0Y346D02*
X7Y346D01*
X1862Y346D02*
X1869Y346D01*
X0Y345D02*
X7Y345D01*
X1862Y345D02*
X1869Y345D01*
X0Y344D02*
X7Y344D01*
X1862Y344D02*
X1869Y344D01*
X0Y343D02*
X7Y343D01*
X1862Y343D02*
X1869Y343D01*
X0Y342D02*
X7Y342D01*
X1862Y342D02*
X1869Y342D01*
X0Y341D02*
X7Y341D01*
X1862Y341D02*
X1869Y341D01*
X0Y340D02*
X7Y340D01*
X1862Y340D02*
X1869Y340D01*
X0Y339D02*
X7Y339D01*
X1862Y339D02*
X1869Y339D01*
X0Y338D02*
X7Y338D01*
X1862Y338D02*
X1869Y338D01*
X0Y337D02*
X7Y337D01*
X1862Y337D02*
X1869Y337D01*
X0Y336D02*
X7Y336D01*
X1862Y336D02*
X1869Y336D01*
X0Y335D02*
X7Y335D01*
X1862Y335D02*
X1869Y335D01*
X0Y334D02*
X7Y334D01*
X1862Y334D02*
X1869Y334D01*
X0Y333D02*
X7Y333D01*
X1862Y333D02*
X1869Y333D01*
X0Y332D02*
X7Y332D01*
X1862Y332D02*
X1869Y332D01*
X0Y331D02*
X7Y331D01*
X1862Y331D02*
X1869Y331D01*
X0Y330D02*
X7Y330D01*
X1862Y330D02*
X1869Y330D01*
X0Y329D02*
X7Y329D01*
X1862Y329D02*
X1869Y329D01*
X0Y328D02*
X7Y328D01*
X1862Y328D02*
X1869Y328D01*
X0Y327D02*
X7Y327D01*
X1862Y327D02*
X1869Y327D01*
X0Y326D02*
X7Y326D01*
X1862Y326D02*
X1869Y326D01*
X0Y325D02*
X7Y325D01*
X1862Y325D02*
X1869Y325D01*
X0Y324D02*
X7Y324D01*
X1862Y324D02*
X1869Y324D01*
X0Y323D02*
X7Y323D01*
X1862Y323D02*
X1869Y323D01*
X0Y322D02*
X7Y322D01*
X1862Y322D02*
X1869Y322D01*
X0Y321D02*
X7Y321D01*
X1862Y321D02*
X1869Y321D01*
X0Y320D02*
X7Y320D01*
X1862Y320D02*
X1869Y320D01*
X0Y319D02*
X7Y319D01*
X1862Y319D02*
X1869Y319D01*
X0Y318D02*
X7Y318D01*
X1862Y318D02*
X1869Y318D01*
X0Y317D02*
X7Y317D01*
X1862Y317D02*
X1869Y317D01*
X0Y316D02*
X7Y316D01*
X1862Y316D02*
X1869Y316D01*
X0Y315D02*
X7Y315D01*
X1862Y315D02*
X1869Y315D01*
X0Y314D02*
X7Y314D01*
X1862Y314D02*
X1869Y314D01*
X0Y313D02*
X7Y313D01*
X1862Y313D02*
X1869Y313D01*
X0Y312D02*
X7Y312D01*
X1862Y312D02*
X1869Y312D01*
X0Y311D02*
X7Y311D01*
X1862Y311D02*
X1869Y311D01*
X0Y310D02*
X7Y310D01*
X1862Y310D02*
X1869Y310D01*
X0Y309D02*
X7Y309D01*
X1862Y309D02*
X1869Y309D01*
X0Y308D02*
X7Y308D01*
X1862Y308D02*
X1869Y308D01*
X0Y307D02*
X7Y307D01*
X1862Y307D02*
X1869Y307D01*
X0Y306D02*
X7Y306D01*
X1862Y306D02*
X1869Y306D01*
X0Y305D02*
X7Y305D01*
X1862Y305D02*
X1869Y305D01*
X0Y304D02*
X7Y304D01*
X1862Y304D02*
X1869Y304D01*
X0Y303D02*
X7Y303D01*
X1862Y303D02*
X1869Y303D01*
X0Y302D02*
X7Y302D01*
X1862Y302D02*
X1869Y302D01*
X0Y301D02*
X7Y301D01*
X1862Y301D02*
X1869Y301D01*
X0Y300D02*
X7Y300D01*
X1862Y300D02*
X1869Y300D01*
X0Y299D02*
X7Y299D01*
X1862Y299D02*
X1869Y299D01*
X0Y298D02*
X7Y298D01*
X1862Y298D02*
X1869Y298D01*
X0Y297D02*
X7Y297D01*
X1862Y297D02*
X1869Y297D01*
X0Y296D02*
X7Y296D01*
X1862Y296D02*
X1869Y296D01*
X0Y295D02*
X7Y295D01*
X1862Y295D02*
X1869Y295D01*
X0Y294D02*
X7Y294D01*
X1862Y294D02*
X1869Y294D01*
X0Y293D02*
X7Y293D01*
X1862Y293D02*
X1869Y293D01*
X0Y292D02*
X7Y292D01*
X1862Y292D02*
X1869Y292D01*
X0Y291D02*
X7Y291D01*
X1862Y291D02*
X1869Y291D01*
X0Y290D02*
X7Y290D01*
X1862Y290D02*
X1869Y290D01*
X0Y289D02*
X7Y289D01*
X1862Y289D02*
X1869Y289D01*
X0Y288D02*
X7Y288D01*
X1862Y288D02*
X1869Y288D01*
X0Y287D02*
X7Y287D01*
X1862Y287D02*
X1869Y287D01*
X0Y286D02*
X7Y286D01*
X1862Y286D02*
X1869Y286D01*
X0Y285D02*
X7Y285D01*
X1862Y285D02*
X1869Y285D01*
X0Y284D02*
X7Y284D01*
X1862Y284D02*
X1869Y284D01*
X0Y283D02*
X7Y283D01*
X1862Y283D02*
X1869Y283D01*
X0Y282D02*
X7Y282D01*
X1862Y282D02*
X1869Y282D01*
X0Y281D02*
X7Y281D01*
X1862Y281D02*
X1869Y281D01*
X0Y280D02*
X7Y280D01*
X1862Y280D02*
X1869Y280D01*
X0Y279D02*
X7Y279D01*
X1862Y279D02*
X1869Y279D01*
X0Y278D02*
X7Y278D01*
X1862Y278D02*
X1869Y278D01*
X0Y277D02*
X7Y277D01*
X1862Y277D02*
X1869Y277D01*
X0Y276D02*
X7Y276D01*
X1862Y276D02*
X1869Y276D01*
X0Y275D02*
X7Y275D01*
X1862Y275D02*
X1869Y275D01*
X0Y274D02*
X7Y274D01*
X1862Y274D02*
X1869Y274D01*
X0Y273D02*
X7Y273D01*
X1862Y273D02*
X1869Y273D01*
X0Y272D02*
X7Y272D01*
X1862Y272D02*
X1869Y272D01*
X0Y271D02*
X7Y271D01*
X1862Y271D02*
X1869Y271D01*
X0Y270D02*
X7Y270D01*
X1862Y270D02*
X1869Y270D01*
X0Y269D02*
X7Y269D01*
X1862Y269D02*
X1869Y269D01*
X0Y268D02*
X7Y268D01*
X1862Y268D02*
X1869Y268D01*
X0Y267D02*
X7Y267D01*
X1862Y267D02*
X1869Y267D01*
X0Y266D02*
X7Y266D01*
X1862Y266D02*
X1869Y266D01*
X0Y265D02*
X7Y265D01*
X1862Y265D02*
X1869Y265D01*
X0Y264D02*
X7Y264D01*
X1862Y264D02*
X1869Y264D01*
X0Y263D02*
X7Y263D01*
X1862Y263D02*
X1869Y263D01*
X0Y262D02*
X7Y262D01*
X1862Y262D02*
X1869Y262D01*
X0Y261D02*
X7Y261D01*
X1862Y261D02*
X1869Y261D01*
X0Y260D02*
X7Y260D01*
X1862Y260D02*
X1869Y260D01*
X0Y259D02*
X7Y259D01*
X1862Y259D02*
X1869Y259D01*
X0Y258D02*
X7Y258D01*
X1862Y258D02*
X1869Y258D01*
X0Y257D02*
X7Y257D01*
X1862Y257D02*
X1869Y257D01*
X0Y256D02*
X7Y256D01*
X1862Y256D02*
X1869Y256D01*
X0Y255D02*
X7Y255D01*
X1862Y255D02*
X1869Y255D01*
X0Y254D02*
X7Y254D01*
X1862Y254D02*
X1869Y254D01*
X0Y253D02*
X7Y253D01*
X1862Y253D02*
X1869Y253D01*
X0Y252D02*
X7Y252D01*
X1862Y252D02*
X1869Y252D01*
X0Y251D02*
X7Y251D01*
X1862Y251D02*
X1869Y251D01*
X0Y250D02*
X7Y250D01*
X1862Y250D02*
X1869Y250D01*
X0Y249D02*
X7Y249D01*
X1862Y249D02*
X1869Y249D01*
X0Y248D02*
X7Y248D01*
X1862Y248D02*
X1869Y248D01*
X0Y247D02*
X7Y247D01*
X1862Y247D02*
X1869Y247D01*
X0Y246D02*
X7Y246D01*
X1862Y246D02*
X1869Y246D01*
X0Y245D02*
X7Y245D01*
X1862Y245D02*
X1869Y245D01*
X0Y244D02*
X7Y244D01*
X1862Y244D02*
X1869Y244D01*
X0Y243D02*
X7Y243D01*
X1862Y243D02*
X1869Y243D01*
X0Y242D02*
X7Y242D01*
X1862Y242D02*
X1869Y242D01*
X0Y241D02*
X7Y241D01*
X1862Y241D02*
X1869Y241D01*
X0Y240D02*
X7Y240D01*
X1862Y240D02*
X1869Y240D01*
X0Y239D02*
X7Y239D01*
X1862Y239D02*
X1869Y239D01*
X0Y238D02*
X7Y238D01*
X1862Y238D02*
X1869Y238D01*
X0Y237D02*
X7Y237D01*
X1862Y237D02*
X1869Y237D01*
X0Y236D02*
X7Y236D01*
X1862Y236D02*
X1869Y236D01*
X0Y235D02*
X7Y235D01*
X1862Y235D02*
X1869Y235D01*
X0Y234D02*
X7Y234D01*
X1862Y234D02*
X1869Y234D01*
X0Y233D02*
X7Y233D01*
X1862Y233D02*
X1869Y233D01*
X0Y232D02*
X7Y232D01*
X1862Y232D02*
X1869Y232D01*
X0Y231D02*
X7Y231D01*
X1862Y231D02*
X1869Y231D01*
X0Y230D02*
X7Y230D01*
X1862Y230D02*
X1869Y230D01*
X0Y229D02*
X7Y229D01*
X1862Y229D02*
X1869Y229D01*
X0Y228D02*
X7Y228D01*
X1862Y228D02*
X1869Y228D01*
X0Y227D02*
X7Y227D01*
X1862Y227D02*
X1869Y227D01*
X0Y226D02*
X7Y226D01*
X1862Y226D02*
X1869Y226D01*
X0Y225D02*
X7Y225D01*
X1862Y225D02*
X1869Y225D01*
X0Y224D02*
X7Y224D01*
X1862Y224D02*
X1869Y224D01*
X0Y223D02*
X7Y223D01*
X1862Y223D02*
X1869Y223D01*
X0Y222D02*
X7Y222D01*
X1862Y222D02*
X1869Y222D01*
X0Y221D02*
X7Y221D01*
X1862Y221D02*
X1869Y221D01*
X0Y220D02*
X7Y220D01*
X1862Y220D02*
X1869Y220D01*
X0Y219D02*
X7Y219D01*
X1862Y219D02*
X1869Y219D01*
X0Y218D02*
X7Y218D01*
X1862Y218D02*
X1869Y218D01*
X0Y217D02*
X7Y217D01*
X1862Y217D02*
X1869Y217D01*
X0Y216D02*
X7Y216D01*
X1862Y216D02*
X1869Y216D01*
X0Y215D02*
X7Y215D01*
X1862Y215D02*
X1869Y215D01*
X0Y214D02*
X7Y214D01*
X1862Y214D02*
X1869Y214D01*
X0Y213D02*
X7Y213D01*
X1862Y213D02*
X1869Y213D01*
X0Y212D02*
X7Y212D01*
X1862Y212D02*
X1869Y212D01*
X0Y211D02*
X7Y211D01*
X1862Y211D02*
X1869Y211D01*
X0Y210D02*
X7Y210D01*
X1862Y210D02*
X1869Y210D01*
X0Y209D02*
X7Y209D01*
X1862Y209D02*
X1869Y209D01*
X0Y208D02*
X7Y208D01*
X1862Y208D02*
X1869Y208D01*
X0Y207D02*
X7Y207D01*
X1862Y207D02*
X1869Y207D01*
X0Y206D02*
X7Y206D01*
X1862Y206D02*
X1869Y206D01*
X0Y205D02*
X7Y205D01*
X1862Y205D02*
X1869Y205D01*
X0Y204D02*
X7Y204D01*
X1862Y204D02*
X1869Y204D01*
X0Y203D02*
X7Y203D01*
X1862Y203D02*
X1869Y203D01*
X0Y202D02*
X7Y202D01*
X1862Y202D02*
X1869Y202D01*
X0Y201D02*
X7Y201D01*
X1862Y201D02*
X1869Y201D01*
X0Y200D02*
X7Y200D01*
X1862Y200D02*
X1869Y200D01*
X0Y199D02*
X7Y199D01*
X1862Y199D02*
X1869Y199D01*
X0Y198D02*
X7Y198D01*
X1862Y198D02*
X1869Y198D01*
X0Y197D02*
X7Y197D01*
X1862Y197D02*
X1869Y197D01*
X0Y196D02*
X7Y196D01*
X1862Y196D02*
X1869Y196D01*
X0Y195D02*
X7Y195D01*
X1862Y195D02*
X1869Y195D01*
X0Y194D02*
X7Y194D01*
X1862Y194D02*
X1869Y194D01*
X0Y193D02*
X7Y193D01*
X1862Y193D02*
X1869Y193D01*
X0Y192D02*
X7Y192D01*
X1862Y192D02*
X1869Y192D01*
X0Y191D02*
X7Y191D01*
X1862Y191D02*
X1869Y191D01*
X0Y190D02*
X7Y190D01*
X1862Y190D02*
X1869Y190D01*
X0Y189D02*
X7Y189D01*
X1862Y189D02*
X1869Y189D01*
X0Y188D02*
X7Y188D01*
X1862Y188D02*
X1869Y188D01*
X0Y187D02*
X7Y187D01*
X1862Y187D02*
X1869Y187D01*
X0Y186D02*
X7Y186D01*
X1862Y186D02*
X1869Y186D01*
X0Y185D02*
X7Y185D01*
X1862Y185D02*
X1869Y185D01*
X0Y184D02*
X7Y184D01*
X1862Y184D02*
X1869Y184D01*
X0Y183D02*
X7Y183D01*
X1862Y183D02*
X1869Y183D01*
X0Y182D02*
X7Y182D01*
X1862Y182D02*
X1869Y182D01*
X0Y181D02*
X7Y181D01*
X1862Y181D02*
X1869Y181D01*
X0Y180D02*
X7Y180D01*
X1862Y180D02*
X1869Y180D01*
X0Y179D02*
X7Y179D01*
X1862Y179D02*
X1869Y179D01*
X0Y178D02*
X7Y178D01*
X1862Y178D02*
X1869Y178D01*
X0Y177D02*
X7Y177D01*
X1862Y177D02*
X1869Y177D01*
X0Y176D02*
X7Y176D01*
X1862Y176D02*
X1869Y176D01*
X0Y175D02*
X7Y175D01*
X1862Y175D02*
X1869Y175D01*
X0Y174D02*
X7Y174D01*
X1862Y174D02*
X1869Y174D01*
X0Y173D02*
X7Y173D01*
X1862Y173D02*
X1869Y173D01*
X0Y172D02*
X7Y172D01*
X1862Y172D02*
X1869Y172D01*
X0Y171D02*
X7Y171D01*
X1862Y171D02*
X1869Y171D01*
X0Y170D02*
X7Y170D01*
X1862Y170D02*
X1869Y170D01*
X0Y169D02*
X7Y169D01*
X1862Y169D02*
X1869Y169D01*
X0Y168D02*
X7Y168D01*
X1862Y168D02*
X1869Y168D01*
X0Y167D02*
X7Y167D01*
X1862Y167D02*
X1869Y167D01*
X0Y166D02*
X7Y166D01*
X1862Y166D02*
X1869Y166D01*
X0Y165D02*
X7Y165D01*
X1862Y165D02*
X1869Y165D01*
X0Y164D02*
X7Y164D01*
X1862Y164D02*
X1869Y164D01*
X0Y163D02*
X7Y163D01*
X1862Y163D02*
X1869Y163D01*
X0Y162D02*
X7Y162D01*
X1862Y162D02*
X1869Y162D01*
X0Y161D02*
X7Y161D01*
X1862Y161D02*
X1869Y161D01*
X0Y160D02*
X7Y160D01*
X1862Y160D02*
X1869Y160D01*
X0Y159D02*
X7Y159D01*
X1862Y159D02*
X1869Y159D01*
X0Y158D02*
X7Y158D01*
X1862Y158D02*
X1869Y158D01*
X0Y157D02*
X7Y157D01*
X1862Y157D02*
X1869Y157D01*
X0Y156D02*
X7Y156D01*
X1862Y156D02*
X1869Y156D01*
X0Y155D02*
X7Y155D01*
X1862Y155D02*
X1869Y155D01*
X0Y154D02*
X7Y154D01*
X1862Y154D02*
X1869Y154D01*
X0Y153D02*
X7Y153D01*
X1862Y153D02*
X1869Y153D01*
X0Y152D02*
X7Y152D01*
X1862Y152D02*
X1869Y152D01*
X0Y151D02*
X7Y151D01*
X1862Y151D02*
X1869Y151D01*
X0Y150D02*
X7Y150D01*
X1862Y150D02*
X1869Y150D01*
X0Y149D02*
X7Y149D01*
X1862Y149D02*
X1869Y149D01*
X0Y148D02*
X7Y148D01*
X1862Y148D02*
X1869Y148D01*
X0Y147D02*
X7Y147D01*
X1862Y147D02*
X1869Y147D01*
X0Y146D02*
X7Y146D01*
X1862Y146D02*
X1869Y146D01*
X0Y145D02*
X7Y145D01*
X1862Y145D02*
X1869Y145D01*
X0Y144D02*
X7Y144D01*
X1862Y144D02*
X1869Y144D01*
X0Y143D02*
X7Y143D01*
X1862Y143D02*
X1869Y143D01*
X0Y142D02*
X7Y142D01*
X1862Y142D02*
X1869Y142D01*
X0Y141D02*
X7Y141D01*
X1862Y141D02*
X1869Y141D01*
X0Y140D02*
X7Y140D01*
X1862Y140D02*
X1869Y140D01*
X0Y139D02*
X7Y139D01*
X1862Y139D02*
X1869Y139D01*
X0Y138D02*
X7Y138D01*
X1862Y138D02*
X1869Y138D01*
X0Y137D02*
X7Y137D01*
X1862Y137D02*
X1869Y137D01*
X0Y136D02*
X7Y136D01*
X1862Y136D02*
X1869Y136D01*
X0Y135D02*
X7Y135D01*
X1862Y135D02*
X1869Y135D01*
X0Y134D02*
X7Y134D01*
X1862Y134D02*
X1869Y134D01*
X0Y133D02*
X7Y133D01*
X1862Y133D02*
X1869Y133D01*
X0Y132D02*
X7Y132D01*
X1862Y132D02*
X1869Y132D01*
X0Y131D02*
X7Y131D01*
X1862Y131D02*
X1869Y131D01*
X0Y130D02*
X7Y130D01*
X1862Y130D02*
X1869Y130D01*
X0Y129D02*
X7Y129D01*
X1862Y129D02*
X1869Y129D01*
X0Y128D02*
X7Y128D01*
X1862Y128D02*
X1869Y128D01*
X0Y127D02*
X7Y127D01*
X1862Y127D02*
X1869Y127D01*
X0Y126D02*
X7Y126D01*
X1862Y126D02*
X1869Y126D01*
X0Y125D02*
X7Y125D01*
X1862Y125D02*
X1869Y125D01*
X0Y124D02*
X7Y124D01*
X1862Y124D02*
X1869Y124D01*
X0Y123D02*
X7Y123D01*
X1862Y123D02*
X1869Y123D01*
X0Y122D02*
X7Y122D01*
X1862Y122D02*
X1869Y122D01*
X0Y121D02*
X7Y121D01*
X1862Y121D02*
X1869Y121D01*
X0Y120D02*
X7Y120D01*
X1862Y120D02*
X1869Y120D01*
X0Y119D02*
X7Y119D01*
X1862Y119D02*
X1869Y119D01*
X0Y118D02*
X7Y118D01*
X1862Y118D02*
X1869Y118D01*
X0Y117D02*
X7Y117D01*
X1862Y117D02*
X1869Y117D01*
X0Y116D02*
X7Y116D01*
X1862Y116D02*
X1869Y116D01*
X0Y115D02*
X7Y115D01*
X1862Y115D02*
X1869Y115D01*
X0Y114D02*
X7Y114D01*
X1862Y114D02*
X1869Y114D01*
X0Y113D02*
X7Y113D01*
X1862Y113D02*
X1869Y113D01*
X0Y112D02*
X7Y112D01*
X1862Y112D02*
X1869Y112D01*
X0Y111D02*
X7Y111D01*
X1862Y111D02*
X1869Y111D01*
X0Y110D02*
X7Y110D01*
X1862Y110D02*
X1869Y110D01*
X0Y109D02*
X7Y109D01*
X1862Y109D02*
X1869Y109D01*
X0Y108D02*
X7Y108D01*
X1862Y108D02*
X1869Y108D01*
X0Y107D02*
X7Y107D01*
X1862Y107D02*
X1869Y107D01*
X0Y106D02*
X7Y106D01*
X1862Y106D02*
X1869Y106D01*
X0Y105D02*
X7Y105D01*
X1862Y105D02*
X1869Y105D01*
X0Y104D02*
X7Y104D01*
X1862Y104D02*
X1869Y104D01*
X0Y103D02*
X7Y103D01*
X1862Y103D02*
X1869Y103D01*
X0Y102D02*
X7Y102D01*
X1862Y102D02*
X1869Y102D01*
X0Y101D02*
X7Y101D01*
X1862Y101D02*
X1869Y101D01*
X0Y100D02*
X7Y100D01*
X1862Y100D02*
X1869Y100D01*
X0Y99D02*
X7Y99D01*
X1862Y99D02*
X1869Y99D01*
X0Y98D02*
X7Y98D01*
X1862Y98D02*
X1869Y98D01*
X0Y97D02*
X7Y97D01*
X1862Y97D02*
X1869Y97D01*
X0Y96D02*
X7Y96D01*
X1862Y96D02*
X1869Y96D01*
X0Y95D02*
X7Y95D01*
X1862Y95D02*
X1869Y95D01*
X0Y94D02*
X7Y94D01*
X1862Y94D02*
X1869Y94D01*
X0Y93D02*
X7Y93D01*
X1862Y93D02*
X1869Y93D01*
X0Y92D02*
X7Y92D01*
X1862Y92D02*
X1869Y92D01*
X0Y91D02*
X7Y91D01*
X1862Y91D02*
X1869Y91D01*
X0Y90D02*
X7Y90D01*
X1862Y90D02*
X1869Y90D01*
X0Y89D02*
X7Y89D01*
X1862Y89D02*
X1869Y89D01*
X0Y88D02*
X7Y88D01*
X1862Y88D02*
X1869Y88D01*
X0Y87D02*
X7Y87D01*
X1862Y87D02*
X1869Y87D01*
X0Y86D02*
X7Y86D01*
X1862Y86D02*
X1869Y86D01*
X0Y85D02*
X7Y85D01*
X1862Y85D02*
X1869Y85D01*
X0Y84D02*
X7Y84D01*
X1862Y84D02*
X1869Y84D01*
X0Y83D02*
X7Y83D01*
X1862Y83D02*
X1869Y83D01*
X0Y82D02*
X7Y82D01*
X1862Y82D02*
X1869Y82D01*
X0Y81D02*
X7Y81D01*
X1862Y81D02*
X1869Y81D01*
X0Y80D02*
X7Y80D01*
X1862Y80D02*
X1869Y80D01*
X0Y79D02*
X7Y79D01*
X1862Y79D02*
X1869Y79D01*
X0Y78D02*
X7Y78D01*
X1862Y78D02*
X1869Y78D01*
X0Y77D02*
X7Y77D01*
X1862Y77D02*
X1869Y77D01*
X0Y76D02*
X7Y76D01*
X1862Y76D02*
X1869Y76D01*
X0Y75D02*
X7Y75D01*
X1862Y75D02*
X1869Y75D01*
X0Y74D02*
X7Y74D01*
X1862Y74D02*
X1869Y74D01*
X0Y73D02*
X7Y73D01*
X1862Y73D02*
X1869Y73D01*
X0Y72D02*
X7Y72D01*
X1862Y72D02*
X1869Y72D01*
X0Y71D02*
X7Y71D01*
X1862Y71D02*
X1869Y71D01*
X0Y70D02*
X7Y70D01*
X1862Y70D02*
X1869Y70D01*
X0Y69D02*
X7Y69D01*
X1862Y69D02*
X1869Y69D01*
X0Y68D02*
X7Y68D01*
X1862Y68D02*
X1869Y68D01*
X0Y67D02*
X7Y67D01*
X1862Y67D02*
X1869Y67D01*
X0Y66D02*
X7Y66D01*
X1862Y66D02*
X1869Y66D01*
X0Y65D02*
X7Y65D01*
X1862Y65D02*
X1869Y65D01*
X0Y64D02*
X7Y64D01*
X1862Y64D02*
X1869Y64D01*
X0Y63D02*
X7Y63D01*
X1862Y63D02*
X1869Y63D01*
X0Y62D02*
X7Y62D01*
X1862Y62D02*
X1869Y62D01*
X0Y61D02*
X7Y61D01*
X1862Y61D02*
X1869Y61D01*
X0Y60D02*
X7Y60D01*
X1862Y60D02*
X1869Y60D01*
X0Y59D02*
X7Y59D01*
X1862Y59D02*
X1869Y59D01*
X0Y58D02*
X7Y58D01*
X1862Y58D02*
X1869Y58D01*
X0Y57D02*
X7Y57D01*
X1862Y57D02*
X1869Y57D01*
X0Y56D02*
X7Y56D01*
X1862Y56D02*
X1869Y56D01*
X0Y55D02*
X7Y55D01*
X1862Y55D02*
X1869Y55D01*
X0Y54D02*
X7Y54D01*
X1862Y54D02*
X1869Y54D01*
X0Y53D02*
X7Y53D01*
X1862Y53D02*
X1869Y53D01*
X0Y52D02*
X7Y52D01*
X1862Y52D02*
X1869Y52D01*
X0Y51D02*
X7Y51D01*
X1862Y51D02*
X1869Y51D01*
X0Y50D02*
X7Y50D01*
X1862Y50D02*
X1869Y50D01*
X0Y49D02*
X7Y49D01*
X1862Y49D02*
X1869Y49D01*
X0Y48D02*
X7Y48D01*
X1862Y48D02*
X1869Y48D01*
X0Y47D02*
X7Y47D01*
X1862Y47D02*
X1869Y47D01*
X0Y46D02*
X7Y46D01*
X1862Y46D02*
X1869Y46D01*
X0Y45D02*
X7Y45D01*
X1862Y45D02*
X1869Y45D01*
X0Y44D02*
X7Y44D01*
X1862Y44D02*
X1869Y44D01*
X0Y43D02*
X7Y43D01*
X1862Y43D02*
X1869Y43D01*
X0Y42D02*
X7Y42D01*
X1862Y42D02*
X1869Y42D01*
X0Y41D02*
X7Y41D01*
X1862Y41D02*
X1869Y41D01*
X0Y40D02*
X7Y40D01*
X1862Y40D02*
X1869Y40D01*
X0Y39D02*
X7Y39D01*
X1862Y39D02*
X1869Y39D01*
X0Y38D02*
X7Y38D01*
X1862Y38D02*
X1869Y38D01*
X0Y37D02*
X7Y37D01*
X1862Y37D02*
X1869Y37D01*
X0Y36D02*
X7Y36D01*
X1862Y36D02*
X1869Y36D01*
X0Y35D02*
X7Y35D01*
X1862Y35D02*
X1869Y35D01*
X0Y34D02*
X7Y34D01*
X1862Y34D02*
X1869Y34D01*
X0Y33D02*
X7Y33D01*
X1862Y33D02*
X1869Y33D01*
X0Y32D02*
X7Y32D01*
X1862Y32D02*
X1869Y32D01*
X0Y31D02*
X7Y31D01*
X1862Y31D02*
X1869Y31D01*
X0Y30D02*
X7Y30D01*
X1862Y30D02*
X1869Y30D01*
X0Y29D02*
X7Y29D01*
X1862Y29D02*
X1869Y29D01*
X0Y28D02*
X7Y28D01*
X1862Y28D02*
X1869Y28D01*
X0Y27D02*
X7Y27D01*
X1862Y27D02*
X1869Y27D01*
X0Y26D02*
X7Y26D01*
X1862Y26D02*
X1869Y26D01*
X0Y25D02*
X7Y25D01*
X1862Y25D02*
X1869Y25D01*
X0Y24D02*
X7Y24D01*
X1862Y24D02*
X1869Y24D01*
X0Y23D02*
X7Y23D01*
X1862Y23D02*
X1869Y23D01*
X0Y22D02*
X7Y22D01*
X1862Y22D02*
X1869Y22D01*
X0Y21D02*
X7Y21D01*
X1862Y21D02*
X1869Y21D01*
X0Y20D02*
X7Y20D01*
X1862Y20D02*
X1869Y20D01*
X0Y19D02*
X7Y19D01*
X1862Y19D02*
X1869Y19D01*
X0Y18D02*
X7Y18D01*
X1862Y18D02*
X1869Y18D01*
X0Y17D02*
X7Y17D01*
X1862Y17D02*
X1869Y17D01*
X0Y16D02*
X7Y16D01*
X1862Y16D02*
X1869Y16D01*
X0Y15D02*
X7Y15D01*
X1862Y15D02*
X1869Y15D01*
X0Y14D02*
X7Y14D01*
X1862Y14D02*
X1869Y14D01*
X0Y13D02*
X7Y13D01*
X1862Y13D02*
X1869Y13D01*
X0Y12D02*
X7Y12D01*
X1862Y12D02*
X1869Y12D01*
X0Y11D02*
X7Y11D01*
X1862Y11D02*
X1869Y11D01*
X0Y10D02*
X7Y10D01*
X1862Y10D02*
X1869Y10D01*
X0Y9D02*
X1869Y9D01*
X0Y8D02*
X1869Y8D01*
X0Y7D02*
X1869Y7D01*
X0Y6D02*
X1869Y6D01*
X0Y5D02*
X1869Y5D01*
X0Y4D02*
X1869Y4D01*
X0Y3D02*
X1869Y3D01*
X0Y2D02*
X1869Y2D01*
D02*
G04 End of Silk1*
M02*