; NON-PLATED HOLES START AT T1
; THROUGH (PLATED) HOLES START AT T100
M48
INCH
T1C0.086614
T2C0.128000
T100C0.031496
T101C0.031555
T102C0.035000
T103C0.027559
T104C0.040000
T105C0.015748
T106C0.052000
%
T1
X017951Y000569
X017951Y022569
T2
X003451Y003319
X003451Y007319
T100
X009951Y011569
T101
X009951Y013500
T102
X002951Y021569
X015951Y010569
X012951Y007569
X012951Y008569
X012951Y006569
X015951Y012569
X012951Y014569
X015951Y011569
X015951Y005569
X012951Y017569
X015951Y015569
X001951Y021569
X002951Y018569
X015951Y013569
X015951Y016569
X012951Y011569
X012951Y012569
X015951Y004569
X012951Y016569
X012951Y005569
X004951Y021569
X008951Y021569
X012951Y013569
X006951Y021569
X015951Y008569
X001951Y018569
X012951Y015569
X015951Y006569
X012951Y010569
X003951Y021569
X007951Y021569
X012951Y004569
X015951Y017569
X012951Y009569
X008951Y018569
X015951Y014569
X005951Y021569
X006951Y018569
X015951Y009569
X004951Y018569
X005951Y018569
X003951Y018569
X007951Y018569
X015951Y007569
T103
X007951Y014569
X006951Y011569
X006951Y014569
X007951Y011569
T104
X005951Y005569
X010951Y002469
X012951Y002469
X011951Y021569
X006951Y006069
X005951Y006569
X013951Y002569
X014951Y021469
X015951Y002569
X011951Y002569
X005951Y004569
X006951Y004069
X015951Y021569
X006951Y005069
X014951Y002469
X013951Y021569
X010951Y021469
X012951Y021469
T105
X009951Y007569
X007951Y008569
T106
X009951Y016569
X006951Y016569
T00
M30
